<?xml version="1.0" encoding="UTF-8"?>
<svg xmlns="http://www.w3.org/2000/svg" xmlns:xlink="http://www.w3.org/1999/xlink" width="1110.0px" height="414.0px" viewBox="0 0 1110.0 414.0" version="1.1">

<defs>
<!-- polycosvg ratio="1.000000" offsetx="0.000000" offsety="0.000000" / -->
</defs><g>
<path style="fill:rgb(91.76471%,32.941177%,1.5686276%);fill-rule:evenodd;stroke:none;" name="Path No.10" d="M 363.0 319.5 C 367.3945 322.37833 375.19662 320.12146 381.02628 321.0 C 390.55383 321.0 400.0814 321.0 409.60898 321.0 C 414.3669 321.0 419.15826 321.0 423.90033 321.0 C 428.1252 320.466 434.34204 322.08725 437.0 319.0 C 436.71005 318.45544 436.38995 317.97192 436.0 317.5 C 428.55432 316.28546 410.64023 318.9717 413.2538 304.3158 C 418.47348 274.70038 433.04108 247.42632 439.0 218.0 C 467.61545 222.89735 500.32623 224.78117 525.15564 206.85023 C 536.674 198.88712 546.0044 187.41808 549.88525 173.84239 C 552.0542 166.80086 552.7658 159.00594 550.65283 151.85725 C 548.54584 145.63528 543.29944 139.62491 538.3261 136.3548 C 525.17096 128.7885 509.57538 127.16167 494.73343 126.53105 C 479.04446 125.78444 463.36224 126.03854 447.67526 126.0 C 442.887 126.0 438.09872 126.0 433.3105 126.0 C 429.52768 126.26116 424.52365 125.129845 421.0 128.5 C 424.6764 131.17569 431.31067 129.0725 436.21323 130.8163 C 448.73013 132.90874 444.49597 145.378 441.92877 153.28375 C 431.90598 184.3923 422.4284 215.66776 412.24695 246.7258 C 407.18582 262.15237 402.6075 277.74884 397.44904 293.1413 C 395.13553 300.6689 392.51706 309.23456 385.09137 313.35736 C 381.60025 315.48355 377.58472 316.65677 373.51166 316.85608 C 369.90787 317.15564 365.03156 316.72403 363.0 319.5 Z M 442.0 209.625 C 467.18512 216.63376 500.31134 213.39024 517.6811 191.07079 C 525.1164 181.72992 531.62854 163.7382 524.36835 151.13863 C 517.1265 138.51732 498.03864 136.7543 485.47562 137.07089 C 478.463 137.03658 470.38403 138.71193 464.0 139.0 C 463.55624 145.35394 460.2418 151.14072 458.78897 157.25533 C 453.18198 174.45276 448.0216 192.8605 442.0 209.625 Z M 567.0 308.0 C 564.22833 315.67654 568.90314 322.56775 576.4181 322.69342 C 584.0008 323.1232 590.8279 318.83447 596.51135 314.3479 C 609.0293 303.7779 621.50354 293.15015 633.5 282.0 C 630.81964 294.34222 619.93915 313.21335 633.2289 321.5188 C 647.8525 329.1951 662.38635 317.2045 671.1023 308.39774 C 679.84814 300.0932 687.46313 290.75134 694.5 281.0 C 695.2869 289.83978 693.5015 299.5886 698.8923 307.67352 C 705.21783 320.69452 719.74347 327.21884 733.6966 325.98242 C 747.2683 326.02097 762.7398 320.41104 772.712 313.13644 C 785.7033 303.89795 795.91174 290.88004 803.5 277.0 C 802.15875 292.23798 804.307 314.40024 823.8002 322.82297 C 841.5388 329.49402 862.1031 325.32834 877.90314 315.70544 C 903.4525 301.07507 923.00244 267.0617 919.5915 240.01837 C 918.09204 230.05122 912.1802 220.82114 903.7987 215.25047 C 890.3775 206.65926 873.06146 208.03348 858.8284 213.22923 C 844.6833 218.18115 832.1637 227.69887 822.89844 239.40744 C 818.668 244.30429 815.0325 249.67686 811.94006 255.34184 C 808.8497 261.5576 806.59454 268.2436 802.16974 273.7276 C 801.7165 274.4805 801.20746 275.19177 800.7034 275.8919 C 799.8121 277.16824 798.92377 278.43143 797.91077 279.60745 C 783.24207 298.70898 758.09247 312.9099 733.63086 307.90213 C 721.6607 305.27646 715.41925 296.20248 714.3033 285.2664 C 712.51245 264.70026 721.8149 244.15958 735.9555 229.71422 C 742.36194 223.83842 750.18964 219.5938 758.755 217.81541 C 766.7502 216.10925 778.58514 216.54515 780.53485 225.33508 C 781.7455 230.88187 776.9522 243.18188 786.1963 245.69713 C 792.97656 247.8782 801.1418 245.46881 805.3543 239.67519 C 813.85675 223.96378 798.64594 213.57745 785.76184 210.24503 C 761.53674 205.53307 737.28516 216.85551 719.78406 232.77623 C 713.79895 238.79266 707.75616 246.91014 704.10455 253.75456 C 700.21936 260.43723 698.42114 267.92838 695.98413 275.1547 C 689.19604 286.33685 676.59033 296.1066 667.9894 304.18225 C 664.17487 307.07397 659.7054 309.63766 654.7768 309.75626 C 642.9908 309.65582 646.54456 296.51572 649.1696 289.96484 C 656.6084 264.1772 666.1804 238.92953 673.0 213.0 C 683.33813 213.0 693.67255 213.0 704.0 213.0 C 704.434 210.59302 705.5592 208.40329 706.0 206.0 C 695.98364 206.0 686.00037 206.0 676.0 206.0 C 679.1209 193.85086 683.88165 182.15645 687.0 170.0 C 683.4125 170.30507 682.78394 173.77559 681.21375 176.46558 C 676.3785 186.17963 668.867 194.52007 659.81305 200.4089 C 655.2975 202.8892 649.8807 205.73985 645.40625 207.28575 C 640.8107 209.37396 633.44525 209.07346 630.0 211.5 C 632.8993 213.68666 638.0576 212.67705 642.0672 213.0 C 646.389 213.0 650.69385 213.0 655.0 213.0 C 651.9982 225.90045 647.0735 238.39479 643.45026 251.14253 C 639.60376 262.1466 637.3232 276.95544 628.304 283.93216 C 619.8435 290.9398 611.6323 298.25952 602.4995 304.39355 C 598.3207 307.41107 593.7149 311.00357 588.29 310.5533 C 583.743 308.43463 587.85004 299.98822 588.155 296.97205 C 593.60004 277.413 600.79706 258.37512 606.20447 238.80554 C 608.8889 231.38402 609.03326 220.3928 600.43475 214.45198 C 585.52386 205.68282 566.52637 209.03963 551.2078 214.56123 C 544.87695 217.18967 539.1867 221.24388 534.3977 226.1023 C 530.36505 229.99559 525.1597 235.733 526.59357 243.0585 C 528.49146 250.559 536.3834 249.60648 540.5028 245.53342 C 546.6484 237.83899 549.4347 225.3613 561.3557 220.38734 C 569.98016 216.5761 585.2796 215.43619 588.6964 225.16147 C 590.32043 230.19856 589.28595 235.54268 588.0966 240.53969 C 587.1634 244.1599 586.299 248.84056 581.87036 250.48816 C 566.8892 255.3431 551.75336 259.71036 537.30524 266.07413 C 520.10236 273.97708 492.18127 290.94513 505.19855 316.97913 C 511.67557 326.98245 527.6056 325.9652 537.13 322.9252 C 547.7827 319.546 556.88574 312.31882 567.0 308.0 Z M 583.0 257.0 C 565.0734 262.27444 543.3249 269.01935 529.4916 279.6532 C 522.4195 284.79803 517.34894 296.2555 520.6197 303.9235 C 524.6299 314.5241 537.7597 313.8044 545.5294 310.9557 C 551.445 309.3356 556.9973 306.70544 562.3754 303.81427 C 571.74603 300.15405 571.84595 290.7554 575.0653 282.30222 C 577.4809 273.79233 580.4035 265.43784 583.0 257.0 Z M 823.2646 284.93842 C 823.75183 294.79456 824.93866 305.46313 832.3331 312.64792 C 839.5239 319.72635 850.9093 320.14752 860.21747 317.92764 C 877.6478 312.71442 888.79346 297.32852 893.9218 280.6052 C 899.6364 264.7093 910.0272 226.1148 883.32654 216.73083 C 866.44794 211.79399 849.06134 221.16467 839.46436 234.75792 C 828.70605 249.21909 824.9322 267.33234 823.2646 284.93842 Z M 905.0 319.5 C 905.0 319.99933 905.0 320.50662 905.0 321.0 C 914.204 321.0 923.396 321.0 932.6 321.0 C 937.2 321.0 941.8 321.0 946.4 321.0 C 950.12506 320.6972 956.81195 321.97134 958.0 318.0 C 953.6861 317.41446 948.893 316.25873 945.96106 312.77524 C 942.1609 303.81885 947.82117 295.76538 949.5448 287.07895 C 954.80865 272.96182 957.68805 257.75494 963.89874 244.03087 C 971.04956 236.16408 980.7171 225.03076 990.68207 225.27303 C 994.8597 225.79738 997.77075 229.51515 1001.8012 230.44145 C 1009.023 232.75505 1018.05756 227.0998 1017.73206 219.04408 C 1017.1852 206.09259 998.7959 208.63316 992.1329 212.47795 C 982.8748 216.96068 974.1471 225.51463 967.5 232.0 C 968.41266 224.52238 973.055 215.92949 974.0 209.0 C 966.47156 208.82678 959.6538 212.76349 952.6642 214.98042 C 945.9257 217.00682 938.3518 220.80022 932.0 222.0 C 932.0 222.98363 932.0 224.01637 932.0 225.0 C 937.1478 224.66069 944.3502 222.66571 947.7427 226.04669 C 950.3065 233.58731 943.8953 243.74579 942.5946 252.44608 C 938.6576 265.78018 934.01324 278.86023 930.0658 292.1823 C 927.8645 298.2445 926.1787 306.02576 922.4777 310.78583 C 918.3148 316.05176 911.3666 317.62302 905.0 318.0 C 905.0 318.4961 905.0 319.00644 905.0 319.5 Z M 1099.0 282.5 C 1098.1576 282.12964 1097.3121 281.70593 1096.5 281.0 C 1083.7571 298.90897 1061.9294 311.85684 1039.2404 308.39737 C 1028.2804 307.73853 1018.04205 299.74896 1016.3821 288.61957 C 1014.723 277.09702 1018.2863 265.68167 1022.0 255.0 C 1036.1932 255.0 1050.4067 255.0 1064.6 255.0 C 1075.208 255.0 1085.808 255.0 1096.4 255.0 C 1099.9966 254.62126 1105.2537 255.81598 1107.5756 253.22104 C 1112.5028 242.14218 1110.7249 227.07709 1101.9874 218.51324 C 1093.0718 209.43802 1079.2114 208.01378 1067.2242 209.48454 C 1050.0309 211.71382 1033.6726 220.20866 1021.7673 232.73273 C 1017.94025 236.40555 1014.33344 240.31322 1011.5082 244.8217 C 1009.30884 248.1434 1007.18994 252.3408 1005.58417 255.6159 C 1001.5697 263.94025 998.6429 272.81024 997.2127 281.94443 C 996.3715 291.3686 996.66785 301.61246 1002.20776 309.73605 C 1007.27344 317.73578 1015.64307 323.4701 1024.9813 325.1391 C 1044.855 329.0139 1065.2999 321.13754 1079.3926 307.10217 C 1087.3298 300.0467 1094.2874 292.05984 1099.0 282.5 Z M 1025.0 248.5 C 1038.24 249.88727 1052.2781 248.27939 1065.6821 249.0 C 1072.6091 248.8239 1079.5605 249.22472 1086.4722 248.85416 C 1093.3317 248.8198 1091.6208 237.08739 1090.9113 233.05444 C 1088.3468 219.1493 1074.2395 215.0215 1062.2437 217.1862 C 1050.1964 219.36612 1039.9752 227.28288 1032.4182 236.53966 C 1029.5026 240.04295 1026.7786 245.3879 1025.0 248.5 Z " />

<path style="fill:rgb(90.196075%,0.0%,7.058824%);fill-rule:evenodd;stroke:none;" name="Path No.11" d="M 0.0 136.375 C 7.145792 159.50089 19.09291 181.54453 35.294144 199.69943 C 43.63309 208.37064 52.53717 216.99936 63.53973 222.27052 C 75.029045 228.77722 88.33519 228.73897 101.0 228.0 C 101.0 227.50066 101.0 226.99336 101.0 226.5 C 91.002205 219.15747 85.97073 207.64134 80.5 197.0 C 71.72607 199.79317 61.334816 194.4532 54.712273 190.48965 C 31.273825 178.17952 15.963251 155.79842 0.0 136.0 C 0.0 136.10632 0.0 136.24869 0.0 136.375 Z M 91.0 110.25 C 95.205795 118.012115 98.99462 128.18335 101.013336 136.06425 C 101.62161 138.347 101.380135 140.9928 103.6089 142.00813 C 109.57049 144.56924 117.40015 149.41267 123.0 148.5 C 112.71205 136.5123 104.3902 117.25316 91.0 110.0 C 91.0 110.09 91.0 110.17333 91.0 110.25 Z M 198.0 258.0 C 187.46988 254.58723 176.10638 252.28526 165.0 254.5 C 166.11761 256.59854 164.10043 259.3915 163.39442 261.06198 C 162.22136 262.93317 161.19597 265.1714 159.5 265.0 C 158.31964 269.53152 158.32024 274.54462 155.30165 278.5259 C 152.23883 282.6002 146.84778 283.70142 142.25 285.0 C 142.13715 288.59656 137.11162 289.50406 134.39543 290.2318 C 121.11244 293.24966 106.7912 285.23483 103.069016 272.1206 C 97.38544 259.3137 100.04893 245.26733 99.5 232.0 C 91.71877 249.24393 90.048485 268.88824 94.80501 287.1764 C 97.87364 303.0621 110.08819 324.18582 132.46207 322.86096 C 161.64345 320.35538 168.91325 287.6027 183.58643 271.0838 C 185.96315 268.51663 188.40376 265.93552 191.25998 263.90186 C 193.62271 262.0269 197.27739 260.62756 198.0 258.0 Z M 148.375 155.0 C 154.65393 156.33159 161.11104 155.97232 167.48004 156.0 C 173.70677 155.85693 181.16399 156.47533 186.75 155.0 C 186.72614 154.36987 186.41272 153.89763 186.0 153.5 C 210.24411 139.50165 220.98859 111.38306 228.24838 85.97597 C 234.81902 58.79295 241.3281 25.787737 240.5 0.0 C 233.87894 24.25451 227.17804 48.548584 216.71019 71.507706 C 208.88321 87.24072 199.40929 107.00556 185.73161 116.69476 C 174.5599 126.24249 157.24129 124.5834 147.05069 114.473175 C 131.92578 100.30905 123.00085 80.97327 115.100494 62.238464 C 106.61244 42.566757 101.19525 21.463215 95.5 1.0 C 93.884766 18.743666 98.981285 40.316547 100.753265 56.48705 C 103.57933 74.48975 108.59676 92.0913 115.04173 109.09917 C 118.75229 118.00611 123.0362 126.8059 128.71808 134.62407 C 131.59814 138.7566 134.80528 142.71169 138.69623 145.93086 C 141.99442 149.11823 147.78487 151.43007 148.375 155.0 Z M 126.0 213.5 C 125.24664 211.30789 127.48894 208.85953 128.18526 206.41171 C 132.46812 196.39738 132.7205 185.1172 131.36073 174.4692 C 131.4286 172.09126 126.80203 171.22311 125.40141 170.10855 C 118.73549 167.61842 111.768326 162.26794 105.32312 161.0 C 106.931595 165.11989 107.194115 168.55019 106.29684 172.80786 C 105.60859 176.33492 105.4987 182.01733 102.0 183.0 C 102.10336 189.9797 106.52466 197.40372 110.14398 202.38823 C 114.490746 206.48131 120.08963 214.7817 126.0 213.5 Z M 173.0 244.5 C 173.03067 245.0496 173.18602 245.55751 173.5 246.0 C 182.75937 246.21295 193.14655 250.78876 199.98466 255.48676 C 205.53752 260.16904 213.66164 257.67 219.99649 261.10837 C 229.27428 265.67355 233.87059 276.06293 235.4397 285.67014 C 236.40463 290.91348 236.93752 296.245 236.9679 301.56912 C 237.6105 306.7081 235.31334 312.7926 236.5 317.0 C 249.98947 289.68256 244.6454 255.08778 226.0 232.0 C 219.1859 232.86617 212.76524 236.59636 205.68027 235.87796 C 198.54291 235.71483 190.91498 231.61775 184.5 231.0 C 183.74745 233.80602 181.79366 235.91985 179.6401 237.87712 C 177.62148 240.37436 175.27284 242.42151 173.0 244.5 Z M 204.0 173.35388 C 205.20898 179.77869 202.81343 187.05716 204.65822 194.74321 C 205.29166 198.22162 206.0819 201.66544 207.23965 205.00186 C 208.06058 207.94043 210.72208 211.21072 210.0 213.5 C 213.81975 215.1653 216.95813 211.28798 219.23254 209.26746 C 226.60852 202.41495 234.35 193.89932 234.0 183.0 C 230.81342 182.10808 230.7414 177.00272 230.1432 173.5879 C 230.188 169.86066 229.5219 164.3447 231.0 161.5 C 226.5357 160.34044 222.04633 165.2343 218.15662 166.42624 C 213.69759 168.83061 208.24945 171.21169 204.0 173.0 C 204.0 173.11797 204.0 173.23592 204.0 173.35388 Z M 213.0 148.375 C 214.93068 150.02602 218.80673 147.5804 220.71376 147.29614 C 225.39908 145.34517 231.31139 143.4553 235.0 140.5 C 234.02434 136.07404 236.86557 130.44963 238.6081 125.49761 C 240.73851 120.70947 242.40598 114.56871 245.0 110.5 C 244.51173 110.26516 244.03256 110.079895 243.5 110.0 C 237.82304 115.83337 231.76917 123.19665 226.90274 128.84937 C 221.70831 134.6184 217.78119 143.21169 213.0 148.375 Z M 235.0 226.5 C 235.0 226.99934 235.0 227.50664 235.0 228.0 C 263.88428 231.99902 284.20804 218.15541 301.35696 199.12158 C 316.5947 181.8217 331.1894 156.73167 335.5 136.0 C 326.06137 150.70781 314.87375 164.06676 301.76178 175.64954 C 288.8107 185.9654 270.91238 201.00015 255.5 197.0 C 248.79388 206.23418 245.86536 220.64583 235.0 225.0 C 235.0 225.57812 235.0 226.17969 235.0 226.75 C 235.0 226.66 235.0 226.57666 235.0 226.5 Z " />

<path style="fill:rgb(59.607845%,37.2549%,27.843138%);fill-rule:evenodd;stroke:none;" name="Path No.12" d="M 159.0 155.5 C 159.03067 156.0496 159.18602 156.55751 159.5 157.0 C 165.34361 157.0 171.16705 157.0 177.0 157.0 C 177.0 156.33609 177.0 155.66043 177.0 155.0 C 171.14658 155.58759 164.67743 154.24576 159.0 155.5 Z M 166.0 253.5 C 166.84464 255.63112 170.5476 254.71803 172.26843 255.0 C 174.52194 255.0 176.76187 255.0 179.0 255.0 C 179.0 254.33609 179.0 253.66043 179.0 253.0 C 174.65517 253.0 170.33417 253.0 166.0 253.0 C 166.0 253.18 166.0 253.34666 166.0 253.5 Z M 202.0 235.5 C 202.84117 237.65488 206.56004 236.77808 208.26059 237.0 C 210.2254 237.01884 212.50838 236.99135 214.0 235.5 C 210.1644 234.34726 205.9295 235.48608 202.0 235.0 C 202.0 235.18 202.0 235.34666 202.0 235.5 Z " />

<path style="fill:rgb(80.0%,27.450981%,15.6862755%);fill-rule:evenodd;stroke:none;" name="Path No.13" d="M 157.0 278.0 C 154.50456 277.21198 150.91919 282.88702 153.78174 282.36398 C 155.39592 281.53134 156.77464 279.62488 157.0 278.0 Z M 215.0 211.3335 C 215.9316 212.2862 217.52502 211.3206 218.2929 210.76714 C 220.89919 208.56451 226.35042 204.25351 225.5 201.0 C 221.99576 204.40591 218.5899 208.06392 215.0 211.3335 Z M 242.0 221.0 C 240.4273 220.56793 238.03584 222.81133 239.94005 223.67188 C 241.25824 223.72398 242.0208 222.05344 242.0 221.0 Z " />

<path style="fill:rgb(38.82353%,31.372551%,27.450981%);fill-rule:evenodd;stroke:none;" name="Path No.14" d="M 161.0 156.5 C 159.28505 154.62141 157.12271 154.98013 155.0 155.0 C 154.89035 156.87086 156.45123 157.06445 157.88689 157.0 C 158.91571 157.00398 160.1781 156.9948 161.0 156.5 Z M 175.0 156.25 C 176.1082 157.79118 179.54678 156.45882 181.0 157.0 C 181.0 156.33609 181.0 155.66043 181.0 155.0 C 179.16212 155.0166 176.75636 154.61105 175.0 156.25 Z " />

<path style="fill:rgb(70.588234%,34.509804%,22.745098%);fill-rule:evenodd;stroke:none;" name="Path No.15" d="M 120.0 210.5 C 116.94609 207.95901 114.112144 203.93256 111.0 202.0 C 111.2536 205.71666 116.92136 211.2882 120.0 210.5 Z " />

<path style="fill:rgb(83.92157%,22.352942%,12.549021%);fill-rule:evenodd;stroke:none;" name="Path No.16" d="M 98.0 225.0 C 97.59245 222.22578 94.0803 219.4561 92.0 219.0 C 92.377106 221.76064 95.958664 224.56015 98.0 225.0 Z " />

<path style="fill:rgb(32.941177%,27.058825%,24.705883%);fill-rule:evenodd;stroke:none;" name="Path No.17" d="M 241.5 222.0 C 243.20284 220.18892 245.7933 218.28441 246.0 216.0 C 243.17802 215.98941 240.37944 219.96729 241.5 222.0 Z " />

<path style="fill:rgb(76.47059%,30.980392%,18.431374%);fill-rule:evenodd;stroke:none;" name="Path No.18" d="M 200.0 235.375 C 200.60295 236.45174 202.2204 237.32635 203.4204 236.0796 C 203.61757 235.88243 203.81078 235.68922 204.0 235.5 C 202.7871 234.81708 201.31952 235.03923 200.0 235.0 C 200.0 235.10632 200.0 235.24869 200.0 235.375 Z " />

<path style="fill:rgb(0.0%,0.0%,0.0%);fill-rule:evenodd;stroke:none;" name="Path No.19" d="M 39.0 76.25 C 44.09929 89.39699 49.13003 103.0071 57.803085 114.41964 C 82.16041 149.3987 120.4514 179.73952 165.0 181.0 C 165.13344 195.51465 160.79211 215.5 145.10292 216.81377 C 134.2598 218.02922 121.22173 213.34819 114.45284 205.85791 C 109.225044 199.91646 105.23739 192.72128 103.038864 185.13092 C 101.51619 179.42998 101.56456 172.52777 95.79196 168.22433 C 82.849014 155.2899 68.266464 144.12193 55.5 131.0 C 55.195335 131.46634 55.04079 131.95221 55.0 132.5 C 64.86441 144.55353 72.47531 158.99951 74.00215 174.71402 C 77.378555 197.25995 87.426315 222.92471 109.89356 232.88673 C 128.48578 241.80002 163.67665 236.56062 167.0 209.0 C 167.66391 209.0 168.33957 209.0 169.0 209.0 C 171.85977 227.17249 187.05197 235.7898 202.91333 235.91924 C 214.35287 236.73392 226.95432 234.66977 235.79568 227.19975 C 244.92296 219.79424 251.14064 209.46626 255.67465 198.8366 C 261.10608 187.37357 261.36105 174.43819 264.44724 162.376 C 266.83673 151.07344 275.27316 141.47426 280.5 132.0 C 269.13528 141.03342 258.93008 151.65823 248.10614 161.32507 C 244.09566 164.91075 239.58803 168.10352 236.4606 172.57771 C 233.4007 180.99446 233.19545 191.49945 226.29878 200.064 C 218.54501 212.238 203.6007 218.7587 189.34819 216.61624 C 172.98509 212.84593 171.46274 193.02599 171.0 181.0 C 199.64055 180.66556 230.17805 163.66217 249.38907 146.86882 C 270.48483 127.82268 289.2326 103.76746 296.5 76.0 C 283.4081 98.119705 267.42737 118.78048 245.39761 132.77098 C 228.84937 143.81267 210.20757 151.51125 190.23798 153.58942 C 182.32088 155.22018 174.3961 156.774 166.24431 156.0 C 139.20868 155.66504 112.68594 146.455 90.11996 132.3007 C 70.30837 118.507416 49.463566 96.82835 41.0 76.0 C 40.35277 76.0 39.59109 76.0 39.0 76.0 C 39.0 76.09 39.0 76.17333 39.0 76.25 Z M 91.0 385.0 C 90.89938 384.0706 90.57821 383.23105 90.0 382.5 C 90.88039 382.06223 91.71188 381.5807 92.5 381.0 C 92.76847 381.58905 92.95909 382.2452 93.0 383.0 C 93.49934 383.0 94.00663 383.0 94.5 383.0 C 98.033226 379.41852 102.635956 377.39236 104.61476 372.90628 C 107.12853 368.8193 107.6524 363.23834 110.0 359.5 C 109.48824 358.98825 109.00714 358.50714 108.5 358.0 C 104.33093 359.32968 101.93742 365.46405 97.9825 368.342 C 91.49549 373.57828 81.999756 381.44836 74.31477 378.9109 C 68.123665 376.64648 67.414154 368.87543 69.99021 363.39755 C 71.8003 358.90146 75.881035 355.18668 80.74204 354.4914 C 84.55438 354.34344 84.789444 360.6975 88.07937 361.63452 C 94.47501 364.97113 97.56804 357.53833 96.34012 352.63904 C 95.788155 349.9586 94.64473 346.63657 92.74417 344.8856 C 91.09146 342.81125 88.45921 343.97562 86.0 343.5 C 86.599464 343.24377 87.24479 343.05246 88.0 343.0 C 88.0 342.3361 88.0 341.66043 88.0 341.0 C 72.6309 340.20413 63.83669 353.56693 62.30949 366.87534 C 62.135307 373.33487 64.38796 380.25 69.427864 384.51788 C 75.33075 390.12064 82.08697 389.0218 88.38388 385.82584 C 89.20198 385.41656 90.09567 385.12292 91.0 385.0 Z M 81.0 343.4375 C 81.34256 343.8478 81.631226 343.73697 82.0 343.5 C 81.6804 343.29657 81.355736 343.06958 81.0 343.4375 Z M 86.0 384.4375 C 86.34256 384.8478 86.631226 384.73697 87.0 384.5 C 86.6804 384.29657 86.355736 384.06958 86.0 384.4375 Z M 88.0 383.3125 C 88.334 384.0217 89.45081 383.65903 90.0 383.5 C 89.32876 383.29822 88.69053 383.09445 88.0 383.0 C 88.0 383.10416 88.0 383.20834 88.0 383.3125 Z M 89.0 344.4375 C 89.34256 344.8478 89.631226 344.73697 90.0 344.5 C 89.6804 344.29657 89.355736 344.06958 89.0 344.4375 Z M 94.0 380.4375 C 94.34256 380.8478 94.631226 380.73697 95.0 380.5 C 94.6804 380.29657 94.355736 380.06958 94.0 380.4375 Z M 121.0 372.5 C 122.31572 371.97974 123.68177 372.0523 125.0 372.5 C 124.30138 372.81628 123.64789 373.1054 123.0 373.5 C 126.54754 374.4857 130.37975 372.5351 134.0 373.0 C 134.13734 375.69922 135.53566 378.61417 136.0 381.0 C 133.6589 380.53885 131.3668 379.04733 128.5 379.0 C 127.9901 379.16998 127.50495 379.3317 127.0 379.5 C 131.01378 381.91177 134.61551 385.76794 139.55621 388.32126 C 145.96443 388.91223 145.31439 380.72275 142.5 378.0 C 142.01416 378.59888 141.76448 379.28467 141.5 380.0 C 141.23338 371.00452 136.17538 363.08997 133.8272 354.45535 C 132.66539 350.26886 137.5671 346.43652 133.74152 342.0432 C 130.09993 336.5658 125.14105 341.983 122.0 343.0 C 122.70707 346.65225 121.28903 349.3614 120.0 352.53125 C 120.77016 352.66656 121.28652 352.3027 122.0 352.26562 C 121.57623 354.32025 120.306854 356.0896 119.5 358.0 C 119.22312 357.29553 118.928734 356.6181 118.5 356.0 C 112.89159 362.61423 110.54147 373.99594 104.0 379.0 C 104.417366 381.2726 105.63762 384.3166 106.945724 385.73862 C 108.502556 387.2194 112.773125 386.64352 113.412674 385.0846 C 114.153885 381.5386 116.63174 378.76587 118.27566 375.76022 C 119.72966 374.619 121.70198 374.5097 121.0 372.5 Z M 105.0 367.4375 C 105.34256 367.8478 105.631226 367.73697 106.0 367.5 C 105.6804 367.29657 105.355736 367.06958 105.0 367.4375 Z M 109.0 357.45312 C 109.443184 357.88144 110.0454 357.38422 110.42029 357.0797 C 110.61748 356.8825 110.810715 356.68927 111.0 356.5 C 110.27635 356.0955 109.29346 356.90637 109.0 357.45312 Z M 120.0 50.25 C 126.45232 67.50297 133.82797 86.25922 149.0802 97.98283 C 156.7509 103.77096 167.1297 106.55184 176.38405 103.315 C 185.70993 100.43337 193.14209 93.54894 198.68037 85.73405 C 206.2162 75.07787 212.3197 62.54285 215.5 50.0 C 205.82562 65.02504 193.16765 88.37499 168.32822 88.991165 C 146.79796 89.16933 127.98738 66.71585 122.0 50.0 C 121.35277 50.0 120.59109 50.0 120.0 50.0 C 120.0 50.09 120.0 50.173332 120.0 50.25 Z M 124.0 364.375 C 126.015 365.5747 129.99394 363.79788 132.0 363.5 C 130.40933 361.56555 130.1819 358.8722 128.5 357.0 C 127.08222 359.2333 126.38738 362.20352 124.0 364.375 Z M 156.0 257.5 C 176.10649 249.13959 198.53769 258.46167 215.0 269.5 C 205.79485 252.15927 184.29324 243.52394 165.42259 244.21107 C 152.48409 245.1518 118.99773 251.85808 127.853516 275.44412 C 131.49782 284.98886 143.91875 288.4956 152.1179 282.72446 C 160.52847 277.37973 162.24414 265.01285 156.0 257.5 Z M 137.0 412.0 C 137.0 412.6639 137.0 413.33957 137.0 414.0 C 137.71169 413.9711 138.35855 413.8042 139.0 413.5 C 140.0869 411.7648 140.28693 409.38586 141.51741 407.361 C 143.73268 406.45706 144.69368 403.5095 145.5 402.0 C 148.66145 404.95264 146.96385 408.1272 145.0 411.0 C 145.28995 411.54456 145.61005 412.02808 146.0 412.5 C 146.58905 412.76846 147.2452 412.9591 148.0 413.0 C 149.77414 411.49756 150.51367 408.9241 152.5 407.0 C 154.39423 409.44 156.17319 411.9368 158.5 414.0 C 159.24301 413.39374 160.0529 413.07474 161.0 413.0 C 160.78722 411.04852 160.26976 409.191 160.0 407.25 C 158.3035 407.37003 157.18047 406.8766 156.0 405.5 C 160.86993 403.78513 162.63257 396.959 156.7237 395.57373 C 153.86752 395.106 151.01749 396.1758 148.38036 397.09216 C 147.83293 397.42352 146.91292 397.0299 146.0 397.25 C 145.01866 400.74088 142.12224 402.33392 138.8427 402.13107 C 135.58124 401.78113 132.44888 402.66495 133.0 407.0 C 134.3457 406.9909 135.72012 407.0619 137.0 407.5 C 135.39755 408.1687 132.96935 409.012 131.87442 407.66733 C 130.60303 405.19714 133.06905 401.6408 134.9426 401.0876 C 137.07423 399.9599 139.65341 401.55054 142.0 399.5 C 140.80522 395.09448 137.21967 394.41043 133.88307 395.9505 C 129.82195 397.29343 128.87009 402.01624 127.45398 405.35367 C 127.56631 407.42786 128.23152 409.7182 129.68134 411.61166 C 132.30336 412.1938 134.61197 412.75803 137.0 412.0 Z M 128.0 371.3125 C 128.334 372.0217 129.4508 371.65903 130.0 371.5 C 129.32877 371.29822 128.69052 371.09445 128.0 371.0 C 128.0 371.10416 128.0 371.20834 128.0 371.3125 Z M 141.0 358.45703 C 143.46684 359.2324 146.81776 357.7933 148.5 357.0 C 149.40295 358.87192 150.98451 359.6342 153.0 360.0 C 152.61539 363.85986 150.51749 368.08173 152.0 372.6875 C 151.36568 372.71292 150.8974 372.4168 150.5 372.0 C 148.65167 374.40063 146.17967 377.39548 146.55687 380.04987 C 147.35493 382.81293 149.38516 387.73264 152.24867 387.48117 C 156.99844 387.69778 163.428 386.94376 169.06097 386.65106 C 169.36476 386.60217 169.72125 386.54483 170.0 386.5 C 168.32451 386.1649 166.66833 385.83368 165.0 385.5 C 169.596 384.40298 176.05199 387.6672 179.73001 381.967 C 182.94292 377.0802 181.47641 371.6762 177.45824 368.32083 C 174.92706 366.02792 170.16934 364.23874 172.5 361.0 C 172.89665 361.83493 173.17377 362.61636 174.0 363.0 C 180.27675 358.84857 186.6228 347.78162 176.44109 342.07233 C 173.36525 340.7378 169.8331 340.97168 166.65755 341.733 C 164.1622 342.5383 160.44951 343.3411 161.0 345.5 C 160.17236 345.8945 159.3213 346.30734 158.5 347.0 C 156.31505 345.72144 152.91982 346.90622 150.0 347.0 C 148.85529 351.86804 144.04453 354.971 141.0 358.45703 Z M 152.5 370.0 C 152.79456 369.3572 152.98451 368.70184 153.0 368.0 C 152.11603 368.05753 151.93536 368.77295 152.16667 369.48132 C 152.27779 369.65424 152.38889 369.82712 152.5 370.0 Z M 152.0 401.375 C 152.43282 401.99286 152.9588 402.4738 153.5 403.0 C 154.65518 402.14417 156.0272 401.58862 157.0 400.5 C 155.25763 399.3968 153.6142 400.28513 152.0 401.0 C 152.0 401.10632 152.0 401.2487 152.0 401.375 Z M 156.0 347.4375 C 156.34256 347.8478 156.63123 347.73697 157.0 347.5 C 156.68039 347.29657 156.35574 347.06958 156.0 347.4375 Z M 156.0 379.0 C 159.39696 379.27106 162.7824 379.58783 166.17586 379.81616 C 169.50867 379.88455 174.0483 380.459 176.0 378.0 C 175.2026 373.61652 169.1022 371.96487 165.61017 372.55078 C 163.89699 373.50934 161.94604 373.89618 160.0 374.0 C 159.62944 372.24973 158.57079 371.3707 157.0 371.0 C 157.14569 373.75528 156.36575 376.33783 156.0 379.0 Z M 164.0 361.0 C 167.77252 358.24725 173.80429 353.9081 175.0 350.0 C 169.59053 349.13113 156.24593 353.3456 164.0 361.0 Z M 167.0 395.0 C 166.50603 397.47345 163.34863 398.5672 162.34387 401.27954 C 160.98924 404.13235 160.48631 408.66083 163.67021 411.4773 C 167.03299 413.76538 171.56827 414.74603 174.65579 410.28024 C 176.92091 405.59515 176.04512 399.50644 171.53912 396.47006 C 170.27805 395.40652 168.66847 395.0773 167.0 395.0 Z M 162.0 361.4375 C 162.34256 361.8478 162.63123 361.73697 163.0 361.5 C 162.68039 361.29657 162.35574 361.06958 162.0 361.4375 Z M 172.0 400.0 C 168.36629 400.39978 164.72186 404.38345 166.65488 408.6567 C 171.3833 411.44476 173.35347 405.09506 172.41411 401.73514 C 172.29718 401.1635 172.127 400.50925 172.0 400.0 Z M 191.5 401.0 C 192.94832 402.30545 194.46036 403.84085 196.5 403.0 C 197.38174 406.589 193.73282 410.9491 197.5 414.0 C 199.21481 411.27924 198.93565 407.79648 203.05139 406.7337 C 207.58182 405.48706 212.87245 401.05365 207.39174 396.42325 C 203.55501 395.03897 198.40314 396.05286 194.01869 397.88123 C 193.487 398.20428 192.98035 398.61655 192.5 399.0 C 191.62358 397.8975 191.35458 396.21265 191.0 395.0 C 190.28831 395.0289 189.64145 395.1958 189.0 395.5 C 186.71448 398.90543 190.0085 408.7834 183.0 410.0 C 179.41347 407.29712 182.32684 403.7324 183.74886 401.1451 C 186.83087 397.63202 180.1642 395.93356 178.5 395.0 C 177.44136 398.77142 177.21645 403.50153 177.50455 407.17117 C 177.90823 409.4977 178.8854 412.2134 181.27573 412.58652 C 182.97131 413.3123 185.76505 413.08215 187.56044 411.50888 C 191.52097 408.78238 190.65343 404.379 191.5 401.0 Z M 214.5 380.0 C 214.62775 381.03668 213.54568 381.82193 213.0 382.5 C 213.42357 382.79193 213.9044 382.96384 214.5 383.0 C 217.226 380.42926 221.15446 378.21674 223.36003 375.5327 C 225.13768 373.32333 225.87448 367.42444 224.0 364.5 C 225.76588 362.8658 225.77733 361.73538 224.5 360.0 C 218.40799 366.82388 212.68318 374.60364 203.77606 378.02878 C 197.9447 381.2497 188.31444 379.0141 189.06985 369.5314 C 189.13637 363.90613 192.46227 358.51068 197.25409 355.64667 C 198.93373 354.65042 201.89902 353.95065 203.1299 355.33383 C 205.11679 357.58484 206.27797 361.5704 210.16446 362.18124 C 216.78854 363.8979 217.87498 355.3928 216.64575 352.0349 C 215.9675 349.41888 215.04944 346.58536 212.82253 344.85458 C 211.30223 343.2892 208.96362 343.86282 207.0 343.5 C 207.70967 343.24878 208.42665 342.9858 209.0 342.5 C 204.82027 338.8306 197.02994 343.5746 193.63712 345.7929 C 183.34962 352.4546 180.14159 369.73776 185.61029 379.15408 C 188.13544 384.44104 194.23767 388.9145 199.61998 388.4934 C 207.27211 388.2943 209.767 384.36377 214.5 380.0 Z M 201.0 343.4375 C 201.34256 343.8478 201.63123 343.73697 202.0 343.5 C 201.68039 343.29657 201.35574 343.06958 201.0 343.4375 Z M 201.0 402.5 C 203.07733 403.4016 205.90984 401.72607 207.0 400.5 C 205.24687 398.61197 203.04137 399.02505 201.0 400.0 C 201.20789 400.8612 201.64912 401.61795 201.0 402.5 Z M 206.0 384.4375 C 206.34256 384.8478 206.63123 384.73697 207.0 384.5 C 206.68039 384.29657 206.35574 384.06958 206.0 384.4375 Z M 209.0 383.4375 C 209.34256 383.8478 209.63123 383.73697 210.0 383.5 C 209.68039 383.29657 209.35574 383.06958 209.0 383.4375 Z M 210.0 344.4375 C 210.34256 344.8478 210.63123 344.73697 211.0 344.5 C 210.68039 344.29657 210.35574 344.06958 210.0 344.4375 Z M 224.0 367.4375 C 224.34256 367.8478 224.63123 367.73697 225.0 367.5 C 224.68039 367.29657 224.35574 367.06958 224.0 367.4375 Z M 230.0 353.5 C 229.00679 354.0198 227.93906 354.5489 227.0 355.5 C 230.20956 357.0322 235.3833 353.8116 236.00911 351.29263 C 237.54137 347.76752 235.76865 345.08047 235.0 342.0 C 233.80203 342.22943 232.65256 342.61435 231.5 343.0 C 230.9901 342.83002 230.50494 342.6683 230.0 342.5 C 230.65001 342.282 231.32379 342.08572 232.0 342.0 C 232.0 341.3361 232.0 340.66043 232.0 340.0 C 226.41714 340.33945 224.66649 344.34457 225.46498 348.77 C 225.91559 351.0064 228.89577 352.20047 230.0 353.5 Z M 225.5 360.0 C 225.69623 359.0041 226.87129 357.86002 226.5 357.0 C 225.62054 357.6719 224.38855 358.69818 225.5 360.0 Z M 245.0 389.0 C 245.0 388.3361 245.0 387.66043 245.0 387.0 C 244.31773 386.82944 243.67464 386.66867 243.0 386.5 C 245.24821 386.03287 247.97072 385.8906 250.0 386.5 C 249.33775 386.83112 248.65683 387.17157 248.0 387.5 C 253.46442 388.88495 259.82776 385.29248 264.64993 384.69876 C 269.61624 383.51376 274.55078 379.33133 270.9123 373.3115 C 266.98682 367.49237 259.01736 366.19443 253.66154 362.0593 C 251.55063 360.693 249.05367 358.77896 249.46059 355.6341 C 249.04341 350.40762 258.29803 352.0569 259.8691 354.58685 C 262.0915 357.75333 264.23114 361.16135 268.5 363.0 C 271.52 360.48325 271.9239 357.26566 274.0 354.5 C 272.5619 352.5395 271.72888 350.18912 269.98242 348.42377 C 268.61368 346.55746 266.02716 346.36737 264.0 344.5 C 264.68182 344.39124 265.4102 344.5254 266.0 344.3125 C 263.72623 339.9183 255.84612 340.2855 252.67883 340.51834 C 244.95357 341.57922 239.2077 350.16797 242.16087 357.64053 C 244.99596 364.6907 252.53911 368.17365 258.84357 371.39087 C 260.90442 372.44357 263.17368 373.0899 265.0 374.5 C 259.59525 376.45218 250.61609 376.178 246.0 375.5 C 247.45416 373.50214 249.14546 372.08304 251.0 370.5 C 247.80324 369.43085 243.90172 372.47073 240.40634 373.35995 C 239.33122 374.522 235.94972 374.38486 235.37862 376.0172 C 235.15375 377.51535 234.21832 378.66522 234.49776 380.12155 C 236.03882 384.7211 238.06139 389.78503 245.0 389.0 Z M 253.0 385.3125 C 253.334 386.0217 254.4508 385.65903 255.0 385.5 C 254.32877 385.29822 253.69052 385.09445 253.0 385.0 C 253.0 385.10416 253.0 385.20834 253.0 385.3125 Z M 267.0 347.25 C 267.68643 348.57837 268.42218 349.94098 269.5 351.0 C 269.8925 349.6055 268.02573 347.57208 267.0 347.0 C 267.0 347.09 267.0 347.17334 267.0 347.25 Z " />
</g>
</svg>
