<?xml version="1.0" encoding="utf-8"?>
<!-- Generator: Adobe Illustrator 16.2.0, SVG Export Plug-In . SVG Version: 6.00 Build 0)  -->
<!DOCTYPE svg PUBLIC "-//W3C//DTD SVG 1.1//EN" "http://www.w3.org/Graphics/SVG/1.1/DTD/svg11.dtd" [
	<!ENTITY ns_flows "http://ns.adobe.com/Flows/1.0/">
	<!ENTITY ns_extend "http://ns.adobe.com/Extensibility/1.0/">
	<!ENTITY ns_ai "http://ns.adobe.com/AdobeIllustrator/10.0/">
	<!ENTITY ns_graphs "http://ns.adobe.com/Graphs/1.0/">
]>
<svg version="1.1" id="レイヤー_1" xmlns:x="&ns_extend;" xmlns:i="&ns_ai;" xmlns:graph="&ns_graphs;"
	 xmlns="http://www.w3.org/2000/svg" xmlns:xlink="http://www.w3.org/1999/xlink" xmlns:a="http://ns.adobe.com/AdobeSVGViewerExtensions/3.0/"
	 x="0px" y="0px" width="1000px" height="300px" viewBox="0 0 1000 300" enable-background="new 0 0 1000 300" xml:space="preserve"
	>
<rect y="0.242" fill="#FFFFFF" width="1000" height="300"/>
<g>
	<g>
		<polygon fill="#0033A0" points="561.395,119.906 552.011,125.754 546.513,117.061 555.907,111.148 		"/>
		<polygon fill="#0033A0" points="434.192,119.906 424.801,125.754 419.299,117.061 428.703,111.148 		"/>
		<path fill="#0033A0" d="M382.01,166.461c0-7.345,0.231-13.083,0.408-17.28l0.186-5.82c0-8.347-4.363-11.752-15.057-11.752
			c-15.812,0-22.878,5.432-22.878,10.807c0,2.799,1.958,4.747,4.747,4.747c3.753,0,5.028-3.025,6.053-5.467
			c0.39-0.94,0.77-1.84,1.239-2.498c1.373-1.947,3.898-3.047,6.925-3.047c6.711,0,9.58,3.114,9.58,10.414
			c0,6.742-1.799,7.763-10.315,11.504c-12.259,5.349-19.779,9.048-19.779,17.158c0,6.944,7.022,12.813,15.3,12.813
			c6.4,0,11.562-3.324,14.782-9.222c0.178,3.211,0.65,6.029,1.452,8.261l0.11,0.271l12.099-0.812l-1.001-0.612
			C383.313,184.369,382.01,177.817,382.01,166.461z M372.859,158.366c0,0.96,0,7.739,0,7.739c0,9.688-3.302,14.198-10.413,14.198
			c-5.303,0-8.863-2.945-8.863-7.333C353.583,166.139,360.836,163.158,372.859,158.366z"/>
		<path fill="#0033A0" d="M301.016,108.519c-3.706,0-7.587,0.313-11.674,0.651c-4.643,0.373-9.453,0.767-14.636,0.767h-9.514
			l0.611,0.631c2.859,2.974,2.859,15.448,2.859,36.115v4.851c0,20.102-0.133,31.617-2.859,34.458l-0.611,0.628h8.923l8.5,0.259
			l11.887,0.331c25.805,0,41.826-16.254,41.826-42.427C336.327,122.071,323.139,108.519,301.016,108.519z M323.51,148.571
			c0,20.918-10.924,32.918-29.964,32.918c-10.067,0-12.83-0.96-13.374-4.654c-0.367-2.617-0.571-9.902-0.571-19.97v-17.289
			c0-12.97,0.265-20.413,0.886-24.094c3.594-0.758,7.223-1.13,11.405-1.13C311.984,114.353,323.51,126.831,323.51,148.571z"/>
		<polygon fill="#0033A0" points="407.968,119.906 398.586,125.754 393.096,117.061 402.479,111.148 		"/>
		<path fill="#0033A0" d="M405.949,171.437v-6.751c0-16.504,0.089-28.379,0.586-32.655l0.069-0.525l-0.512,0.117
			c-3.31,0.746-6.986,1.159-11.554,1.292l-1.187,0.036l1,0.654c2.208,1.436,2.32,8.034,2.32,19.583v18.012
			c0,7.87-0.17,13.148-2.336,14.746l-0.904,0.674h15.698l-0.843-0.666C406.119,184.234,405.949,178.86,405.949,171.437z"/>
		<path fill="#0033A0" d="M432.158,171.437v-6.751c0-16.504,0.088-28.379,0.592-32.655l0.061-0.525l-0.512,0.117
			c-3.313,0.746-6.961,1.159-11.554,1.292l-1.178,0.036l1.001,0.654c2.211,1.436,2.312,8.034,2.312,19.583v18.012
			c0,7.87-0.161,13.148-2.329,14.746l-0.912,0.674h15.694l-0.823-0.666C432.323,184.234,432.158,178.86,432.158,171.437z"/>
		<path fill="#0033A0" d="M470.755,180.777c-10.102,0-17.156-8.474-17.156-20.596c0-14.157,6.985-23.673,17.405-23.673
			c5.437,0,9.286,3.181,11.356,9.461l0.735-0.11l0.364-12.724l-0.275-0.084c-3.487-0.982-7.171-1.443-11.595-1.443
			c-16.824,0-28.572,12.044-28.572,29.28c0,15.736,10.42,27.151,24.783,27.151c10.799,0,17.785-5.218,17.785-13.29v-1.349
			l-0.674,0.892C481.825,178.419,476.671,180.777,470.755,180.777z"/>
		<path fill="#0033A0" d="M535.651,173.807v-13.152c0-9.596-0.079-16.663-1.197-20.124c-1.833-5.749-6.284-8.921-12.544-8.921
			c-7.002,0-11.829,2.514-16.909,8.791c0.053-2.033,0.936-37.644,0.936-37.644l-0.459,0.076l-12.543,2.156l0.646,0.524
			c2.187,1.724,2.353,7.283,2.353,15.573v9.598l0.14,21.475l0.09,13.127c0,12.129-0.396,19.411-2.531,20.64l-1.187,0.696h16.006
			l-0.9-0.674c-2.18-1.598-2.328-6.876-2.328-14.746v-11.372c0-12.992,0-20.833,11.473-20.833c7.143,0,9.685,3.166,9.685,12.072
			c0,17.72-0.169,27.913-0.584,35.161l-0.028,0.392h12.97l-0.718-0.65C535.817,183.984,535.651,180.049,535.651,173.807z"/>
		<path fill="#0033A0" d="M559.369,171.437v-6.751c0-16.504,0.105-28.366,0.593-32.655l0.053-0.525l-0.505,0.117
			c-3.293,0.746-6.968,1.159-11.538,1.292l-1.185,0.036l0.992,0.654c2.211,1.436,2.319,8.034,2.319,19.583v18.012
			c0,7.87-0.168,13.148-2.337,14.746l-0.923,0.674h15.727l-0.851-0.666C559.534,184.234,559.369,178.86,559.369,171.437z"/>
		<path fill="#0033A0" d="M577.243,154.692l-5.577,7.225l0.363,0.228c0.682,0.403,1.44,0.403,2.211,0.403h25.186l5.636-7.855h-0.736
			H577.243z"/>
		<path fill="#0033A0" d="M640.881,142.553l-0.771-0.393c-8.649-4.563-15.505-8.145-15.505-16.095
			c0-7.153,6.006-11.596,15.639-11.596c7.09,0,12.374,2.602,15.308,7.52l0.696,1.17v-14.053h-3.337l-1.354-0.068l-0.885-0.053
			l-3.401-0.145l-9.17-0.321c-14.732,0-25,8.279-25,20.153c0,11.542,8.427,16.158,20.121,22.539l1.619,0.893
			c8.863,4.803,12.493,9.382,12.493,15.774c0,8.294-6.242,14.088-15.156,14.088c-9.13,0-16.39-4.115-20.99-11.904l-0.69-1.17v14.528
			l0.23,0.092c8.225,3.089,14.933,4.528,21.104,4.528c15.415,0,27.506-10.254,27.506-23.354
			C659.336,155.912,653.989,149.487,640.881,142.553z"/>
		<path fill="#0033A0" d="M704.225,166.461c0-7.345,0.247-13.083,0.416-17.28l0.178-5.82c0-8.347-4.347-11.752-15.053-11.752
			c-15.8,0-22.883,5.432-22.883,10.807c0,2.799,1.953,4.747,4.754,4.747c3.745,0,5.017-3.025,6.054-5.467
			c0.398-0.94,0.771-1.84,1.239-2.498c1.372-1.947,3.898-3.047,6.925-3.047c6.711,0,9.576,3.114,9.576,10.414
			c0,6.742-1.803,7.763-10.331,11.504c-12.243,5.349-19.758,9.048-19.758,17.158c0,6.944,7.002,12.813,15.306,12.813
			c6.394,0,11.555-3.324,14.769-9.222c0.191,3.211,0.644,6.029,1.46,8.261l0.089,0.271l12.119-0.812l-1.009-0.612
			C705.525,184.369,704.225,177.817,704.225,166.461z M695.088,158.366c0,0.96,0,7.739,0,7.739c0,9.688-3.313,14.198-10.42,14.198
			c-5.301,0-8.862-2.945-8.862-7.333C675.806,166.139,683.058,163.158,695.088,158.366z"/>
		<path fill="#0033A0" d="M758.608,174.281v-15.397c0-16.91-0.674-27.275-13.757-27.275c-6.783,0-11.712,2.536-16.337,8.186
			c0-0.266,0-0.582,0-0.582c0-2.21-0.21-4.286-0.593-6.004l-0.078-0.327l-12.093,1.333l0.814,0.567
			c2.211,1.557,2.329,8.761,2.329,21.374v15.044c0,7.87-0.17,13.148-2.346,14.746l-0.912,0.674h15.776l-0.912-0.674
			c-2.171-1.598-2.346-6.876-2.346-14.746v-11.372c0-12.992,0-20.833,11.482-20.833c9.286,0,9.692,4.834,9.692,14.909v2.841
			c0,11.723-0.176,20.816-0.584,29.483l-0.018,0.392h12.996l-0.76-0.659C758.714,184.049,758.608,180.28,758.608,174.281z"/>
		<path fill="#0033A0" d="M781.91,171.199c0,0,0-12.746,0-13.244c0.459,0.015,1.291,0.589,2.277,2.189
			c0,0.005,17.538,26.475,17.538,26.475h12.506l0.143-0.718c-2.301-0.924-5.565-5.593-10.518-12.645
			c-3.664-5.245-8.241-11.759-14.226-19.427c1.75-1.443,3.144-2.816,4.249-3.918c0.024-0.021,15.894-16.998,15.894-16.998h-13.527
			l0.386,0.576c0.612,0.925,0.877,1.886,0.877,3.12c0,3.349-4.851,10.103-15.599,17.74c0-1.436,0-51.578,0-51.578l-0.436,0.057
			l-13.039,1.924l0.823,0.536c2.949,1.978,3.498,7.906,3.498,18.879l-0.055,8.682l-0.069,12.754l0.08,13.367l0.044,8.906
			c0,10.715-0.382,16.761-2.437,18.056l-1.089,0.686h15.928l-0.913-0.674C782.081,184.348,781.91,179.069,781.91,171.199z"/>
		<path fill="#0033A0" d="M861.021,132.915h-13.738l0.291,0.552c0.682,1.267,1.018,2.648,1.018,4.206
			c0,4.35-3.515,18.175-11.305,39.294c-0.549-2.022-5.673-20.587-5.673-20.587c-4.613-17.095-6.518-24.173-9.299-24.173h-1.062
			c-0.036,0.004-8.216,0.953-8.216,0.953l-1.479,0.17l1.382,0.549c2.222,0.887,4.205,6.384,7.241,15.294
			c7.634,22.51,10.173,35.949,10.173,37.547c0,4.464-2.938,12.897-9.392,20.844c-3.655,4.573-7.139,5.069-13.698,5.069l-1.966-0.04
			l-3.239-0.072c-3.992,0-6.42,0.174-6.42,2.515c0,2.979,4.046,6.182,10.564,6.182c15.404,0,24.786-16.448,36.721-46.798
			l5.976-15.601c4.569-12.163,7.87-20.963,11.607-25.288L861.021,132.915z"/>
		<path fill="#0033A0" d="M886.979,131.609c-16.153,0-27.025,11.767-27.025,29.28c0,17.253,9.004,27.151,24.666,27.151
			c16.128,0,26.549-12.24,26.549-31.175C911.168,141.052,902.128,131.609,886.979,131.609z M887.229,182.789
			c-10.449,0-16.931-9.395-16.931-24.5c0-14.097,5.086-21.545,14.67-21.545c9.343,0,15.857,9.538,15.857,23.203
			C900.826,175.105,896.249,182.789,887.229,182.789z"/>
	</g>
	<g>
		<g>
			
				<radialGradient id="SVGID_1_" cx="40.9775" cy="569.9043" r="20.6193" gradientTransform="matrix(3.3485 0 0 3.3487 20.63 -1760.0189)" gradientUnits="userSpaceOnUse">
				<stop  offset="0.65" style="stop-color:#00AEEB"/>
				<stop  offset="0.7066" style="stop-color:#00AAE8"/>
				<stop  offset="0.7597" style="stop-color:#019FE0"/>
				<stop  offset="0.8114" style="stop-color:#038CD2"/>
				<stop  offset="0.8623" style="stop-color:#0571BE"/>
				<stop  offset="0.9121" style="stop-color:#084FA5"/>
				<stop  offset="0.95" style="stop-color:#0B308E"/>
				<a:midPointStop  offset="0.65" style="stop-color:#00AEEB"/>
				<a:midPointStop  offset="0.72" style="stop-color:#00AEEB"/>
				<a:midPointStop  offset="0.95" style="stop-color:#0B308E"/>
			</radialGradient>
			<path fill="url(#SVGID_1_)" d="M212.713,106.42c1.647,5.254,2.551,10.835,2.551,16.63c0,30.493-24.72,55.213-55.212,55.213
				c-30.485,0-55.208-24.72-55.208-55.213c0-9.212,2.26-17.898,6.248-25.532c-13.686,12.61-22.261,30.679-22.261,50.76
				c0,38.116,30.893,69.012,69.013,69.012c38.117,0,69.012-30.896,69.012-69.012C226.856,132.538,221.586,118.035,212.713,106.42z"
				/>
			<path fill="#FFFFFF" d="M111.1,97.499c0,0.01,0,0.01-0.008,0.019c0.008-0.009,0.021-0.019,0.021-0.022
				C111.113,97.499,111.107,97.499,111.1,97.499z"/>
			<path fill="#FFFFFF" d="M212.706,106.395c0,0.008-0.008,0.008-0.008,0.008c0.008,0.01,0.008,0.018,0.016,0.018
				C212.706,106.42,212.706,106.406,212.706,106.395z"/>
		</g>
		<g>
			
				<radialGradient id="SVGID_2_" cx="40.9951" cy="570.1846" r="20.6999" gradientTransform="matrix(3.3485 0 0 3.3487 20.63 -1760.0189)" gradientUnits="userSpaceOnUse">
				<stop  offset="0.75" style="stop-color:#FFED00"/>
				<stop  offset="0.7708" style="stop-color:#ECE705"/>
				<stop  offset="0.8129" style="stop-color:#BCD811"/>
				<stop  offset="0.8724" style="stop-color:#6FC025"/>
				<stop  offset="0.9465" style="stop-color:#05A040"/>
				<stop  offset="0.95" style="stop-color:#009E41"/>
				<a:midPointStop  offset="0.75" style="stop-color:#FFED00"/>
				<a:midPointStop  offset="0.55" style="stop-color:#FFED00"/>
				<a:midPointStop  offset="0.95" style="stop-color:#009E41"/>
			</radialGradient>
			<path fill="url(#SVGID_2_)" d="M147.011,96.475c8.386,3.278,24.362,12.132,34.03,13.742c13.995,2.32,22.515,0.489,31.657-3.815
				c-12.611-16.497-32.486-27.135-54.853-27.135c-18.028,0-34.432,6.914-46.732,18.229
				C122.343,92.775,134.043,91.395,147.011,96.475z"/>
		</g>
	</g>
</g>
</svg>
