<?xml version="1.0" encoding="utf-8"?>
<!-- Generator: Adobe Illustrator 25.0.0, SVG Export Plug-In . SVG Version: 6.00 Build 0)  -->
<svg version="1.1" id="レイヤー_1" xmlns="http://www.w3.org/2000/svg" xmlns:xlink="http://www.w3.org/1999/xlink" x="0px"
	 y="0px" viewBox="0 0 215.1 32" style="enable-background:new 0 0 215.1 32;" xml:space="preserve">
<style type="text/css">
	.st0{fill:url(#SVGID_1_);}
	.st1{fill:url(#SVGID_2_);}
	.st2{fill:url(#SVGID_3_);}
	.st3{fill:url(#SVGID_4_);}
	.st4{fill:url(#SVGID_5_);}
	.st5{fill:url(#SVGID_6_);}
	.st6{fill:url(#SVGID_7_);}
	.st7{fill:url(#SVGID_8_);}
	.st8{fill:url(#SVGID_9_);}
	.st9{fill:url(#SVGID_10_);}
	.st10{fill:url(#SVGID_11_);}
	.st11{fill:url(#SVGID_12_);}
	.st12{fill:url(#SVGID_13_);}
</style>
<g>
	
		<linearGradient id="SVGID_1_" gradientUnits="userSpaceOnUse" x1="2.6533" y1="1.145" x2="6.5137" y2="35.4825" gradientTransform="matrix(1 0 -0.2705 1 79.3173 0)">
		<stop  offset="0" style="stop-color:#0075C1"/>
		<stop  offset="0.5" style="stop-color:#0068B6"/>
		<stop  offset="0.5" style="stop-color:#1F5AA0"/>
		<stop  offset="0.5" style="stop-color:#484782"/>
		<stop  offset="0.5" style="stop-color:#6E3667"/>
		<stop  offset="0.5" style="stop-color:#8E2750"/>
		<stop  offset="0.5" style="stop-color:#AA1B3D"/>
		<stop  offset="0.5" style="stop-color:#C0112D"/>
		<stop  offset="0.5" style="stop-color:#D00921"/>
		<stop  offset="0.5" style="stop-color:#DC0418"/>
		<stop  offset="0.5" style="stop-color:#E30113"/>
		<stop  offset="0.5" style="stop-color:#E50012"/>
		<stop  offset="1" style="stop-color:#E50012"/>
	</linearGradient>
	<path class="st0" d="M74.2,14.6c-0.5,0.1-0.7-0.1-0.9-0.4c-0.2-0.3-0.2-0.7-0.1-1.2c0.3-1,1-1.8,2.3-2.6c1.3-0.8,2.9-1.2,4.8-1.2
		c1.5,0,2,0.2,2.8,0.7c0.6,0.4,1,1,1.1,1.7c0.1,0.5,0,1.3-0.4,2.8l-1.4,5.2c-0.4,1.4-0.7,2.7-0.7,3c0,0.3,0,0.5,0.1,0.7
		c0.1,0.1,0.3,0.2,0.4,0.2c0.2,0,0.4,0,0.5-0.1c0.3-0.1,2.8-2,3.7-2.6h0.2l-2.3,2c-1.8,1.7-2.6,2.2-3.8,2.2c-0.6,0-1-0.2-1.3-0.6
		c-0.3-0.4-0.3-0.7-0.1-1.6c-2,1.2-3.3,1.9-3.8,2.1c-0.7,0.3-1.5,0.4-2.2,0.4c-1.2,0-2-0.4-2.6-1.1c-0.6-0.7-0.7-1.7-0.4-2.8
		c0.2-0.7,0.6-1.4,1.1-1.9c0.7-0.8,1.8-1.5,3.2-2.1c1.4-0.7,3.7-1.5,6.8-2.4l0.2-0.6c0.4-1.5,0.4-2.6,0-3.1
		c-0.4-0.6-1.1-0.8-2.1-0.8c-0.8,0-1.4,0.2-2,0.6c-1.1,0.7-1.6,1.6-1.8,2.2C75.5,13.5,75.1,14.5,74.2,14.6z M79.5,21.8l1.7-6.2
		c-2.3,0.7-3.9,1.3-4.6,1.6c-1.3,0.5-2.2,1-2.8,1.6c-0.6,0.6-1,1.2-1.2,1.8c-0.2,0.8-0.1,1.5,0.4,2.1c0.5,0.6,1.1,0.8,1.9,0.8
		C75.8,23.6,77.4,23,79.5,21.8z"/>
	<g>
		
			<linearGradient id="SVGID_2_" gradientUnits="userSpaceOnUse" x1="28.0467" y1="-1.7098" x2="31.9071" y2="32.6276" gradientTransform="matrix(1 0 -0.2705 1 79.3173 0)">
			<stop  offset="0" style="stop-color:#0075C1"/>
			<stop  offset="0.5" style="stop-color:#0068B6"/>
			<stop  offset="0.5" style="stop-color:#1F5AA0"/>
			<stop  offset="0.5" style="stop-color:#484782"/>
			<stop  offset="0.5" style="stop-color:#6E3667"/>
			<stop  offset="0.5" style="stop-color:#8E2750"/>
			<stop  offset="0.5" style="stop-color:#AA1B3D"/>
			<stop  offset="0.5" style="stop-color:#C0112D"/>
			<stop  offset="0.5" style="stop-color:#D00921"/>
			<stop  offset="0.5" style="stop-color:#DC0418"/>
			<stop  offset="0.5" style="stop-color:#E30113"/>
			<stop  offset="0.5" style="stop-color:#E50012"/>
			<stop  offset="1" style="stop-color:#E50012"/>
		</linearGradient>
		<path class="st1" d="M106.7,23.2c-1,0.8-2,1.3-2.8,1.7c-0.9,0.3-1.8,0.5-2.7,0.5c-1.2,0-2.7-0.6-3.6-2.1c-0.9-1.5-1-3.2-0.4-5.4
			s1.7-4.2,3.7-6c2-1.8,4.1-2.7,5.9-2.7c1.5,0,2.6,0.4,3.3,1.3l0.8-2.8c0.5-1.7,1.1-4.4,1.2-4.8c0-0.4-0.1-0.7-0.2-0.8
			c-0.2-0.1-0.4-0.2-0.7-0.2c-0.3,0-2.6,0.8-3.2,1l-0.2-0.3l6.7-2.5h0.5l-5.2,19.2c-0.5,1.8-0.7,2.9-0.7,3.3c0,0.4,0.1,0.7,0.2,0.8
			c0.2,0.2,0.4,0.2,0.6,0.2c0.3,0,0.9-0.1,1.5-0.3l0.1,0.3l-4.7,1.9h-0.6L106.7,23.2z M106.9,22.4l2.2-8.1c0.1-0.8,0.1-1.5-0.1-2.1
			c-0.2-0.6-0.5-1.1-1.1-1.5c-0.5-0.3-1.1-0.5-1.6-0.5c-1.1,0-2.1,0.5-3.2,1.4c-1.4,1.2-2.5,2.9-3.1,5.2c-0.6,2.3-0.6,4.1,0.2,5.3
			c0.7,1.2,1.8,1.8,3.1,1.8C104.4,24,105.6,23.4,106.9,22.4z"/>
	</g>
	
		<linearGradient id="SVGID_3_" gradientUnits="userSpaceOnUse" x1="-50.3685" y1="7.1061" x2="-46.5081" y2="41.4435" gradientTransform="matrix(1 0 -0.2705 1 79.3173 0)">
		<stop  offset="0" style="stop-color:#0075C1"/>
		<stop  offset="0.5" style="stop-color:#0068B6"/>
		<stop  offset="0.5" style="stop-color:#1F5AA0"/>
		<stop  offset="0.5" style="stop-color:#484782"/>
		<stop  offset="0.5" style="stop-color:#6E3667"/>
		<stop  offset="0.5" style="stop-color:#8E2750"/>
		<stop  offset="0.5" style="stop-color:#AA1B3D"/>
		<stop  offset="0.5" style="stop-color:#C0112D"/>
		<stop  offset="0.5" style="stop-color:#D00921"/>
		<stop  offset="0.5" style="stop-color:#DC0418"/>
		<stop  offset="0.5" style="stop-color:#E30113"/>
		<stop  offset="0.5" style="stop-color:#E50012"/>
		<stop  offset="1" style="stop-color:#E50012"/>
	</linearGradient>
	<path class="st2" d="M27.6,9.2c2.4,0,4.1,0.9,5,2.6c0.8,1.5,1,3.2,0.4,5.1c-0.4,1.4-1.1,2.7-2.1,4.1c-1.1,1.4-2.3,2.4-3.6,3.2
		c-1.4,0.7-2.8,1.1-4.2,1.1c-2.4,0-4-0.9-4.9-2.7c-0.8-1.5-0.9-3.3-0.4-5.2c0.4-1.4,1.1-2.8,2.2-4.2c1.1-1.4,2.3-2.4,3.6-3.1
		C25,9.5,26.3,9.2,27.6,9.2z M26.8,9.9c-0.7,0-1.5,0.2-2.3,0.5c-0.8,0.4-1.6,1-2.3,1.9c-0.7,0.9-1.2,2.1-1.6,3.5
		c-0.6,2.3-0.6,4.3,0,6c0.6,1.7,1.8,2.5,3.5,2.5c1.3,0,2.5-0.5,3.6-1.4c1.1-0.9,1.9-2.5,2.6-4.8c0.8-2.8,0.7-5.1-0.3-6.7
		C29.3,10.5,28.3,9.9,26.8,9.9z"/>
	
		<linearGradient id="SVGID_4_" gradientUnits="userSpaceOnUse" x1="-36.152" y1="5.5078" x2="-32.2916" y2="39.8452" gradientTransform="matrix(1 0 -0.2705 1 79.3173 0)">
		<stop  offset="0" style="stop-color:#0075C1"/>
		<stop  offset="0.5" style="stop-color:#0068B6"/>
		<stop  offset="0.5" style="stop-color:#1F5AA0"/>
		<stop  offset="0.5" style="stop-color:#484782"/>
		<stop  offset="0.5" style="stop-color:#6E3667"/>
		<stop  offset="0.5" style="stop-color:#8E2750"/>
		<stop  offset="0.5" style="stop-color:#AA1B3D"/>
		<stop  offset="0.5" style="stop-color:#C0112D"/>
		<stop  offset="0.5" style="stop-color:#D00921"/>
		<stop  offset="0.5" style="stop-color:#DC0418"/>
		<stop  offset="0.5" style="stop-color:#E30113"/>
		<stop  offset="0.5" style="stop-color:#E50012"/>
		<stop  offset="1" style="stop-color:#E50012"/>
	</linearGradient>
	<path class="st3" d="M40.9,9.2L40,12.7c2.1-2.3,3.8-3.5,5.3-3.5c0.7,0,1.2,0.2,1.5,0.6c0.3,0.4,0.5,0.8,0.3,1.3
		c-0.1,0.3-0.2,0.4-0.4,0.6c-0.4,0.4-0.8,0.5-1.2,0.3c-0.4-0.1-0.7-0.5-1.1-0.9C44,10.7,43.2,10.9,43,11c-0.2,0.1-0.6,0.2-0.9,0.5
		c-0.7,0.5-1.5,1.2-2.4,2.3l-2.1,7.8c-0.2,0.9-0.3,1.5-0.2,1.9c0.1,0.3,0.3,0.6,0.7,0.8c0.4,0.2,0.6,0.3,1.4,0.3l-0.1,0.3h-7.1
		l0.1-0.3c0.9,0,1.2-0.1,1.7-0.4c0.4-0.2,0.7-0.5,0.9-0.9c0.1-0.2,0.3-0.7,0.5-1.6l1.6-6c0.5-1.8,0.8-3.2,0.8-3.5
		c0-0.3-0.1-0.6-0.2-0.8c-0.2-0.2-0.4-0.2-0.7-0.2c-0.4,0-0.9,0.1-1.4,0.3l-0.1-0.3l4.7-1.9H40.9z"/>
	
		<linearGradient id="SVGID_5_" gradientUnits="userSpaceOnUse" x1="15.0315" y1="-0.2466" x2="18.8919" y2="34.0909" gradientTransform="matrix(1 0 -0.2705 1 79.3173 0)">
		<stop  offset="0" style="stop-color:#0075C1"/>
		<stop  offset="0.5" style="stop-color:#0068B6"/>
		<stop  offset="0.5" style="stop-color:#1F5AA0"/>
		<stop  offset="0.5" style="stop-color:#484782"/>
		<stop  offset="0.5" style="stop-color:#6E3667"/>
		<stop  offset="0.5" style="stop-color:#8E2750"/>
		<stop  offset="0.5" style="stop-color:#AA1B3D"/>
		<stop  offset="0.5" style="stop-color:#C0112D"/>
		<stop  offset="0.5" style="stop-color:#D00921"/>
		<stop  offset="0.5" style="stop-color:#DC0418"/>
		<stop  offset="0.5" style="stop-color:#E30113"/>
		<stop  offset="0.5" style="stop-color:#E50012"/>
		<stop  offset="1" style="stop-color:#E50012"/>
	</linearGradient>
	<path class="st4" d="M92.8,9.2l-0.9,3.5c2.1-2.3,3.8-3.5,5.3-3.5c0.7,0,1.2,0.2,1.5,0.6c0.3,0.4,0.5,0.8,0.3,1.3
		c-0.1,0.3-0.2,0.4-0.4,0.6c-0.4,0.4-0.8,0.5-1.2,0.3c-0.4-0.1-0.7-0.5-1.1-0.9c-0.5-0.4-1.2-0.2-1.5-0.1c-0.2,0.1-0.6,0.2-0.9,0.5
		c-0.7,0.5-1.5,1.2-2.4,2.3l-2.1,7.8c-0.2,0.9-0.3,1.5-0.2,1.9c0.1,0.3,0.3,0.6,0.7,0.8c0.4,0.2,0.6,0.3,1.4,0.3l-0.1,0.3H84
		l0.1-0.3c0.9,0,1.2-0.1,1.7-0.4c0.4-0.2,0.7-0.5,0.9-0.9c0.1-0.2,0.3-0.7,0.5-1.6l1.6-6c0.5-1.8,0.8-3.2,0.8-3.5
		c0-0.3-0.1-0.6-0.2-0.8c-0.2-0.2-0.4-0.2-0.7-0.2c-0.4,0-0.9,0.1-1.4,0.3l-0.1-0.3L92,9.2H92.8z"/>
	
		<linearGradient id="SVGID_6_" gradientUnits="userSpaceOnUse" x1="95.7906" y1="-9.326" x2="99.6511" y2="25.0114" gradientTransform="matrix(1 0 -0.2705 1 79.3173 0)">
		<stop  offset="0" style="stop-color:#0075C1"/>
		<stop  offset="0.5" style="stop-color:#0068B6"/>
		<stop  offset="0.5" style="stop-color:#1F5AA0"/>
		<stop  offset="0.5" style="stop-color:#484782"/>
		<stop  offset="0.5" style="stop-color:#6E3667"/>
		<stop  offset="0.5" style="stop-color:#8E2750"/>
		<stop  offset="0.5" style="stop-color:#AA1B3D"/>
		<stop  offset="0.5" style="stop-color:#C0112D"/>
		<stop  offset="0.5" style="stop-color:#D00921"/>
		<stop  offset="0.5" style="stop-color:#DC0418"/>
		<stop  offset="0.5" style="stop-color:#E30113"/>
		<stop  offset="0.5" style="stop-color:#E50012"/>
		<stop  offset="1" style="stop-color:#E50012"/>
	</linearGradient>
	<path class="st5" d="M170.6,24.8c-0.4-0.3-0.7-0.7-0.8-1.2c-0.1-0.5,0-1.3,0.3-2.3l3-11h-3.4l0.1-0.2c0,0,5.1-0.1,6.9-5.4h0.3
		l-1.3,4.8h4.1l-0.2,0.8h-4.1l-2.9,10.7c-0.3,0.9-0.3,1.6-0.1,1.9c0.2,0.3,0.5,0.5,1,0.5c0.4,0,0.8-0.1,1.2-0.3
		c0.4-0.2,0.8-0.5,1.1-1h0.4c-0.7,1-1.2,1.8-2.1,2.4C172,25.7,170.6,24.8,170.6,24.8z"/>
	
		<linearGradient id="SVGID_7_" gradientUnits="userSpaceOnUse" x1="107.2277" y1="-10.6119" x2="111.0881" y2="23.7256" gradientTransform="matrix(1 0 -0.2705 1 79.3173 0)">
		<stop  offset="0" style="stop-color:#0075C1"/>
		<stop  offset="0.5" style="stop-color:#0068B6"/>
		<stop  offset="0.5" style="stop-color:#1F5AA0"/>
		<stop  offset="0.5" style="stop-color:#484782"/>
		<stop  offset="0.5" style="stop-color:#6E3667"/>
		<stop  offset="0.5" style="stop-color:#8E2750"/>
		<stop  offset="0.5" style="stop-color:#AA1B3D"/>
		<stop  offset="0.5" style="stop-color:#C0112D"/>
		<stop  offset="0.5" style="stop-color:#D00921"/>
		<stop  offset="0.5" style="stop-color:#DC0418"/>
		<stop  offset="0.5" style="stop-color:#E30113"/>
		<stop  offset="0.5" style="stop-color:#E50012"/>
		<stop  offset="1" style="stop-color:#E50012"/>
	</linearGradient>
	<path class="st6" d="M180.7,15.4c-0.8,2.3-1.1,4.6-0.2,5.9c0.5,0.8,1.3,1.4,2.3,1.6c0.7,0.2,1.5,0.1,2.2,0.1c1.1,0,2.3-0.5,3.3-1
		c1-0.5,2-1.4,2.9-2.8l0.2,0.1c-0.7,1.5-1.8,2.9-3.3,4.1c-1.6,1.2-3.3,1.9-5.1,1.9c-2,0-3.5-0.7-4.6-2.1c-1-1.4-1.2-3.3-0.6-5.7
		c0.7-2.6,2-4.6,3.8-6.1c1.9-1.5,3.9-2.2,6.1-2.2c1.9,0,3.3,0.6,4.2,1.7c0.9,1.1,1.1,2.6,0.6,4.5H180.7z M180.9,14.7h9.2
		c0.3-1.2,0.1-2,0-2.4c-0.2-0.7-0.6-1.3-1.2-1.7c-0.6-0.4-1.3-0.6-2-0.6c-1.2,0-2.1,0.4-3.2,1.1C182.6,11.9,181.7,13,180.9,14.7z"/>
	<g>
		
			<linearGradient id="SVGID_8_" gradientUnits="userSpaceOnUse" x1="-65.275" y1="8.7819" x2="-61.4145" y2="43.1194" gradientTransform="matrix(1 0 -0.2705 1 79.3173 0)">
			<stop  offset="0" style="stop-color:#0075C1"/>
			<stop  offset="0.5" style="stop-color:#0068B6"/>
			<stop  offset="0.5" style="stop-color:#1F5AA0"/>
			<stop  offset="0.5" style="stop-color:#484782"/>
			<stop  offset="0.5" style="stop-color:#6E3667"/>
			<stop  offset="0.5" style="stop-color:#8E2750"/>
			<stop  offset="0.5" style="stop-color:#AA1B3D"/>
			<stop  offset="0.5" style="stop-color:#C0112D"/>
			<stop  offset="0.5" style="stop-color:#D00921"/>
			<stop  offset="0.5" style="stop-color:#DC0418"/>
			<stop  offset="0.5" style="stop-color:#E30113"/>
			<stop  offset="0.5" style="stop-color:#E50012"/>
			<stop  offset="1" style="stop-color:#E50012"/>
		</linearGradient>
		<path class="st7" d="M5.8,0.7L6,0.2h16.2L21,5.2h-0.2c0-1.1-0.1-1.8-0.4-2.3c-0.2-0.5-0.6-0.8-1.1-1.1c-0.5-0.2-1.3-0.3-2.5-0.3
			h-5.3l-2.4,8.9h4.5c0.9,0,1.7-0.2,2.2-0.6c0.5-0.4,1.1-1.2,1.5-2.5h0.3l-2.1,7.6h-0.3c0.2-0.9,0.3-1.5,0.2-1.9
			c-0.1-0.4-0.3-0.7-0.6-0.9c-0.3-0.2-0.9-0.3-1.6-0.3H8.7l-2.6,9.5c-0.3,1.1-0.4,1.9-0.4,2.3c0,0.3,0.2,0.5,0.5,0.7
			c0.4,0.3,0.9,0.4,1.4,0.4h0.8l-0.1,0.3H0l0.1-0.3h0.8c0.9,0,1.7-0.3,2.2-0.8c0.4-0.4,0.7-1.2,1.1-2.6l4-14.9c0.3-1.1,1-4,1-4.4
			c0-0.3-0.2-0.5-0.5-0.7C8.3,1,7.8,0.8,7.3,0.8C6.7,0.7,5.8,0.7,5.8,0.7z"/>
		
			<linearGradient id="SVGID_9_" gradientUnits="userSpaceOnUse" x1="-16.0814" y1="3.2513" x2="-12.221" y2="37.5888" gradientTransform="matrix(1 0 -0.2705 1 79.3173 0)">
			<stop  offset="0" style="stop-color:#0075C1"/>
			<stop  offset="0.5" style="stop-color:#0068B6"/>
			<stop  offset="0.5" style="stop-color:#1F5AA0"/>
			<stop  offset="0.5" style="stop-color:#484782"/>
			<stop  offset="0.5" style="stop-color:#6E3667"/>
			<stop  offset="0.5" style="stop-color:#8E2750"/>
			<stop  offset="0.5" style="stop-color:#AA1B3D"/>
			<stop  offset="0.5" style="stop-color:#C0112D"/>
			<stop  offset="0.5" style="stop-color:#D00921"/>
			<stop  offset="0.5" style="stop-color:#DC0418"/>
			<stop  offset="0.5" style="stop-color:#E30113"/>
			<stop  offset="0.5" style="stop-color:#E50012"/>
			<stop  offset="1" style="stop-color:#E50012"/>
		</linearGradient>
		<path class="st8" d="M48.8,9.9h6.3L55,10.2c-0.6,0-1,0.1-1.2,0.3c-0.2,0.2-0.4,0.4-0.5,0.7c-0.1,0.3-0.1,0.8-0.1,1.2l0.9,9.4
			l5.6-7.8l-0.3-2.2c-0.1-0.7-0.3-1.1-0.7-1.4c-0.2-0.2-0.6-0.2-1.3-0.3l0.1-0.3h6.8l-0.1,0.3c-0.8,0-1.4,0.2-1.8,0.4
			c-0.3,0.2-0.5,0.5-0.6,0.8c-0.1,0.2-0.1,0.4-0.1,0.7l1.1,9.4l5.9-9c0.4-0.6,0.6-1.1,0.7-1.4c0.1-0.2,0-0.4-0.2-0.6
			c-0.2-0.2-1.3-0.3-1.9-0.3l0.1-0.3h6.2l-0.1,0.3c-1,0.1-2.6,0.8-3.4,2l-8.6,13.1h-0.7L60,15.6l-7.1,9.7h-0.6l-1.4-12.8
			c-0.1-0.8-0.3-1.3-0.5-1.6c-0.4-0.5-1-0.6-1.7-0.6L48.8,9.9z"/>
		
			<linearGradient id="SVGID_10_" gradientUnits="userSpaceOnUse" x1="52.9889" y1="-4.514" x2="56.8493" y2="29.8235" gradientTransform="matrix(1 0 -0.2705 1 79.3173 0)">
			<stop  offset="0" style="stop-color:#0075C1"/>
			<stop  offset="0.5" style="stop-color:#0068B6"/>
			<stop  offset="0.5" style="stop-color:#1F5AA0"/>
			<stop  offset="0.5" style="stop-color:#484782"/>
			<stop  offset="0.5" style="stop-color:#6E3667"/>
			<stop  offset="0.5" style="stop-color:#8E2750"/>
			<stop  offset="0.5" style="stop-color:#AA1B3D"/>
			<stop  offset="0.5" style="stop-color:#C0112D"/>
			<stop  offset="0.5" style="stop-color:#D00921"/>
			<stop  offset="0.5" style="stop-color:#DC0418"/>
			<stop  offset="0.5" style="stop-color:#E30113"/>
			<stop  offset="0.5" style="stop-color:#E50012"/>
			<stop  offset="1" style="stop-color:#E50012"/>
		</linearGradient>
		<path class="st9" d="M141.5,0l-2.3,8.4h-0.3c0.2-1.6,0.2-3.1-0.1-4.1c-0.3-1-0.9-1.7-1.8-2.3c-0.9-0.6-1.8-1.1-2.9-1.1
			c-1.2,0-2.4,0.4-3.4,1.1c-1,0.8-1.8,2.1-2,3c-0.2,0.7-0.3,2,0.1,2.6c0.5,0.9,1.9,2.1,4.3,3.6c1.9,1.2,3.2,2.1,3.9,2.8
			c0.7,0.6,1.1,1.2,1.3,2.1c0.2,0.9,0.3,1.5,0,2.5c-0.5,1.8-1.6,3.3-3.4,4.7c-1.8,1.3-3.8,2-6,2c-0.7,0-1.7,0-2.3-0.1
			c-0.4-0.1-1.6-0.3-2.7-0.7c-1.1-0.4-1.7-0.6-2-0.6c-0.3,0-0.6,0.1-0.8,0.3c-0.2,0.2-0.4,0.5-0.7,1.1h-0.3l2.2-8.3h0.3
			c-0.2,1.7-0.2,3.2,0.1,4.1c0.4,1.1,1,1.8,1.8,2.3c1.1,0.6,2,0.9,4.2,0.9c1.5,0,3-0.6,4.1-1.4c1.1-0.8,1.6-1.9,1.9-3
			c0.2-0.6,0.3-1.6,0.1-2.2s-0.5-1.2-1.1-1.7c-0.4-0.4-1.4-1.1-3.2-2.3c-1.8-1.2-3-2.1-3.7-2.8c-0.7-0.7-1.1-1.5-1.4-2.3
			c-0.2-0.8-0.3-1.5,0-2.5c0.5-1.7,1.5-3.1,3.2-4.4c1.7-1.3,3.5-1.9,5.6-1.9c1.3,0,2.6,0.3,3.8,0.9c0.6,0.3,1,0.4,1.3,0.4
			c0.3,0,0.6-0.1,0.8-0.3c0.2-0.2,0.5-0.6,0.8-1.1H141.5z"/>
		
			<linearGradient id="SVGID_11_" gradientUnits="userSpaceOnUse" x1="84.26" y1="-8.0297" x2="88.1205" y2="26.3078" gradientTransform="matrix(1 0 -0.2705 1 79.3173 0)">
			<stop  offset="0" style="stop-color:#0075C1"/>
			<stop  offset="0.5" style="stop-color:#0068B6"/>
			<stop  offset="0.5" style="stop-color:#1F5AA0"/>
			<stop  offset="0.5" style="stop-color:#484782"/>
			<stop  offset="0.5" style="stop-color:#6E3667"/>
			<stop  offset="0.5" style="stop-color:#8E2750"/>
			<stop  offset="0.5" style="stop-color:#AA1B3D"/>
			<stop  offset="0.5" style="stop-color:#C0112D"/>
			<stop  offset="0.5" style="stop-color:#D00921"/>
			<stop  offset="0.5" style="stop-color:#DC0418"/>
			<stop  offset="0.5" style="stop-color:#E30113"/>
			<stop  offset="0.5" style="stop-color:#E50012"/>
			<stop  offset="1" style="stop-color:#E50012"/>
		</linearGradient>
		<path class="st10" d="M168.3,9.1l-1.4,5.4h-0.2c0.1-1,0.1-1.8-0.1-2.5c-0.2-0.6-0.6-1.1-1.1-1.5c-0.6-0.4-1.2-0.5-1.9-0.5
			c-0.8,0-1.5,0.2-2.2,0.7s-1.1,1-1.2,1.7c-0.1,0.5-0.1,0.9,0.1,1.3c0.3,0.6,1.2,1.3,2.8,2.3c1.2,0.8,2.1,1.4,2.5,1.8
			c0.4,0.4,0.7,0.9,0.8,1.5c0.1,0.6,0.1,1.2-0.1,1.8c-0.3,1.2-1,2.2-2.2,3c-1.1,0.8-2.4,1.3-3.9,1.3c-0.4,0-0.9,0-1.2-0.1
			c-0.2,0-0.7-0.2-1.4-0.4c-0.7-0.2-1.1-0.4-1.3-0.4c-0.2,0-0.4,0.1-0.5,0.2c-0.1,0.1-0.3,0.3-0.4,0.7h-0.2l1.4-5.3h0.2
			c-0.1,1.1-0.1,1.9,0.1,2.5c0.2,0.6,0.6,1,1.2,1.4c0.6,0.4,1.3,0.5,2.1,0.5c1,0,1.8-0.3,2.5-0.8c0.7-0.5,1.1-1.1,1.3-1.8
			c0.1-0.4,0.1-0.8,0-1.2c-0.1-0.4-0.3-0.7-0.7-1.1c-0.2-0.2-0.9-0.7-2-1.5c-1.1-0.7-1.9-1.3-2.3-1.8c-0.4-0.4-0.7-0.9-0.9-1.5
			c-0.1-0.5-0.1-1.1,0-1.8c0.3-1.1,1-2.1,2.1-2.9c1.1-0.8,2.3-1.2,3.6-1.2c0.8,0,1.6,0.2,2.5,0.6c0.4,0.2,0.6,0.3,0.8,0.3
			c0.2,0,0.4-0.1,0.5-0.2c0.2-0.1,0.3-0.4,0.5-0.7H168.3z"/>
		
			<linearGradient id="SVGID_12_" gradientUnits="userSpaceOnUse" x1="71.1268" y1="-6.5532" x2="74.9873" y2="27.7843" gradientTransform="matrix(1 0 -0.2705 1 79.3173 0)">
			<stop  offset="0" style="stop-color:#0075C1"/>
			<stop  offset="0.5" style="stop-color:#0068B6"/>
			<stop  offset="0.5" style="stop-color:#1F5AA0"/>
			<stop  offset="0.5" style="stop-color:#484782"/>
			<stop  offset="0.5" style="stop-color:#6E3667"/>
			<stop  offset="0.5" style="stop-color:#8E2750"/>
			<stop  offset="0.5" style="stop-color:#AA1B3D"/>
			<stop  offset="0.5" style="stop-color:#C0112D"/>
			<stop  offset="0.5" style="stop-color:#D00921"/>
			<stop  offset="0.5" style="stop-color:#DC0418"/>
			<stop  offset="0.5" style="stop-color:#E30113"/>
			<stop  offset="0.5" style="stop-color:#E50012"/>
			<stop  offset="1" style="stop-color:#E50012"/>
		</linearGradient>
		<path class="st11" d="M140.5,9.9h7.7l-0.1,0.3h0c-0.5,0-1.6,0.1-1.9,0.3c-0.3,0.2-0.5,0.5-0.6,0.8c-0.1,0.4-0.1,1,0.1,1.8l1.7,8.8
			l6.4-9.5c0.3-0.5,0.5-0.9,0.6-1.3c0.1-0.2,0.1-0.3,0-0.4c-0.1-0.1-0.2-0.2-0.3-0.3c-0.2-0.1-1.5-0.1-2-0.1l0.1-0.3h7l-0.1,0.3
			c-0.4,0-1.8,0.1-2.1,0.3c-0.3,0.1-0.6,0.4-0.9,0.7c-0.1,0.2-0.4,0.6-0.9,1.3l-10.3,15.2c-1,1.5-2.1,2.6-3.3,3.3
			c-1.2,0.8-2.1,0.9-3,1c-0.7,0-1.3,0-1.7-0.3c-0.4-0.3-0.3-0.6-0.2-1.1c0.2-0.5,0.4-0.8,0.8-1.1c0.4-0.3,0.8-0.4,1.3-0.2
			c0.4,0.1,0.8,0.3,1.4,0.4c0.4,0.1,0.7,0,0.8,0c0.4-0.1,0.7-0.3,1.2-0.6c0.5-0.3,1.2-1.2,1.8-2.1l1.8-2.6l-2.4-11.5
			c-0.1-0.3-0.2-0.8-0.5-1.3c-0.2-0.4-0.3-0.6-0.5-0.8c-0.2-0.2-1.1-0.4-2.2-0.5L140.5,9.9z"/>
		
			<linearGradient id="SVGID_13_" gradientUnits="userSpaceOnUse" x1="125.4945" y1="-12.6655" x2="129.355" y2="21.6719" gradientTransform="matrix(1 0 -0.2705 1 79.3173 0)">
			<stop  offset="0" style="stop-color:#0075C1"/>
			<stop  offset="0.5" style="stop-color:#0068B6"/>
			<stop  offset="0.5" style="stop-color:#1F5AA0"/>
			<stop  offset="0.5" style="stop-color:#484782"/>
			<stop  offset="0.5" style="stop-color:#6E3667"/>
			<stop  offset="0.5" style="stop-color:#8E2750"/>
			<stop  offset="0.5" style="stop-color:#AA1B3D"/>
			<stop  offset="0.5" style="stop-color:#C0112D"/>
			<stop  offset="0.5" style="stop-color:#D00921"/>
			<stop  offset="0.5" style="stop-color:#DC0418"/>
			<stop  offset="0.5" style="stop-color:#E30113"/>
			<stop  offset="0.5" style="stop-color:#E50012"/>
			<stop  offset="1" style="stop-color:#E50012"/>
		</linearGradient>
		<path class="st12" d="M198.1,12.4c1.4-1.1,2.2-1.7,2.5-1.9c0.6-0.4,1.2-0.7,1.9-1c0.6-0.2,1.1-0.3,1.7-0.3c0.6,0,1.2,0.3,1.7,0.8
			c0.5,0.6,0.8,1.4,0.7,2.4c1.5-1.3,2.7-2.2,3.6-2.6c0.9-0.4,1.6-0.6,2.4-0.6c0.8,0,1.4,0.3,1.8,0.8c0.5,0.5,0.5,0.9,0.6,1.8
			c0.1,0.6-0.1,1.6-0.5,3l-1.8,6.5c-0.3,1-0.4,1.9-0.4,2.3c0,0.2,0.2,0.5,0.4,0.6c0.3,0.2,0.7,0.3,1.4,0.3l-0.1,0.3h-6.9l0.1-0.3
			h0.3c0.7,0,1.2-0.1,1.6-0.4c0.3-0.2,0.6-0.5,0.8-0.8c0.1-0.2,0.3-1,0.6-1.9l1.9-6.9c0.3-1.2,0.4-2.1,0.3-2.6
			c-0.2-0.7-0.8-1.1-1.8-1.1c-0.6,0-1.2,0.1-1.9,0.4c-0.7,0.3-1.5,0.8-2.6,1.6l-0.1,0.2l-0.2,0.7l-2,7.6c-0.3,1-0.5,2-0.4,2.3
			c0,0.3,0.2,0.5,0.5,0.6c0.3,0.2,0.8,0.3,1.6,0.3l-0.1,0.3h-7.1l0.1-0.3c0.8,0,1.4-0.1,1.8-0.3c0.4-0.2,0.7-0.5,0.9-0.9
			c0.1-0.2,0.4-1.1,0.6-2l1.9-6.9c0.3-1.2,0.4-2.1,0.2-2.7c-0.3-0.7-0.9-1.1-1.8-1.1c-0.6,0-1.2,0.2-1.9,0.5c-1.1,0.5-1.9,1-2.6,1.6
			l-2.3,8.5c-0.3,1-0.5,2-0.4,2.3c0.1,0.3,0.2,0.5,0.4,0.7c0.2,0.1,0.8,0.2,1.6,0.2l-0.1,0.3h-6.9l0.1-0.3c0.7,0,1.2-0.1,1.5-0.2
			c0.3-0.1,0.6-0.4,0.8-0.7c0.2-0.3,0.6-1.3,0.8-2.2l1.6-5.8c0.5-1.7,0.8-3.1,0.8-3.6c0-0.4,0-0.6-0.2-0.8c-0.1-0.1-0.3-0.2-0.6-0.2
			c-0.3,0-0.8,0.1-1.3,0.3l-0.1-0.3l4.5-1.9h0.7L198.1,12.4z"/>
	</g>
</g>
</svg>
