<?xml version="1.0" encoding="utf-8"?>
<!-- Generator: Adobe Illustrator 24.3.0, SVG Export Plug-In . SVG Version: 6.00 Build 0)  -->
<svg version="1.1" id="レイヤー_1" xmlns="http://www.w3.org/2000/svg" xmlns:xlink="http://www.w3.org/1999/xlink" x="0px"
	 y="0px" viewBox="0 0 216.86 99.21" style="enable-background:new 0 0 216.86 99.21;" xml:space="preserve">
<style type="text/css">
	.st0{fill:#231815;}
	.st1{fill:#E50012;}
	.st2{fill:#3C0162;}
</style>
<g>
	<g>
		<g>
			<path class="st0" d="M33.1,99.21c-0.09-0.01-0.13-0.13-0.23-0.14c-0.1-0.11-0.11-0.31-0.15-0.45c-0.27,0.09-0.63,0.28-1,0.31
				c-0.03,0-0.06,0.01-0.09,0.01c-0.07,0-0.14-0.02-0.14-0.09c0.11,0,0.21-0.01,0.25-0.08c-0.03-0.05-0.07-0.06-0.12-0.06H31.5
				c-0.14-0.02-0.28-0.1-0.37-0.18c-0.05-0.05-0.08-0.14-0.16-0.14v0.01c0,0.22,0.24,0.27,0.34,0.42c-0.24-0.05-0.35-0.22-0.48-0.4
				c-0.12-0.17-0.23-0.35-0.25-0.62c-0.01-0.08-0.01-0.16-0.01-0.23c0-0.74,0.24-1.3,0.55-1.8c0.1-0.17,0.26-0.35,0.37-0.46
				c0.19-0.17,0.46-0.27,0.65-0.43h0.01c0.02,0,0.02,0.01,0.05,0.01c0.06-0.06,0.17-0.09,0.28-0.09c0.03,0,0.05,0,0.08,0.01
				c-0.12,0.08-0.29,0.1-0.44,0.17c-0.06,0.03-0.13,0.08-0.2,0.12c-0.1,0.06-0.2,0.1-0.23,0.24c0.11-0.01,0.2-0.1,0.29-0.15
				c0.1-0.05,0.21-0.1,0.31-0.15c0.05-0.02,0.13-0.03,0.2-0.04c0.04-0.01,0.08-0.01,0.13-0.01h0.1c0.12,0,0.25-0.01,0.32-0.05
				c-0.03-0.11-0.22-0.08-0.33-0.12c0.05-0.04,0.1-0.05,0.16-0.05c0.08,0,0.15,0.02,0.22,0.04c0.12,0.03,0.21,0.02,0.3,0.09
				c0.06,0.06,0.12,0.14,0.16,0.21c0.03,0.02,0.06,0.03,0.08,0.05c0.01,0.09,0.04,0.17,0.09,0.23c-0.01,0.02-0.01,0.03-0.01,0.05
				c0,0.08,0.05,0.13,0.06,0.19v0.01c0,0.04-0.01,0.08-0.01,0.11c0,0.02,0,0.04,0.01,0.06c-0.03,0.08-0.1,0.12-0.1,0.22
				c0,0.01-0.01,0.02-0.01,0.02c-0.01,0-0.02-0.02-0.04-0.02h-0.01c-0.03,0.03-0.05,0.1-0.06,0.16c-0.03-0.01-0.02-0.05-0.05-0.05
				c-0.09,0.01-0.17,0.04-0.26,0.06c-0.1-0.08-0.28-0.09-0.3-0.24c-0.1-0.08-0.22-0.11-0.38-0.11h-0.08c-0.35,0-0.61,0.32-0.81,0.59
				c-0.24,0.32-0.45,0.62-0.45,1.1c0,0.03,0.01,0.07,0.01,0.11c0.02,0.18,0.09,0.33,0.22,0.4c0.07,0.04,0.16,0.04,0.26,0.05
				c0.07,0.01,0.13,0.01,0.18,0.01c0.05,0,0.09,0,0.14-0.01c0.27-0.05,0.54-0.21,0.75-0.31c0.08-0.07,0.1-0.21,0.12-0.33h-0.02
				c-0.06,0-0.12,0.02-0.17,0.03c-0.06,0.01-0.13,0.01-0.17,0.02c-0.09,0.03-0.15,0.12-0.25,0.12h-0.03c-0.05,0-0.12-0.01-0.16-0.05
				c-0.06-0.04-0.09-0.12-0.14-0.16c-0.07-0.06-0.18-0.07-0.2-0.19c-0.01-0.02-0.01-0.05-0.01-0.08c0-0.17,0.1-0.31,0.22-0.37
				c0-0.02-0.01-0.04-0.01-0.06c0-0.28,0.33-0.27,0.54-0.36v0.01c0,0.08-0.16,0.08-0.16,0.18c0.07,0.03,0.16,0.03,0.25,0.03
				c0.2,0,0.44-0.04,0.65-0.04c0.08,0,0.16,0.01,0.22,0.02c-0.03,0.03-0.08,0.04-0.13,0.04h-0.1c-0.1,0-0.2,0.02-0.3,0.03h-0.18
				c-0.1,0-0.18,0.01-0.21,0.1c0.05,0.03,0.1,0.04,0.18,0.04c0.13,0,0.28-0.03,0.42-0.04c0.26-0.01,0.52-0.03,0.7-0.1
				c0-0.05-0.04-0.06-0.09-0.06c-0.02,0-0.04,0.01-0.06,0.01c-0.03,0-0.07-0.01-0.09-0.03c0.06-0.08,0.17-0.05,0.25-0.07
				c0.19-0.03,0.39-0.06,0.54-0.13c0,0.02-0.06,0.07-0.06,0.12h0.03c0.09,0,0.14-0.03,0.23-0.03h0.03c-0.08,0.05-0.2,0.07-0.24,0.17
				h0.01c0.03,0,0.07-0.04,0.12-0.04c0.01,0,0.02,0,0.03,0.01v0.01c0,0.03-0.07,0.05-0.09,0.12c-0.01,0.02-0.01,0.03-0.01,0.04
				c0,0.05,0.02,0.09,0.05,0.13h0.01c0.02,0,0.02-0.01,0.04-0.01h0.01v0.01c0,0.05-0.09,0.09-0.1,0.14
				c-0.02,0.05-0.01,0.1-0.02,0.14c-0.05,0.12-0.16,0.12-0.22,0.22c-0.07-0.02-0.16-0.02-0.25-0.02c-0.12,0-0.22,0.01-0.33,0.02
				c0,0.05,0.02,0.12,0.02,0.17c0,0.02,0,0.03-0.01,0.05c0,0.03-0.05,0.02-0.05,0.05c-0.02,0.03-0.04,0.07-0.04,0.12v0.02
				c-0.07,0.08-0.09,0.22-0.1,0.38c-0.01,0.13-0.04,0.28-0.06,0.41c-0.01,0.05-0.01,0.1-0.01,0.16c0,0.06,0.01,0.13,0.04,0.18
				c-0.1,0.09-0.14,0.29-0.31,0.29H33.1z M34.44,96.37c-0.01-0.01-0.01-0.02-0.01-0.02c0-0.03,0.04-0.05,0.07-0.05
				c0.01,0,0.02,0,0.03,0.01C34.52,96.33,34.49,96.36,34.44,96.37z"/>
			<path class="st0" d="M38.4,98.78c0,0.03-0.01,0.06-0.01,0.09c-0.05,0.17-0.23,0.33-0.44,0.35c-0.06-0.03-0.09-0.09-0.19-0.09
				c-0.44-0.48-0.81-1.04-1.22-1.55c-0.06,0.01-0.07,0.05-0.12,0.07H36.4c-0.09,0-0.14,0.03-0.18,0.07
				c-0.02-0.01-0.05-0.01-0.07-0.01c-0.13,0-0.2,0.17-0.25,0.31c-0.05,0.12-0.08,0.22-0.12,0.34c-0.1,0.24-0.13,0.54-0.26,0.65
				c-0.04,0.02-0.12,0.06-0.19,0.06c-0.02,0-0.03-0.01-0.05-0.01c-0.07-0.02-0.06-0.08-0.17-0.09c-0.02-0.07-0.09-0.1-0.16-0.12
				c-0.05-0.07-0.06-0.17-0.13-0.22V98.6c0-0.03,0.02-0.03,0.02-0.06v-0.01c-0.01-0.03-0.02-0.04-0.05-0.04
				c-0.02,0-0.04,0.01-0.06,0.01c-0.01,0-0.02-0.01-0.02-0.01c0-0.07,0.08-0.07,0.13-0.1c0.14-0.1,0.22-0.26,0.33-0.4
				c0.01,0.01,0.01,0.03,0.01,0.04c0,0.05-0.03,0.1-0.03,0.16c0,0.01,0,0.02,0.01,0.03c0.27-0.18,0.39-0.58,0.48-0.97h-0.02
				c-0.04,0-0.07,0.04-0.09,0.06c-0.1,0.13-0.14,0.36-0.23,0.51c-0.03-0.02-0.04-0.04-0.04-0.07c0-0.04,0.02-0.09,0.05-0.12
				c0.03-0.05,0.06-0.13,0.1-0.16c-0.01-0.01-0.01-0.03-0.01-0.06c0.11-0.14,0.13-0.36,0.24-0.5c-0.01-0.02-0.01-0.03-0.01-0.05
				c0-0.06,0.05-0.12,0.05-0.18c0-0.01,0-0.02-0.01-0.04h-0.01c-0.07,0-0.07,0.09-0.14,0.13c-0.04,0.02-0.09,0.03-0.13,0.03
				c-0.13,0-0.25-0.08-0.32-0.15c-0.2-0.01-0.3-0.19-0.3-0.36v-0.02c0.01-0.03,0.03-0.07,0.03-0.11v-0.01
				c0-0.08-0.06-0.13-0.06-0.22c0-0.02,0.01-0.05,0.01-0.07c0.02-0.08,0.15-0.22,0.2-0.29c0.03-0.04,0.07-0.09,0.1-0.14
				s0.04-0.12,0.1-0.12h0.02c-0.02,0.07-0.09,0.13-0.09,0.21c0,0.02,0.01,0.04,0.02,0.06c0.16-0.04,0.22-0.17,0.41-0.17h0.01
				c-0.03,0.1-0.2,0.09-0.2,0.21c0,0.02,0,0.03,0.01,0.05c0.17-0.03,0.29-0.16,0.45-0.24c0.3-0.15,0.63-0.24,0.89-0.35
				c-0.04-0.02-0.08-0.03-0.12-0.03c-0.09,0-0.19,0.04-0.27,0.06c-0.12,0.03-0.21,0.09-0.36,0.1c0.18-0.1,0.41-0.2,0.65-0.26
				c0.21-0.05,0.47-0.1,0.71-0.1c0.03,0,0.06,0.01,0.09,0.01c0.57,0.03,1.05,0.43,1.05,1.05V96c0,0.42-0.24,0.68-0.5,0.86
				c-0.07,0.05-0.14,0.13-0.24,0.13v-0.01c0-0.03,0.04-0.06,0.07-0.09c0.09-0.09,0.24-0.17,0.32-0.27h-0.02
				c-0.21,0-0.33,0.18-0.5,0.27c-0.14,0.08-0.33,0.09-0.38,0.25c0.02,0.01,0.03,0.02,0.05,0.02c0.06,0,0.13-0.07,0.22-0.07
				c0.01,0,0.02,0.01,0.03,0.01c-0.05,0.1-0.22,0.13-0.32,0.19c0.06,0.09,0.13,0.18,0.2,0.25c0.07,0.08,0.14,0.16,0.21,0.24
				c0.03,0.03,0.07,0.05,0.1,0.08c0.09,0.09,0.14,0.23,0.28,0.25c0.05-0.06,0.03-0.2,0.06-0.29c0.06,0.08-0.01,0.28,0.07,0.35
				c0-0.12-0.03-0.28-0.03-0.44c0-0.06,0.01-0.13,0.02-0.19c0.05,0.15,0.02,0.39,0.05,0.56c0.01,0.07,0.04,0.12,0.05,0.17
				c0.03-0.06,0.02-0.16,0.03-0.24c0.05,0.22,0.08,0.46,0.2,0.62c-0.02,0.02-0.02,0.06-0.02,0.11V98.78z M35.72,95.36
				c-0.05,0-0.07,0.04-0.11,0.04c-0.01,0-0.02,0-0.03-0.01c0.01-0.08,0.1-0.06,0.14-0.1c0.01,0,0.01,0.01,0.01,0.02v0.04H35.72z
				 M37.11,96.54c0.19-0.08,0.4-0.16,0.54-0.27c0.06-0.05,0.15-0.16,0.15-0.27c0-0.01,0-0.03-0.01-0.05
				c-0.04-0.17-0.32-0.21-0.58-0.21c-0.05,0-0.11,0-0.16,0.01c-0.19,0.02-0.38,0.1-0.54,0.18c-0.16,0.08-0.32,0.15-0.43,0.27
				c0.05,0.01,0.11,0.02,0.16,0.03c0.09,0.18,0.26,0.29,0.29,0.54C36.72,96.71,36.92,96.63,37.11,96.54z M38.22,97.78
				c0.01,0.02,0.01,0.03,0.01,0.05c0,0.05-0.02,0.09-0.03,0.13c-0.02-0.01-0.03-0.04-0.03-0.08c0-0.04,0.01-0.09,0.02-0.1H38.22z"/>
			<path class="st0" d="M41.52,98.45c-0.19,0-0.28,0.18-0.43,0.28c-0.15,0.1-0.36,0.11-0.48,0.25c0.03,0.02,0.07,0.02,0.1,0.02
				c0.2,0,0.44-0.22,0.63-0.26c-0.21,0.25-0.57,0.37-0.96,0.37c-0.22,0-0.46-0.04-0.68-0.13c-0.57-0.22-1.05-0.74-1.09-1.44
				c-0.01-0.08-0.01-0.16-0.01-0.22c0-0.18,0.02-0.35,0.07-0.53c0.05-0.22,0.1-0.41,0.24-0.51v0.02c0,0.05-0.05,0.11-0.05,0.17
				c0,0.02,0.01,0.05,0.03,0.06c0.07-0.1,0.13-0.21,0.2-0.32c-0.01-0.02-0.03-0.03-0.03-0.05C39,96.18,39,96.25,38.93,96.25
				c-0.01-0.02-0.01-0.03-0.01-0.05c0-0.07,0.06-0.14,0.09-0.2c0.12-0.21,0.29-0.43,0.51-0.54v0.01c0,0.02-0.04,0.07-0.08,0.1
				c-0.13,0.13-0.3,0.25-0.32,0.48c0.1-0.04,0.14-0.14,0.2-0.21c0.25-0.27,0.59-0.43,0.89-0.65c-0.02-0.03-0.05-0.03-0.08-0.03
				c-0.07,0-0.16,0.06-0.22,0.06H39.9c0.1-0.12,0.25-0.17,0.41-0.22c-0.03-0.12-0.21-0.12-0.27-0.21c0.14,0,0.26,0.1,0.37,0.14
				c-0.03-0.06-0.12-0.08-0.15-0.14c0.14,0.04,0.25,0.1,0.39,0.16c0.02-0.01,0-0.05,0.02-0.05h0.01c0.06,0.02,0.1,0.01,0.15,0.02
				c0.13,0.06,0.14,0.22,0.25,0.29c0.05,0.03,0.11,0.05,0.16,0.09c0.08,0.06,0.14,0.17,0.25,0.22c0.31,0.38,0.59,0.97,0.59,1.66
				v0.02c0,0.53-0.24,1.11-0.51,1.38c-0.02,0.03-0.06,0.04-0.09,0.06C41.46,98.56,41.52,98.53,41.52,98.45L41.52,98.45z
				 M41.46,96.87c0-0.46-0.19-0.95-0.45-1.14c-0.05,0.1-0.08,0.23-0.2,0.25C40.79,95.99,40.77,96,40.75,96
				c-0.05,0-0.09-0.01-0.13-0.01H40.6c-0.25,0.03-0.43,0.17-0.57,0.33c-0.2,0.24-0.39,0.55-0.46,0.92
				c-0.01,0.08-0.02,0.16-0.02,0.23c0,0.24,0.06,0.46,0.17,0.61c0.13,0.17,0.38,0.31,0.66,0.31c0.03,0,0.07,0,0.11-0.01
				c0.14-0.02,0.3-0.1,0.39-0.17c0.3-0.21,0.57-0.8,0.57-1.27V96.87z M39.7,95.36c-0.01-0.01-0.01-0.02-0.01-0.03
				c0-0.05,0.06-0.1,0.1-0.1c0.02,0,0.04,0.01,0.05,0.03C39.81,95.31,39.75,95.34,39.7,95.36z"/>
			<path class="st0" d="M43.97,99.09c-0.05,0-0.08-0.02-0.12-0.02c-0.02,0-0.03,0.01-0.05,0.01c-0.03-0.02-0.07-0.02-0.1-0.05
				c-0.28-0.03-0.51-0.18-0.71-0.35c-0.18-0.15-0.31-0.31-0.37-0.54c0.06,0.01,0.07,0.08,0.1,0.13c0.03,0.04,0.07,0.09,0.11,0.12
				c0.07,0.08,0.13,0.18,0.25,0.2c-0.07-0.16-0.22-0.29-0.31-0.47c-0.08-0.14-0.12-0.32-0.16-0.49c-0.02-0.08,0.01-0.19-0.09-0.21
				c-0.03,0.01-0.05,0.05-0.05,0.1c0,0.04,0.01,0.08,0.01,0.12v0.02h-0.01c-0.04,0-0.05-0.05-0.05-0.08
				c-0.02-0.06-0.02-0.13-0.02-0.21c0-0.17,0.03-0.37,0.06-0.5c0.01-0.04,0.03-0.08,0.05-0.11c0.04-0.19,0.06-0.39,0.14-0.53
				c-0.09-0.07-0.11-0.24-0.11-0.39c0-0.06,0.01-0.13,0.01-0.17c0.03-0.08,0.13-0.12,0.14-0.22v-0.02c0-0.07-0.02-0.18-0.02-0.28
				v-0.18c0-0.07,0.01-0.15,0.04-0.19c0.01,0,0.02,0.01,0.02,0.01v0.05c0,0.17,0.03,0.31,0.07,0.44h0.01c0.02,0,0.01-0.02,0.03-0.02
				h0.01v-0.03c0-0.07-0.03-0.16-0.03-0.25c0-0.03,0.01-0.05,0.01-0.08c0.05,0.07,0.05,0.21,0.13,0.24
				c0.03-0.03,0.04-0.06,0.04-0.09c0-0.02,0-0.05-0.01-0.08c0-0.01,0.01-0.01,0.01-0.01c0.02,0,0.05,0.06,0.07,0.08h0.02
				c0.1,0,0.18-0.11,0.27-0.12h0.02c0.09,0,0.18,0.05,0.22,0.12c0.17,0.05,0.28,0.17,0.4,0.29c0.01,0.06,0,0.12,0.02,0.17
				c0.01,0.03,0.05,0.05,0.06,0.08c0.05,0.09,0.03,0.2,0.09,0.29c-0.02,0.03-0.06,0.07-0.06,0.1c0,0.01,0.01,0.02,0.01,0.03h-0.01
				c-0.03,0-0.04,0.03-0.05,0.07c-0.05,0.01-0.14,0.09-0.18,0.14c-0.05,0.06-0.08,0.12-0.16,0.16c-0.01,0.01-0.01,0.01-0.01,0.01
				c0,0.01,0.01,0.02,0.01,0.03c-0.04,0-0.05,0.03-0.09,0.03c-0.02,0.06-0.06,0.09-0.07,0.14c-0.1,0.02-0.1,0.13-0.18,0.16
				c-0.01,0.05-0.05,0.06-0.05,0.13h-0.05c-0.09,0.14-0.13,0.36-0.13,0.58c0,0.25,0.06,0.5,0.16,0.65c0.03,0.05,0.09,0.08,0.14,0.13
				c0.05,0.03,0.11,0.09,0.16,0.11c0.09,0.04,0.22,0.02,0.33,0.07c0.02-0.01,0.06-0.02,0.09-0.02c0.02,0,0.05,0.01,0.08,0.01
				c0.07-0.04,0.17-0.06,0.26-0.1c0.21-0.13,0.37-0.33,0.48-0.55v-0.01c0-0.01,0.01-0.01,0.01-0.01h0.02
				c0.16-0.47,0.35-1.08,0.35-1.67v-0.02c0-0.15-0.1-0.22-0.12-0.37c-0.01-0.05-0.01-0.09-0.01-0.12c0-0.06,0-0.12-0.03-0.17
				c0.16-0.13,0.17-0.37,0.21-0.6c0.05,0.09,0.03,0.24,0.07,0.34c0.02-0.02,0.03-0.05,0.03-0.09c0-0.03-0.01-0.07-0.01-0.12
				c0-0.03,0-0.06,0.01-0.07c0.06,0.08,0.06,0.23,0.18,0.26c0.01,0,0.01-0.01,0.01-0.01c0-0.01-0.02-0.03-0.02-0.05
				c0-0.01,0.01-0.02,0.01-0.02c0.13,0.1,0.17,0.29,0.26,0.41c-0.09,0.22-0.06,0.57-0.09,0.85c-0.04-0.07-0.05-0.18-0.07-0.28
				c-0.08,0.12-0.09,0.28-0.09,0.44v0.31c0,0.21-0.08,0.4-0.09,0.57c0,0.03-0.01,0.07-0.01,0.1c0,0.03,0.01,0.07,0.03,0.1
				c0.1-0.15,0.13-0.43,0.17-0.66c0.01-0.08,0.02-0.17,0.07-0.22c-0.01,0.28-0.06,0.55-0.1,0.8c-0.02,0.09-0.05,0.17-0.09,0.27
				c-0.05,0.09-0.05,0.18-0.07,0.27c-0.05,0.12-0.17,0.18-0.18,0.31c-0.09,0.15-0.2,0.27-0.31,0.4c-0.15,0.09-0.31,0.2-0.48,0.27
				c-0.15,0.06-0.35,0.13-0.54,0.13H43.97z M42.54,97.89c-0.06,0-0.09-0.05-0.09-0.11c0-0.02,0-0.04,0.01-0.06
				C42.54,97.73,42.52,97.84,42.54,97.89L42.54,97.89z M45.58,94.97c-0.03,0-0.05-0.02-0.05-0.05c0-0.02,0.01-0.03,0.02-0.04
				c0.04,0,0.03,0.06,0.04,0.09H45.58z"/>
			<path class="st0" d="M49.41,97.05c0.16,0,0.25-0.14,0.43-0.18c-0.08,0.16-0.25,0.2-0.41,0.28c-0.07,0.04-0.14,0.08-0.22,0.11
				c-0.08,0.03-0.16,0.04-0.24,0.07c-0.17,0.07-0.35,0.16-0.56,0.2c-0.11,0.02-0.21,0.05-0.31,0.07c-0.1,0.03-0.19,0.06-0.28,0.06
				c-0.03,0-0.07,0-0.11-0.01c-0.07,0.13-0.13,0.43-0.15,0.65c-0.02,0.27,0.01,0.52-0.1,0.71c-0.03,0.06-0.1,0.07-0.12,0.13
				c-0.02,0.01-0.03,0.01-0.05,0.01c-0.07,0-0.12-0.05-0.17-0.07c-0.06-0.03-0.12-0.03-0.14-0.06c-0.06-0.06-0.06-0.16-0.13-0.2
				v-0.02c0-0.09-0.03-0.14-0.07-0.18c0.01-0.03,0.03-0.03,0.04-0.07c-0.02-0.08-0.12-0.09-0.18-0.12c0.12-0.05,0.22-0.05,0.29-0.14
				c0.06-0.09,0.05-0.25,0.17-0.3c-0.01,0.06-0.05,0.14-0.05,0.22c0,0.03,0.01,0.06,0.03,0.08c0.06-0.05,0.1-0.14,0.13-0.22
				c0.07-0.24,0.14-0.54,0.17-0.82c-0.16,0.12-0.15,0.39-0.25,0.58c-0.01-0.02-0.01-0.05-0.01-0.07c0-0.13,0.07-0.27,0.1-0.4
				c0.02-0.1,0.04-0.2,0.07-0.31c0.03-0.14,0.09-0.28,0.09-0.44c0-0.05-0.01-0.1-0.02-0.15c-0.02-0.08-0.08-0.14-0.09-0.24
				c-0.12,0.05-0.21,0.14-0.28,0.28c-0.02,0.05-0.02,0.1-0.04,0.14c-0.05,0.08-0.15,0.12-0.25,0.12c-0.09,0-0.18-0.03-0.25-0.09
				h-0.05c-0.2,0-0.32-0.14-0.32-0.33c0-0.06,0.01-0.12,0.03-0.18c-0.01-0.03-0.02-0.04-0.02-0.07c0.03-0.1,0-0.2,0.05-0.27
				c0.03-0.06,0.14-0.09,0.21-0.14c0.1-0.1,0.13-0.21,0.24-0.25c0.06-0.12,0.15-0.2,0.28-0.25v0.01c0,0.02-0.05,0.06-0.08,0.1
				c-0.05,0.05-0.09,0.09-0.11,0.16c0,0.01-0.01,0.01-0.01,0.02c0.06-0.05,0.1-0.14,0.18-0.16c-0.01,0.07-0.06,0.11-0.07,0.19
				c0.04-0.01,0.06-0.1,0.12-0.12c-0.01,0.02-0.01,0.05-0.01,0.08c0.1-0.03,0.22-0.15,0.35-0.15c0.02,0,0.04,0.01,0.06,0.01
				c-0.12,0.12-0.33,0.15-0.4,0.31h0.02c0.11,0,0.21-0.08,0.31-0.12c0.32-0.16,0.67-0.29,1.05-0.39c-0.02-0.03-0.06-0.04-0.1-0.04
				c-0.03,0-0.07,0.01-0.09,0.01c-0.09,0.01-0.17,0.06-0.24,0.06c-0.01,0-0.02-0.01-0.03-0.01c0.11-0.12,0.35-0.16,0.55-0.19
				c0.03-0.01,0.08-0.01,0.12-0.01c0.09,0,0.18,0.01,0.27,0.01h0.37c0.52,0.05,0.96,0.46,1.01,1c0,0.03,0.01,0.07,0.01,0.1
				c0,0.28-0.08,0.62-0.24,0.71c0-0.09,0.09-0.16,0.09-0.24c0-0.02-0.01-0.04-0.02-0.06c-0.13,0.05-0.15,0.19-0.23,0.28
				c-0.05,0.06-0.13,0.12-0.19,0.17c-0.06,0.05-0.17,0.08-0.2,0.17H49.41z M47.8,95.15c-0.04,0-0.07,0.03-0.11,0.03
				c-0.01,0-0.02-0.01-0.03-0.01v-0.01c0-0.05,0.05-0.08,0.1-0.08c0.02,0,0.03,0,0.05,0.01V95.15z M49.3,96.43
				c0.11-0.16,0.3-0.25,0.35-0.48c-0.06-0.16-0.22-0.27-0.43-0.29c-0.07-0.01-0.14-0.01-0.21-0.01c-0.41,0-0.87,0.09-1.1,0.25
				c0.13,0.06,0.12,0.2,0.21,0.32v0.02c0,0.1,0.03,0.17,0.03,0.24c0,0.02-0.01,0.05-0.01,0.07c-0.03,0.12-0.19,0.17-0.2,0.31
				c0.18-0.03,0.4-0.08,0.54-0.13c0.06-0.02,0.13-0.03,0.2-0.05c0.08-0.02,0.15-0.06,0.21-0.07c0.09-0.02,0.08-0.04,0.15-0.07
				c0.08-0.04,0.16-0.05,0.2-0.1H49.3z"/>
		</g>
		<g>
			<path class="st0" d="M22.71,91.47c0-0.32,0.29-0.34,0.37-0.55h-0.11c-0.43,0-0.81,0.33-1.19,0.55c-0.18,0.11-0.38,0.26-0.59,0.37
				c-0.35,0.17-0.73,0.2-0.94,0.53c0.03,0.08,0.06,0.11,0.11,0.11c0.08,0,0.17-0.06,0.24-0.09c0.43-0.15,0.73-0.34,1.17-0.34
				c-0.35,0.27-0.75,0.37-1.16,0.56c-0.35,0.15-0.53,0.27-0.96,0.37c-0.32,0.08-0.67,0.11-1.02,0.11c-0.41,0-0.81-0.06-1.13-0.21
				c-0.37-0.18-0.66-0.55-0.98-0.81c-0.11-0.08-0.23-0.09-0.3-0.18c-0.14-0.14-0.17-0.34-0.38-0.44c-0.14-0.35-0.26-0.69-0.46-0.93
				v-0.15c-0.03-0.06-0.09-0.08-0.14-0.14c-0.18-0.59-0.27-1.25-0.27-1.92c0-1.1,0.24-2.23,0.69-3.05c0.4-0.75,0.78-1.43,1.23-1.83
				c0.08-0.05,0.2-0.09,0.3-0.14c0.27-0.34,0.72-0.58,1.19-0.82c0.43-0.23,0.88-0.52,1.42-0.56c0.15-0.02,0.37,0,0.55-0.03h0.09
				c0.26,0,0.53,0.09,0.61,0.26h-0.06c-0.23,0-0.52-0.06-0.81-0.06H20.1c-0.5,0.05-0.98,0.21-1.17,0.52h0.09
				c0.24,0,0.52-0.14,0.81-0.17c0.09-0.02,0.17-0.02,0.24-0.02c0.62,0,1.14,0.29,1.58,0.52c0.03-0.06,0.14-0.05,0.17-0.11v-0.06
				c0-0.27-0.34-0.21-0.41-0.44h0.03c0.29,0,0.5,0.2,0.66,0.37c0.64,0.7,0.91,1.95,1.02,3.12c0,0.03,0,0.05-0.02,0.05
				s-0.05-0.06-0.08-0.06c-0.2,0.26-0.29,0.66-0.52,0.88c0-0.02-0.02-0.05-0.02-0.06c0-0.05,0.03-0.08,0.03-0.11
				c0,0-0.02-0.02-0.02-0.03c-0.21,0.02-0.27,0.29-0.32,0.38c-0.02,0.02-0.03,0.02-0.05,0.02c-0.03,0-0.05-0.03-0.05-0.06
				c0-0.02,0-0.02,0-0.03c0-0.03,0-0.05-0.02-0.06c-0.17,0.03-0.32,0.09-0.35,0.27c-0.43-0.18-0.84-0.23-1.1-0.55
				c-0.17-0.21-0.23-0.49-0.34-0.75c-0.26-0.34-0.27-0.9-0.84-0.9h-0.08c-0.3,0-0.67,0.14-0.87,0.21c-0.81,0.33-1.74,1.45-2.06,2.21
				c-0.15,0.35-0.26,0.76-0.26,1.14c0,0.09,0,0.18,0.02,0.26c-0.03,0.06-0.05,0.14-0.05,0.21c0,0.27,0.17,0.66,0.17,0.94v0.05
				c0.24,0.3,0.47,0.64,0.72,0.94c0.44,0.12,0.82,0.41,1.34,0.41c0.47,0,1.17-0.24,1.57-0.41c1.37-0.56,2.9-1.77,3.8-2.73
				c0.2-0.23,0.46-0.43,0.66-0.68c0.18-0.24,1.91-1.91,2.15-2.09v0.02c0,0.3-1.92,1.82-1.94,2.22c0.15-0.05,1.28-1.38,1.55-1.41
				c-0.11,0.38-1.57,1.59-1.57,2.05c0,0.03-0.01,0.03-0.01,0.08c0.21-0.02,1.03-1.38,1.28-1.46l0.03,0.05
				c0,0.17-1.04,1.32-1.04,1.57c0,0.08,0.02,0.15,0.06,0.21c0.02,0.03,0.03,0.03,0.05,0.03c0.03,0,0.64-0.91,0.7-0.91h0.02
				c-0.03,0.08-0.5,0.91-0.5,0.98c0,0.24-0.37,0.72-0.37,0.98c0,0.06,0,0.14-0.03,0.23c-0.76,0.46-1.4,1.17-2.1,1.62V91.47z
				 M22.28,91.78c0-0.05-0.05-0.05-0.05-0.11v-0.02c0.09-0.03,0.21-0.15,0.3-0.15c0.05,0,0.08,0.02,0.11,0.08
				c-0.11,0.09-0.24,0.15-0.37,0.21V91.78z M26.57,85.13c-0.02-0.03-0.02-0.05-0.02-0.08c0-0.12,0.08-0.24,0.18-0.24
				c0.03,0,0.06,0.02,0.09,0.05C26.79,85,26.74,85.12,26.57,85.13z"/>
			<path class="st0" d="M33.67,93.2c-0.23,0-0.37-0.23-0.64-0.27c-0.12-0.46-1.24-0.81-1.45-1.14c0.29,0.05,0.76,0.39,1.05,0.45
				c-0.46-0.47-1.75-0.89-2.13-1.32h0.05c0.17,0,0.29,0.14,0.43,0.21c0.26,0.12,1.05,0.4,1.31,0.57c-0.15-0.26-1.2-0.51-1.39-0.78
				c0.05-0.02,0.08-0.02,0.12-0.02c0.29,0,1.17,0.58,1.41,0.58c0.05,0,0.11-0.02,0.17-0.05c0-0.38-0.2-0.66-0.27-0.98
				c-0.12-0.44-0.17-0.85-0.43-1.05c-0.3,0-0.59,0-0.93,0.02c-0.56,0.03-1.08,0.2-1.55,0.23c0.11-0.21,0.44-0.2,0.69-0.24
				c0.33-0.08,0.58-0.06,1.01-0.14c0.14-0.02,0.34-0.08,0.41-0.23c-0.09-0.09-0.2-0.12-0.37-0.12H31c-0.29,0.03-0.67,0.14-1.05,0.2
				c-0.62,0.09-1.14-0.02-1.34,0.4c0.05,0.15,0.3,0.09,0.43,0.14c-0.06,0.14-0.26,0.12-0.4,0.17l-0.43,0.14
				c-0.52,0.76-1.07,1.51-1.22,2.62c-0.34,0.06-0.59,0.18-0.9,0.27c-0.18-0.02-0.3-0.29-0.44-0.29c-0.05,0-0.11,0.03-0.15,0.09
				c-0.02-0.02-0.03-0.08-0.03-0.12c0-0.06,0.02-0.12,0.03-0.15c-0.11-0.18-0.21-0.32-0.3-0.49c0-0.05,0.02-0.08,0.03-0.11
				c-0.14-0.14-0.18-0.32-0.18-0.53c0-0.17,0.03-0.37,0.05-0.55h0.03c0.09,0,0.06,0.09,0.12,0.09c0.32-0.41,0.58-0.88,0.85-1.37
				c0.37-0.62,0.76-1.3,1.16-1.94c0.29-0.49,0.49-1.05,0.84-1.51v-0.14c0.2-0.06,0.11-0.43,0.3-0.43c0.02,0,0.05,0,0.08,0.02
				c-0.17,0.69-0.72,1.17-0.88,1.94h0.03c0.17,0,0.2-0.21,0.27-0.33c0.38-0.58,0.79-1.25,1.13-1.92c0.12-0.23,0.3-0.47,0.3-0.73
				c0-0.05,0-0.09-0.02-0.14h-0.05c-0.3,0-0.3,0.3-0.47,0.43c0-0.05-0.02-0.08-0.02-0.12c0-0.2,0.11-0.4,0.24-0.49v-0.05
				c0-0.33,0.38-0.7,0.38-0.91c0-0.05-0.09-0.18-0.09-0.18c0.02-0.09,0.15-0.14,0.15-0.24v-0.03c-0.02-0.11-0.12-0.09-0.2-0.14
				c0.06-0.14,0.17-0.14,0.27-0.21c0.17-0.12,0.29-0.35,0.47-0.47c0.12-0.08,0.3-0.09,0.43-0.15c0.11-0.06,0.2-0.18,0.32-0.21
				c0.06-0.02,0.12-0.03,0.18-0.03c0.26,0,0.5,0.15,0.67,0.33c0.05-0.02,0.08-0.03,0.12-0.03h0.03c0.08,0.43,0.55,0.75,0.59,1.1
				v0.05c0,0.06-0.02,0.14-0.02,0.2s0.06,0.14,0.06,0.21c-0.08,0.35-0.84,0.44-0.85,0.93c0.08,0.11,0.06,0.24,0.11,0.37
				c0.05,0.14,0.15,0.26,0.2,0.4c0.05,0.12,0.03,0.26,0.08,0.37c0.12,0.3,0.3,0.62,0.41,0.96c0.09,0.29,0.17,0.56,0.29,0.84
				c0.08,0.18,0.21,0.32,0.23,0.55c0,0.08,0.09,0.06,0.11,0.12c0.14,0.53,0.26,1.13,0.52,1.43c0.05,0.49,0.3,0.75,0.37,1.23
				c-0.37-0.2-0.3-0.84-0.69-1.05c-0.05,0.03-0.06,0.08-0.06,0.12s0.02,0.09,0.02,0.14c0.03,0.23,0.18,0.49,0.34,0.78
				c0.14,0.27,0.2,0.56,0.32,0.73c0.06,0.09,0.14,0.17,0.23,0.17c0.03,0,0.06-0.02,0.09-0.03c-0.02-0.26-0.17-0.37-0.2-0.59
				c0.43,0.24,0.64,0.76,0.64,1.34c0,0.15-0.02,0.3-0.05,0.46c-0.14,0.08-0.15,0.26-0.23,0.37c-0.11,0.12-0.4,0.29-0.53,0.3H33.67z
				 M30.81,85.35c-0.38,0.43-0.66,1.01-0.88,1.58c-0.17,0.24-0.37,0.46-0.47,0.75c0.73-0.03,1.43-0.21,2.16-0.34
				C31.42,86.61,31.1,85.97,30.81,85.35z"/>
			<path class="st0" d="M43.02,91.58c-0.35,0.56-0.99,0.85-1.75,1.01v-0.03c0-0.21,0.29-0.15,0.34-0.32
				c-0.12-0.02-0.24-0.03-0.38-0.03c-0.43,0-0.91,0.09-1.39,0.12c-0.09,0-0.18,0.02-0.27,0.02h-0.3c-0.23,0-0.44,0.02-0.59,0.15
				c0.14,0.17,0.35,0.21,0.61,0.21c0.35,0,0.76-0.09,1.13-0.09c0.12,0,0.26,0.02,0.37,0.05c-0.02,0.08-0.06,0.09-0.12,0.09h-0.15
				c-0.3,0.05-0.64,0.05-0.98,0.05h-0.67c-0.24,0-0.47,0.02-0.72,0.02H37.8c-0.32,0-0.64,0-0.88,0.11c-0.09-0.03-0.2-0.05-0.3-0.05
				c-0.12,0-0.23,0.03-0.27,0.14c-0.88-0.18-0.84-1.31-1.33-1.9c0.08-0.02,0.12-0.12,0.12-0.21c0-0.08-0.03-0.15-0.14-0.15h-0.06
				c0.4-0.49,0.87-0.87,1.08-1.52c0.03,0.03,0.05,0.08,0.05,0.12c0,0.09-0.05,0.21-0.05,0.3c0,0.06,0.03,0.11,0.09,0.12h0.02
				c0.12,0,0.24-0.32,0.3-0.5c0.18-0.53,0.43-1.31,0.44-1.8c-0.37,0.11-0.3,0.64-0.52,0.91c-0.06-0.02-0.09-0.05-0.09-0.08
				c0-0.08,0.09-0.18,0.12-0.23c0.03-0.37,0.14-0.79,0.2-1.08v-0.02c0-0.06,0.11-0.03,0.11-0.09V86.6c0-0.09,0.02-0.18,0.03-0.24
				c-0.18-0.24-0.64-0.21-0.89-0.34c-0.05-0.24,0.1-0.55-0.08-0.66c-0.12,0.02-0.77,0.63-0.92,0.65c0,0-0.02-0.02-0.02-0.03
				c0-0.06,0.67-0.61,0.73-0.69c-0.03-0.02-0.08-0.02-0.11-0.02c-0.24,0-0.88,0.67-1.11,0.73c0.05-0.18,0.7-0.72,0.82-0.83l0.4-0.29
				h-0.08c-0.52,0-1.28,0.99-1.74,1.16c0.21-0.32,1.18-1.2,1.53-1.44c0.18-0.12,0.41-0.24,0.41-0.46c0-0.06-0.02-0.14-0.06-0.21
				c0.21-0.21,0.37-0.49,0.55-0.7c0.09,0.05,0.18,0.06,0.27,0.06c0.4,0,0.76-0.29,1.11-0.29c0.08,0,0.14,0.02,0.21,0.05
				c-0.15,0.14-0.61,0.21-0.61,0.46c0,0.05,0.02,0.09,0.05,0.14c1.01-0.46,1.92-1.01,3.05-1.33c-0.05-0.08-0.12-0.11-0.2-0.11
				c-0.11,0-0.21,0.05-0.3,0.06c-0.18,0.03-0.34,0.08-0.5,0.14c-0.34,0.11-0.66,0.26-0.96,0.29c0.12-0.14,0.35-0.23,0.55-0.32
				c0.56-0.24,1.49-0.5,2.33-0.5c0.61,0,1.17,0.12,1.54,0.49c0.2,0.2,0.27,0.44,0.5,0.66c0.14,0.32,0.18,0.76,0.26,0.99v0.18
				c0,0.41-0.08,0.69-0.23,0.99c-0.17,0.14-0.21,0.41-0.41,0.52v0.03c0,0.15-0.18,0.18-0.18,0.3v0.03c-0.41,0.2-0.64,0.53-0.93,0.82
				l-0.26,0.09c0.18-0.46,0.66-0.61,0.87-1.04c-0.46,0.08-0.85,0.5-1.28,0.82c-0.18,0.14-0.33,0.23-0.33,0.47v0.09
				c1.13,0.64,2.38,1.17,2.68,2.64c-0.08,0.43-0.02,1.11-0.32,1.37v0.03c0,0.09-0.05,0.11-0.05,0.18V91.58z M36.24,88.87
				c-0.03,0-0.06-0.02-0.09-0.02v-0.08c0-0.12,0.06-0.18,0.11-0.26c0.05,0.03,0.09,0.06,0.11,0.11v0.03c0,0.09-0.08,0.11-0.08,0.2
				v0.02H36.24z M42.21,90.47c0-0.49-0.55-0.82-0.93-1.01c-0.11-0.06-0.2-0.15-0.29-0.2c-0.21-0.08-0.53-0.12-0.84-0.12
				c-0.23,0-0.46,0.03-0.61,0.09c-0.32,0.12-0.49,0.43-0.88,0.43h-0.09c-0.24-0.44-0.69-0.64-0.82-1.16
				c-0.18,0.15-0.14,0.38-0.17,0.59c-0.03,0.12-0.12,0.21-0.14,0.37c-0.02,0.09-0.03,0.2-0.03,0.29c0,0.11,0.02,0.2,0.02,0.3
				c-0.15,0.24-0.24,0.55-0.29,0.87c0.98,0.26,2.36,0.21,3.52,0.26c0.15,0,0.3,0.06,0.46,0.06h0.06c0.55,0,1.04-0.21,1.04-0.73
				V90.47z M40.58,85.67c0.56-0.44,1.22-0.88,1.52-1.62c-0.11-0.15-0.35-0.18-0.61-0.18c-0.12,0-0.24,0.02-0.35,0.02
				c-1.13,0.08-2.27,0.55-2.86,1.17c0.14,0.43,0.52,0.87,0.52,1.42c0,0.05-0.02,0.11-0.02,0.15c-0.02,0.09-0.08,0.21-0.08,0.27v0.03
				c0.4-0.03,0.69-0.37,0.98-0.58L40.58,85.67z"/>
			<path class="st0" d="M51.6,91.47c0-0.32,0.29-0.34,0.37-0.55h-0.11c-0.43,0-0.81,0.33-1.19,0.55c-0.18,0.11-0.38,0.26-0.59,0.37
				c-0.35,0.17-0.73,0.2-0.94,0.53c0.03,0.08,0.06,0.11,0.11,0.11c0.08,0,0.17-0.06,0.24-0.09c0.43-0.15,0.73-0.34,1.17-0.34
				c-0.35,0.27-0.75,0.37-1.16,0.56c-0.35,0.15-0.53,0.27-0.96,0.37c-0.32,0.08-0.67,0.11-1.02,0.11c-0.41,0-0.81-0.06-1.13-0.21
				c-0.37-0.18-0.66-0.55-0.98-0.81c-0.11-0.08-0.23-0.09-0.3-0.18c-0.14-0.14-0.17-0.34-0.38-0.44c-0.14-0.35-0.26-0.69-0.46-0.93
				v-0.15c-0.03-0.06-0.09-0.08-0.14-0.14c-0.18-0.59-0.27-1.25-0.27-1.92c0-1.1,0.24-2.23,0.69-3.05c0.4-0.75,0.78-1.43,1.23-1.83
				c0.08-0.05,0.2-0.09,0.3-0.14c0.27-0.34,0.72-0.58,1.19-0.82c0.43-0.23,0.88-0.52,1.42-0.56c0.15-0.02,0.37,0,0.55-0.03h0.09
				c0.26,0,0.53,0.09,0.61,0.26h-0.06c-0.23,0-0.52-0.06-0.81-0.06h-0.08c-0.5,0.05-0.98,0.21-1.17,0.52h0.09
				c0.24,0,0.52-0.14,0.81-0.17c0.09-0.02,0.17-0.02,0.24-0.02c0.62,0,1.14,0.29,1.58,0.52c0.03-0.06,0.14-0.05,0.17-0.11v-0.06
				c0-0.27-0.34-0.21-0.41-0.44h0.03c0.29,0,0.5,0.2,0.66,0.37c0.64,0.7,0.91,1.95,1.02,3.12c0,0.03,0,0.05-0.02,0.05
				s-0.05-0.06-0.08-0.06c-0.2,0.26-0.29,0.66-0.52,0.88c0-0.02-0.02-0.05-0.02-0.06c0-0.05,0.03-0.08,0.03-0.11
				c0,0-0.02-0.02-0.02-0.03c-0.21,0.02-0.27,0.29-0.32,0.38c-0.02,0.02-0.03,0.02-0.05,0.02c-0.03,0-0.05-0.03-0.05-0.06
				c0-0.02,0-0.02,0-0.03c0-0.03,0-0.05-0.02-0.06c-0.17,0.03-0.32,0.09-0.35,0.27c-0.43-0.18-0.84-0.23-1.1-0.55
				c-0.17-0.21-0.23-0.49-0.34-0.75c-0.26-0.34-0.27-0.9-0.84-0.9h-0.08c-0.3,0-0.67,0.14-0.87,0.21c-0.81,0.33-1.74,1.45-2.06,2.21
				c-0.15,0.35-0.26,0.76-0.26,1.14c0,0.09,0,0.18,0.02,0.26c-0.03,0.06-0.05,0.14-0.05,0.21c0,0.27,0.17,0.66,0.17,0.94v0.05
				c0.24,0.3,0.47,0.64,0.72,0.94c0.44,0.12,0.82,0.41,1.34,0.41c0.47,0,1.17-0.24,1.57-0.41c1.37-0.56,2.53-1.58,3.43-2.54
				c0.2-0.23,0.41-0.46,0.61-0.7c0.18-0.24,0.85-1.2,1.09-1.39v0.02c0,0.3-0.88,1.08-0.89,1.48c0.15-0.05,0.65-0.85,0.93-0.88
				c-0.11,0.38-0.9,1.08-0.9,1.53c0,0.03,0.02,0.08,0.02,0.12c0.21-0.02,0.5-0.85,0.74-0.93v0.05c0,0.17-0.47,0.79-0.47,1.04
				c0,0.08,0.02,0.15,0.06,0.21c0.02,0.03,0.03,0.03,0.05,0.03c0.03,0,0.36-0.62,0.42-0.62h0.02c-0.03,0.08-0.25,0.63-0.25,0.7
				c0,0.24,0.02,0.52,0.02,0.78c0,0.06,0,0.14-0.03,0.23c-0.76,0.46-1.4,1.17-2.1,1.62V91.47z M51.17,91.78
				c0-0.05-0.05-0.05-0.05-0.11v-0.02c0.09-0.03,0.21-0.15,0.3-0.15c0.05,0,0.08,0.02,0.11,0.08c-0.11,0.09-0.24,0.15-0.37,0.21
				V91.78z"/>
			<path class="st0" d="M55.21,85.3c0-0.15,0.15-0.15,0.27-0.17c0.06-0.12,0.11-0.24,0.27-0.26c0.03-0.23,0.29-0.34,0.29-0.5v-0.02
				c-0.38,0.46-0.88,0.9-1.65,0.9c0.46-0.34,1.16-0.41,1.31-1.05c-0.18,0-0.34,0.21-0.52,0.26c-0.05,0.02-0.11,0.02-0.15,0.02
				c-0.56,0-1.01-0.52-1.07-0.99c-0.02-0.14-0.03-0.29-0.03-0.44c0-0.32,0.05-0.64,0.21-0.79c0.05-0.03,0.15-0.08,0.21-0.12
				c0.17-0.11,0.3-0.27,0.46-0.34c0.08-0.05,0.29-0.14,0.46-0.14c0.09,0,0.17,0.03,0.2,0.11c-0.2,0.14-0.55,0.11-0.64,0.35
				c0.02,0.09,0.06,0.14,0.12,0.2c0.11-0.06,0.24-0.09,0.37-0.09c0.21,0,0.41,0.08,0.55,0.21c0.05-0.02,0.08-0.06,0.12-0.08
				c0-0.17-0.14-0.2-0.14-0.37c0.4,0.06,0.44,0.47,0.59,0.85c0.08,0.2,0.17,0.38,0.18,0.55v0.14c0,0.93-0.85,1.63-1.43,1.81V85.3z"
				/>
			<path class="st0" d="M58.81,92.53c-0.15,0-0.32-0.02-0.47-0.02c-0.23,0-0.41,0.03-0.5,0.23c0.14,0.29,0.76,0.03,0.96,0.32
				c-0.23,0.03-0.5,0.06-0.78,0.06c-0.66,0-1.31-0.17-1.31-0.76c0-0.08,0.02-0.15,0.03-0.23c0-0.06-0.05-0.09-0.09-0.12
				c0.03-0.08,0.08-0.14,0.09-0.21c-0.06-0.06-0.12-0.14-0.12-0.23c0-0.11-0.35-0.12-0.35-0.24v-0.05c0-0.08-0.06-0.15-0.08-0.23
				c0-0.35,0.21-0.94,0.41-1.07c0.09-0.06,0.66-0.2,0.76-0.23c0.69-0.21,1.99-1.01,2.79-1.02c-0.53,0.21-1.68,0.64-2.08,1.07
				c0.41-0.08,1.19-0.64,1.71-0.67c-0.14,0.14-0.81,0.4-1,0.5c-0.15,0.09-0.41,0.14-0.47,0.35h0.03c0.11,0,0.49-0.27,0.61-0.27
				c0.03,0,0.05,0.02,0.08,0.03c-0.06,0.09-0.44,0.24-0.44,0.38v0.02c0,0.21,0.21,0.26,0.46,0.26c0.26,0,0.56-0.05,0.73-0.06
				c1.3-0.11,3.11-0.02,4.04-0.4c-0.18-0.27-0.52-0.4-0.81-0.52c-0.29-0.14-0.62-0.27-0.93-0.4c-0.59-0.21-1.13-0.55-1.68-0.9
				c-0.5-0.32-1.07-0.64-1.54-1.1c-0.56-0.53-0.99-1.16-0.99-2.19v-0.11c0-0.76,0.44-1.62,0.91-2.09c0.62-0.64,1.48-0.99,2.44-0.99
				c0.37,0,0.73,0.05,1.11,0.15c0.32,0.09,0.53,0.24,0.85,0.41c0.23,0.11,0.47,0.14,0.56,0.46c-0.4-0.06-0.5-0.37-0.93-0.37h-0.06
				c0.03,0.21,0.27,0.29,0.43,0.41c0.15,0.12,0.33,0.27,0.47,0.43c0.21,0.23,0.35,0.56,0.56,0.81c0.15,0.18,0.33,0.4,0.58,0.43
				c0-0.03,0.02-0.06,0.02-0.09c0-0.3-0.34-0.43-0.34-0.75v-0.05h0.02c0.14,0,0.27,0.27,0.38,0.43c0.12,0.2,0.27,0.4,0.37,0.58h0.18
				c-0.06,0.12-0.12,0.27-0.12,0.47h0.02c0.02,0,0.05-0.03,0.11-0.03c0.02,0,0.03,0,0.05,0.02v0.02c0,0.08-0.11,0.11-0.14,0.14
				c-0.06,0.09-0.26,0.44-0.27,0.55c0,0.03-0.02,0.05-0.02,0.08c0,0.08,0.03,0.15,0.03,0.23c0,0.03-0.02,0.06-0.02,0.09
				c-0.09,0.4-0.69,0.55-0.7,0.96c-0.06-0.02-0.06-0.06-0.06-0.12v-0.06h-0.09c-0.46,0-0.9-0.21-1.07-0.53
				c-0.18-0.37-0.23-0.75-0.46-1.05c-0.4-0.52-0.99-1.05-1.74-1.05h-0.11c-0.61,0-1.43,0.34-1.43,1.16c0,0.06,0,0.14,0.02,0.21
				c0.08,0.44,0.66,0.93,1.04,1.23c0.41,0.32,0.85,0.53,1.31,0.78c0.43,0.23,0.88,0.49,1.33,0.62c0.49,0.17,0.98,0.46,1.31,0.75
				c0.43,0.38,0.75,0.96,0.75,1.6c0,0.14-0.02,0.27-0.05,0.41c-0.08,0.08-0.18,0.18-0.18,0.34c0,0.03,0,0.06,0.02,0.09
				c-0.18,0.08-0.32,0.24-0.49,0.35c-0.17,0.11-0.37,0.17-0.5,0.32c-1.08,0.15-2.22,0.61-3.38,0.82c-0.29,0.05-0.56,0.14-0.85,0.14
				c-0.08,0-0.14,0-0.21-0.02c0.12-0.14,0.32-0.21,0.5-0.24c0.66-0.14,1.4-0.21,1.9-0.53c-0.11-0.03-0.21-0.05-0.32-0.05
				c-0.37,0-0.75,0.15-1.14,0.2c-0.52,0.05-1.07,0.15-1.57,0.15H58.81z M64.13,83.19c0-0.09,0.03-0.12,0.06-0.12
				c0.09,0,0.24,0.18,0.32,0.26c-0.02,0.08-0.06,0.11-0.12,0.11c-0.11,0-0.26-0.14-0.26-0.23V83.19z"/>
		</g>
		<path class="st0" d="M54,86.03c-0.02-0.03-0.02-0.05-0.02-0.08c0-0.12,0.08-0.24,0.18-0.24c0.03,0,0.06,0.02,0.09,0.05
			C54.21,85.9,54.16,86.02,54,86.03z"/>
		<path class="st0" d="M31.45,91.74c-0.08,0-0.14-0.03-0.17-0.09c0.02-0.06,0.05-0.09,0.09-0.09c0.09,0,0.2,0.08,0.21,0.12
			C31.56,91.72,31.51,91.74,31.45,91.74z"/>
		<path class="st0" d="M58.39,89.66c0-0.11,0.09-0.17,0.18-0.17c0.03,0,0.08,0.02,0.11,0.05c-0.03,0.12-0.15,0.17-0.29,0.17V89.66z"
			/>
	</g>
	<g>
		<path class="st1" d="M23.22,46.14c6.03-4.71-1.34-19.81-1.34-19.81s8.43,7.48,9.47,16.3c0.49,4.14-0.5,7.72-2.85,9.74
			c-2.62,2.26-6.9,2.77-10.48,1.89C10.46,52.4,2.95,42.57,0,32.6c0,0,3.13,5.13,7.52,9.06C12.07,45.71,18.19,50.07,23.22,46.14z"/>
		<path class="st1" d="M57.23,46.14c-6.03-4.71,1.34-19.81,1.34-19.81s-8.43,7.48-9.47,16.3c-0.49,4.14,0.5,7.72,2.85,9.74
			c2.62,2.26,6.9,2.77,10.48,1.89c7.57-1.87,15.08-11.7,18.03-21.67c0,0-3.13,5.13-7.52,9.06C68.39,45.71,62.26,50.07,57.23,46.14z"
			/>
		<g>
			<path class="st0" d="M40.21,43.2l-0.7-0.62c0,0,1.04,10.41-6.48,9.58c-8.37-0.92-9.17-10.79-9.17-10.79l-10.82-9.87
				c0,0,3.54,4.03,4.48,8.75l0.01,0c1.87,16.87,12.47,17.88,18.16,15.44C41.91,53.02,40.21,43.2,40.21,43.2z"/>
		</g>
		<g>
			<g>
				<path class="st1" d="M57.62,0c-7.6,30.22-16.31,29.78-17.41,29.59v-0.02c0,0-0.02,0.01-0.06,0.01
					c-0.04-0.01-0.06-0.01-0.06-0.01v0.02C39,29.78,30.29,30.22,22.69,0c0,0,1.09,37.49,17.41,37.66v0c0.02,0,0.04,0,0.06,0
					c0.02,0,0.04,0,0.06,0v0C56.53,37.49,57.62,0,57.62,0z"/>
				<path class="st0" d="M40.21,21.48c0,0-6.69,0.36-11.38-9.63c0,0,3.57,13.11,11.38,13.11c7.81,0,11.38-13.11,11.38-13.11
					C46.9,21.84,40.21,21.48,40.21,21.48z"/>
				<g>
					<path class="st1" d="M39.15,72.25c2.81-4.24,5.61-11.93,12.5-10.14s4.93,13.85,4.93,13.85s3.26-6.19,0.81-14.34
						c-2.45-8.15-9.64-9.13-13.95-4.89c0,0-1.69,1.64-2.96,3.67c-2.72,4.38-4.81,10.89-11.69,9.1c-6.88-1.79-4.93-13.85-4.93-13.85
						S20.59,61.85,23.04,70s9.64,9.13,13.95,4.89C36.99,74.89,38.2,73.82,39.15,72.25"/>
				</g>
				<path class="st0" d="M40.1,43.08"/>
				<path class="st0" d="M47.39,52.16c-6.36,0.7-6.6-6.65-6.52-8.92c2.8,0.06,14.2-0.65,25.1-15.02c3.42-4.51,5.07-10.15,5.07-10.15
					s-8.53,19.23-30.82,19.23c-22.29,0-30.82-19.23-30.82-19.23s1.64,5.64,5.07,10.15c10.9,14.37,22.3,15.08,25.1,15.02
					c0.08,2.27-0.15,9.62-6.52,8.92c-8.37-0.92-9.17-10.79-9.17-10.79l-10.82-9.87c0,0,3.54,4.03,4.48,8.75l0.01,0
					c1.87,16.87,12.47,17.88,18.16,15.44c2.91-1.25,4.08-4.07,4.51-6.72c0.42,2.65,1.59,5.47,4.51,6.72
					c5.7,2.44,16.29,1.44,18.16-15.44l0.01,0c0.94-4.72,4.48-8.75,4.48-8.75l-10.82,9.87C56.56,41.36,55.75,51.24,47.39,52.16z"/>
			</g>
			<g>
				<path class="st0" d="M51.5,64.81c0,0-2.94-6.19-11.17-6.19v2.36c0,0,2-0.15,4.45,0.44C46.97,61.94,49.5,62.74,51.5,64.81z"/>
				<path class="st0" d="M40.33,60.98c0,0-3.78-0.12-6.12,3.16l-2.8-2.42c2.76-3.1,8.93-3.1,8.93-3.1"/>
				<circle class="st0" cx="34.25" cy="64.45" r="3.98"/>
			</g>
		</g>
	</g>
</g>
<g>
	<g>
		<path class="st2" d="M112.87,76.53c-2.01,0.75-5.07,1.31-7.49,1.31c-13.4,0-15.6-13.2-12.92-24.42
			c2.53-10.62,11.19-23.91,24.59-23.91c10.93,0,16.15,10.5,13.05,23.51c-2.64,11.06-9.71,18.88-13.1,20.99l-0.88,0.56l7.74,5.71
			c8.36,5.43,15.33,5.22,18.44,5.22c2.38,0,5.93-0.71,9.41-2.07c0.3-0.1,0.56-0.25,0.75-0.25c0.23,0,0.36,0.2,0.3,0.45
			c-0.07,0.3-0.34,0.45-0.69,0.6c-3.09,1.46-8.77,3.54-15.31,3.34c-3.76-0.11-6.68-0.71-9.73-1.94c-2.51-1.01-5.17-2.29-8.08-4.47
			L112.87,76.53z M124.01,54.41c3.59-15.03-2.13-23.11-8.44-23.11c-5.99,0-13.82,7.09-17.12,20.92
			c-3.91,16.38,1.71,23.74,9.07,23.74C111.17,75.96,119.98,71.3,124.01,54.41z"/>
		<path class="st2" d="M138.16,30.07c-0.3-0.46-0.31-0.59-0.26-0.82c0.03-0.14,0.33-0.37,0.54-0.37c0.82,0,2.48,0.64,3.21,0.87
			c0.94,0.37,1.04,0.64,0.88,1.33c-0.67,2.79-4.64,7.37-6.92,9.6c-0.32,0.3-0.56,0.53-0.71,0.53c-0.12,0-0.19-0.06-0.15-0.24
			c0.02-0.09,0.1-0.22,0.35-0.58c1.12-1.6,2.61-4.32,3.28-7.16C138.75,31.71,138.43,30.48,138.16,30.07z"/>
	</g>
	<g>
		<path class="st2" d="M155.12,49.05L153,57.92h-0.22c0.02-2.79-0.36-4.68-1.14-5.69c-0.78-1-1.95-1.51-3.52-1.51
			c-1.2,0-2.24,0.35-3.14,1.05c-0.9,0.7-1.45,1.48-1.66,2.33c-0.25,1.06-0.2,1.97,0.17,2.73c0.34,0.78,1.22,1.6,2.63,2.47l3.25,2.02
			c3.02,1.88,4.16,4.35,3.42,7.42c-0.57,2.37-1.83,4.28-3.79,5.73c-1.96,1.45-3.94,2.18-5.93,2.18c-1.43,0-3-0.28-4.71-0.85
			c-0.52-0.19-0.96-0.28-1.31-0.28c-0.39,0-0.76,0.25-1.1,0.74h-0.22l2.22-9.3h0.22c-0.16,2.65,0.28,4.65,1.31,6
			c1.03,1.35,2.38,2.02,4.05,2.02c1.18,0,2.23-0.38,3.15-1.15c0.93-0.77,1.52-1.69,1.77-2.77c0.31-1.31,0.16-2.41-0.45-3.3
			c-0.62-0.89-2-2.02-4.14-3.38c-2.15-1.36-3.47-2.6-3.98-3.7c-0.51-1.08-0.57-2.45-0.17-4.09c0.51-2.14,1.6-3.93,3.26-5.37
			c1.67-1.44,3.55-2.16,5.65-2.16c0.92,0,1.99,0.22,3.2,0.65c0.8,0.28,1.35,0.43,1.64,0.43c0.27,0,0.5-0.07,0.69-0.2
			c0.19-0.13,0.43-0.43,0.75-0.88H155.12z"/>
		<path class="st2" d="M185.22,38.25c-0.27,0.3-0.82,0.71-1.24,0.87c-0.89,0.35-1.33,0.27-2.02-0.4c-0.34-0.34-0.54-0.85-0.95-1.93
			c-0.45-1.16-0.54-1.78-1.64-2.11c-0.62-0.19-1.54-0.21-2.21-0.04c-0.77,0.19-1.53,0.58-2.18,1.04c-0.66,0.46-1.37,1.34-1.84,2.31
			c-0.47,0.98-1.17,3.4-2.14,7.46l-1.19,4.99h6.04l-0.34,1.42h-6.04l-4.08,17.12c-0.58,2.43-0.71,3.96-0.38,4.61
			c0.43,0.83,1.18,1.25,2.23,1.25h3.62l-0.1,0.4h-16.98l0.1-0.4h2.54c0.68,0,1.35-0.19,2-0.57c0.65-0.38,1.16-0.89,1.53-1.54
			c0.37-0.64,0.77-1.9,1.22-3.75l4.08-17.12h-4.56l0.34-1.42h4.56l1.15-4.82c0.62-2.6,1.52-4.8,2.7-6.6
			c1.18-1.8,2.67-3.26,4.48-4.36c1.81-1.11,3.68-1.66,5.6-1.66c1.79,0,3.15,0.28,4.53,1.42c0.58,0.53,1.07,1.21,1.32,1.74
			C185.83,37.11,185.7,37.71,185.22,38.25z"/>
		<path class="st2" d="M188.22,49.05l-4.99,20.93c-0.39,1.63-0.54,2.72-0.46,3.26c0.08,0.54,0.3,0.94,0.66,1.21
			c0.35,0.27,1.83,0.4,2.94,0.4l-0.1,0.4H173.9l0.1-0.4c1.14,0,3.43-0.12,3.88-0.37c0.45-0.25,0.86-0.65,1.23-1.22
			c0.37-0.57,0.74-1.66,1.13-3.27l2.5-10.5c0.67-2.82,1.09-4.88,1.13-5.72c0.02-0.61-0.06-1.03-0.26-1.26
			c-0.2-0.24-0.52-0.36-0.96-0.36c-0.48,0-1.21,0.2-1.96,0.48l-0.16-0.39l6.58-3.18H188.22z M188.31,41.66
			c0.72,0,1.26,0.28,1.63,0.84c0.37,0.56,0.46,1.24,0.27,2.03c-0.19,0.8-0.6,1.48-1.24,2.05c-0.64,0.57-1.32,0.85-2.03,0.85
			s-1.26-0.28-1.64-0.85c-0.38-0.57-0.47-1.25-0.28-2.05c0.19-0.8,0.6-1.47,1.24-2.03C186.89,41.94,187.57,41.66,188.31,41.66z"/>
		<path class="st2" d="M194.47,50.44h11.03l-0.1,0.43c-0.7,0-1.22,0.13-1.57,0.4c-0.34,0.27-0.57,0.62-0.67,1.05
			c-0.11,0.46,0.02,1.16,0.39,2.1c0.11,0.3,0.28,0.78,0.51,1.42l0.96,2.96l2.62-2.96c1.68-1.88,2.57-3.06,2.69-3.55
			c0.09-0.4,0.03-0.73-0.2-1.01c-0.22-0.27-0.66-0.41-1.31-0.41l0.1-0.43h7.93l-0.1,0.43c-0.85,0.06-1.64,0.31-2.36,0.77
			c-0.99,0.64-2.47,2.05-4.43,4.21l-4.33,4.75l3.61,9.33c0.89,2.29,1.58,3.67,2.08,4.14c0.5,0.46,1.98,0.72,2.94,0.78l-0.1,0.4
			h-12.55l0.1-0.4c0.77,0,2.16-0.19,2.67-0.57c0.39-0.27,0.63-0.62,0.74-1.05c0.1-0.44-0.18-1.54-0.85-3.3l-2.1-5.57l-5.09,5.57
			c-1.57,1.72-2.4,2.75-2.47,3.07c-0.11,0.46-0.01,0.87,0.28,1.24c0.3,0.37,1.57,0.57,2.33,0.61l-0.1,0.4h-9.14l0.1-0.4
			c0.64-0.09,1.98-0.33,2.53-0.71c0.78-0.55,2.21-1.95,4.28-4.21l6.64-7.25l-2.74-7.16c-0.77-2.05-1.44-3.33-2.01-3.85
			c-0.57-0.52-1.37-0.78-2.41-0.78L194.47,50.44z"/>
	</g>
	<path class="st2" d="M152.18,83.25c0,0,5.58-2.14,12.92-7.6c0,0-5.1,4.79-12.65,8.38"/>
</g>
</svg>
