<svg xmlns="http://www.w3.org/2000/svg" viewBox="0 0 291.01 245.07"><defs><style>.cls-1{fill:#002a41;}.cls-2{fill:#0071b5;}</style></defs><title>backbone-js-logo</title><g id="Layer_2" data-name="Layer 2"><g id="design"><path class="cls-1" d="M0,201.45H9.51c4.31,0,7.48.76,9.51,2.16s3,3.68,3,6.59a7.2,7.2,0,0,1-1.9,5.07,8.8,8.8,0,0,1-5.33,2.54v.13a10.44,10.44,0,0,1,6.09,2.54c1.39,1.39,1.9,3.17,1.9,5.58a9.11,9.11,0,0,1-3.17,7.35c-2.16,1.78-5.07,2.54-9,2.54H0V201.45Zm2.41,15.47H10c3.3,0,5.58-.51,7.1-1.65a5.89,5.89,0,0,0,2.28-5.07,5.48,5.48,0,0,0-2.54-5.07,14.53,14.53,0,0,0-7.48-1.65H2.28v13.44Zm0,2.16v15h8.24c6.47,0,9.64-2.54,9.64-7.86,0-4.82-3.42-7.1-10.27-7.1Z"/><path class="cls-1" d="M47.17,223.89H33.1l-4.82,12.3H25.61l13.95-35h1.52l13.69,35H52.12l-4.95-12.3ZM34,221.74H46.41l-4.69-12.55c-.38-1-.89-2.41-1.39-4.06a25.16,25.16,0,0,1-1.39,4.06L34,221.74Z"/><path class="cls-1" d="M74.56,203.1a13.19,13.19,0,0,0-10.27,4.18c-2.54,2.79-3.8,6.59-3.8,11.54s1.14,8.75,3.55,11.54,5.83,4.06,10.14,4.06a26.43,26.43,0,0,0,8-1.14v2.16a24.5,24.5,0,0,1-8.62,1.14A15.08,15.08,0,0,1,62,231.88c-2.79-3.17-4.18-7.48-4.18-13.19a20.42,20.42,0,0,1,2-9.38A15.64,15.64,0,0,1,65.68,203a16.61,16.61,0,0,1,8.75-2.16,21.39,21.39,0,0,1,9.13,1.9l-1,2.28a17.64,17.64,0,0,0-8-1.9Z"/><path class="cls-1" d="M113.36,236.19h-2.92L97.13,217.81l-4.56,4.06v14.2H90.16V201.45h2.41v18.13l3.8-3.8,13.57-14.33h3L98.78,216l14.58,20.16Z"/><path class="cls-1" d="M118.31,201.45h9.51c4.31,0,7.48.76,9.51,2.16s3,3.68,3,6.59a7.2,7.2,0,0,1-1.9,5.07,8.8,8.8,0,0,1-5.33,2.54v.13a10.44,10.44,0,0,1,6.09,2.54c1.39,1.39,1.9,3.17,1.9,5.58A9.11,9.11,0,0,1,138,233.4c-2.16,1.78-5.07,2.54-9,2.54H118.31V201.45Zm2.54,15.47h7.61c3.3,0,5.58-.51,7.1-1.65a5.89,5.89,0,0,0,2.28-5.07,5.48,5.48,0,0,0-2.54-5.07,14.53,14.53,0,0,0-7.48-1.65h-7.1v13.44Zm0,2.16v15h8.24c6.47,0,9.64-2.54,9.64-7.86,0-4.82-3.42-7.1-10.27-7.1Z"/><path class="cls-1" d="M178.16,218.82c0,5.58-1.39,9.89-4.06,13.06s-6.59,4.82-11.41,4.82a14.47,14.47,0,0,1-11.41-4.82c-2.79-3.17-4.06-7.61-4.06-13.19s1.39-9.89,4.18-13.06a15.92,15.92,0,0,1,22.82,0c2.54,3.3,3.93,7.61,3.93,13.19Zm-28.4,0c0,4.95,1.14,8.75,3.3,11.54s5.45,4.06,9.51,4.06,7.35-1.39,9.64-4.06,3.3-6.59,3.3-11.54-1.14-8.88-3.3-11.54-5.33-4.06-9.51-4.06-7.35,1.39-9.51,4.06c-2.41,2.66-3.42,6.59-3.42,11.54Z"/><path class="cls-1" d="M211.38,236.19H209L188.3,205.25h-.13c.13,3.68.25,6.47.25,8.24v22.57H186V201.45h2.41l20.67,30.81h.13c-.13-2.79-.25-5.58-.25-8.12v-22.7h2.41v34.74Z"/><path class="cls-1" d="M240.17,236.19h-19V201.45h19v2.28H223.55v13.06h15.72v2.28H223.55v15h16.61v2.16Z"/><path class="cls-1" d="M247.14,234.42c0-1.65.63-2.41,1.9-2.41s1.9.76,1.9,2.41-.63,2.41-1.9,2.41-1.9-1-1.9-2.41Z"/><path class="cls-1" d="M254.11,245.07a9.36,9.36,0,0,1-3.55-.63v-2.16a12,12,0,0,0,3.55.51c3.8,0,5.83-2.16,5.83-6.34v-35h2.41v34.74c-.13,5.83-2.92,8.88-8.24,8.88Z"/><path class="cls-1" d="M291,227.19a8.43,8.43,0,0,1-3.17,6.85,13.3,13.3,0,0,1-8.5,2.54,27.48,27.48,0,0,1-9.76-1.39v-2.41a23.26,23.26,0,0,0,9.51,1.65,11.51,11.51,0,0,0,6.85-1.9,6.42,6.42,0,0,0,2.54-5.07,5.34,5.34,0,0,0-.89-3.3,8.32,8.32,0,0,0-2.66-2.41,31.23,31.23,0,0,0-5.58-2.41c-3.55-1.27-6.09-2.54-7.35-3.93a8.22,8.22,0,0,1-2-5.71,7.86,7.86,0,0,1,3-6.34,12.12,12.12,0,0,1,7.86-2.41,22.82,22.82,0,0,1,9.26,1.9l-.89,2.16a22.19,22.19,0,0,0-8.24-1.9,9.92,9.92,0,0,0-6.09,1.78,5.73,5.73,0,0,0-2.28,4.82,7.39,7.39,0,0,0,.63,3.17,6.55,6.55,0,0,0,2.28,2.28,42.73,42.73,0,0,0,5.45,2.41,25.31,25.31,0,0,1,6.09,2.79,8.71,8.71,0,0,1,3,3,6.77,6.77,0,0,1,.89,3.8Z"/><path class="cls-1" d="M76,0V91.95l68.46,39V104.51L98.87,78.39v-41L144.51,63.5V39L76,0Z"/><path class="cls-2" d="M212.64,0V91.95l-68.46,39V104.51l45.64-26.13v-41L144.18,63.5V39L212.64,0Z"/><path class="cls-2" d="M76,170V78.05l68.46-39V65.49L98.87,91.61v39l45.64-26.13V131L76,170Z"/><path class="cls-1" d="M212.64,170V78.05L144.18,39V65.49l45.64,26.13v39l-45.64-26.13V131l68.46,39Z"/></g></g></svg>