<svg xmlns="http://www.w3.org/2000/svg" viewBox="0 0 365.39 88.36"><defs><style>.cls-1{fill:#e42e16;}</style></defs><title>knockout-logo</title><g id="Layer_2" data-name="Layer 2"><g id="design"><path class="cls-1" d="M39.21,44.4l-8.4,20.84-1.76,4.37a14.31,14.31,0,0,1-3,4.62,6.94,6.94,0,0,1-5.27,2.16,5.21,5.21,0,0,1-5.15-3.46,6.74,6.74,0,0,1,.06-3.8,56.72,56.72,0,0,1,2.23-6.05c4.19-10.5,8.44-21,12.59-31.5A29.7,29.7,0,0,0,32,26a5.89,5.89,0,0,0-5.39-6.7c-6.11-.43-12.06,4.07-13.56,10.28a10.88,10.88,0,0,0-.11,5.13c.6,2.49,2.35,4,4.56,5.09a26.54,26.54,0,0,1,3.23,1.65,4.17,4.17,0,0,1,1.69,4.82,7,7,0,0,1-5.92,5.07C10.45,52,6.27,49.14,3,44.37A18.34,18.34,0,0,1,.14,35.82,24.59,24.59,0,0,1,2.57,22.44,28.2,28.2,0,0,1,10,13.1,24.28,24.28,0,0,1,21.85,7.36c5.39-.89,10.73-.7,15.56,2.24C41.36,12,44.36,15.29,45.25,20a20.27,20.27,0,0,1-.59,10c-.76,2.39-1.68,4.72-2.52,7.08a1.15,1.15,0,0,1-.38.61c1-.87,2-1.68,2.93-2.62,3.48-3.63,6.92-7.3,10.38-10.95,4-4.26,8.06-8.52,12.14-12.74a25.14,25.14,0,0,1,3.08-2.58A7.18,7.18,0,0,1,76,7.71c1.9.3,3.68,2.72,3.84,4.81a7.85,7.85,0,0,1-2.47,6C73,23.28,68.5,27.93,64.07,32.61Q58.64,38.33,53.18,44A1,1,0,0,0,53,45.26c1.07,2.79,2.07,5.61,3.1,8.42L61.7,69c.48,1.31.94,2.62,1.43,3.92.8,2.11,2.52,2.94,4.61,3.2a12,12,0,0,0,1.52,0H346.39a9.21,9.21,0,0,1,4.06.83,4,4,0,0,1,2.4,3.62,6.33,6.33,0,0,1-3.23,6.4,9.33,9.33,0,0,1-4.55,1.31c-.28,0-.56,0-.84,0H64.13a17.28,17.28,0,0,1-5.45-.87,8.3,8.3,0,0,1-5-4.73c-1.52-3.36-2.82-6.83-4.12-10.29-2.25-6-4.44-12-6.65-18-1.1-3-2.18-6-3.27-9C39.51,45.09,39.37,44.77,39.21,44.4Z"/><path class="cls-1" d="M212.74,38.83c.85-.64,1.69-1.29,2.54-1.92,2.85-2.12,5.73-4.21,8.56-6.36a8,8,0,0,1,6-1.5c1.45.17,3.13,2.25,3.23,4a5.53,5.53,0,0,1-1.54,4.47,51,51,0,0,1-4.07,3.54c-1.77,1.4-3.62,2.7-5.43,4.05-.16.12-.3.26-.47.41l2.08,3.3c1.59,2.51,3.2,5,4.76,7.52a27.64,27.64,0,0,1,1.31,2.49,4.28,4.28,0,0,1-.63,5,10.15,10.15,0,0,1-2.23,2,4.22,4.22,0,0,1-6.16-1.3q-4.6-7-9.17-13.93l-2.32-3.51-1.89,4.62q-2,5-4.1,10a9.07,9.07,0,0,1-2.72,3.43,5.9,5.9,0,0,1-6.27,1.08,4.35,4.35,0,0,1-2.76-5,60.42,60.42,0,0,1,2.25-6.37q10-25,20-50A7.88,7.88,0,0,1,218.48.29a5.59,5.59,0,0,1,6.69,2.77,5.36,5.36,0,0,1-.15,4.3q-6,15.1-12,30.17c-.16.39-.28.8-.41,1.2Z"/><path class="cls-1" d="M88.35,31.91c1.1-.66,2.15-1.32,3.22-1.94a12.6,12.6,0,0,1,9.06-1.43c5.62,1.2,9,6.08,7.24,11.84-.87,2.85-2.1,5.59-3.18,8.38-.73,1.89-1.48,3.78-2.21,5.67-.07.18-.12.38-.23.7.37,0,.66,0,.94,0,2.35.09,4.72.1,7.06.32a4,4,0,0,1,3.42,3.86c.15,3-1.17,4.81-4.15,6a7.48,7.48,0,0,1-2.58.45c-4.09,0-8.18,0-12.26,0a5.84,5.84,0,0,1-4.47-2.24,6,6,0,0,1-1-6.47c1.65-4.36,3.42-8.67,5.09-13a9.52,9.52,0,0,0,.58-2.5A2.39,2.39,0,0,0,92.82,39a5.74,5.74,0,0,0-5.18,1.58,12.15,12.15,0,0,0-3,4.36c-2.18,5.32-4.32,10.67-6.5,16A9.09,9.09,0,0,1,74,65.83c-2.62,1.35-5.35,1.11-7.35-1.26A3.18,3.18,0,0,1,66,62.93a9.89,9.89,0,0,1,.86-4.81C70.13,50,73.36,41.84,76.62,33.7a9.16,9.16,0,0,1,.86-1.77c2.16-3.16,4.79-3.52,8.29-2.49.73.21,1.29,1,1.89,1.59A6.74,6.74,0,0,1,88.35,31.91Z"/><path class="cls-1" d="M307.43,55.12c1.43,0,2.75-.05,4.06,0s2.88.23,4.31.4c2.14.26,3.19,2.64,2.93,4.4-.56,3.77-2.79,5.73-6.65,5.79s-7.77,0-11.65,0a3.68,3.68,0,0,1-1.88-.86A19.24,19.24,0,0,1,296.66,63c-.17.16-.45.41-.71.67a6.49,6.49,0,0,1-5,2.07c-2.84-.07-5.69,0-8.53,0a8.52,8.52,0,0,1-7.26-4.16,8.79,8.79,0,0,1-1-8c1.27-3.77,2.77-7.46,4.23-11.15q1.89-4.77,3.95-9.47a9.22,9.22,0,0,1,3.57-4c2.63-1.72,6.92-.27,7.78,2.72A6.82,6.82,0,0,1,293.2,36L287,51.72c-.06.16-.13.33-.18.5-.58,1.9.15,2.95,2.14,2.89a14.24,14.24,0,0,0,3.51-.46A6.88,6.88,0,0,0,297,50.18q3.08-7.77,6.26-15.51a11.84,11.84,0,0,1,1.79-3.08c1.41-1.68,3.13-2.86,5.53-2.6a4.94,4.94,0,0,1,2.58.67c2,1.4,2.74,3.17,2,5.47-1,2.88-2.06,5.72-3.16,8.55-1.38,3.54-2.83,7.06-4.24,10.58C307.63,54.52,307.55,54.78,307.43,55.12Z"/><path class="cls-1" d="M250.22,65.9c-2-.15-4-.27-6-.47a9.27,9.27,0,0,1-5.16-2.22,14.34,14.34,0,0,1-5.18-9.91,22.92,22.92,0,0,1,.83-9.33,23.7,23.7,0,0,1,7-10.42,19.51,19.51,0,0,1,10.34-5c6.65-1,12.55.44,16.71,6.26a15.12,15.12,0,0,1,2.66,9.43,24.78,24.78,0,0,1-6.31,16.17,14.2,14.2,0,0,1-7.58,4.82,41.15,41.15,0,0,1-5.74.52c-.53,0-1.07,0-1.6,0Zm-4.84-16.6c.09,2.23.41,4,2.16,5.06,2.46,1.48,7.2,1.43,9.5-1.56a12.63,12.63,0,0,0,2.89-7.61,6.69,6.69,0,0,0-.68-3.61c-1.75-3-5-3.69-8-1.87A12.11,12.11,0,0,0,245.38,49.3Z"/><path class="cls-1" d="M131.93,65.88c-1.92-.13-3.85-.22-5.76-.4-3.84-.38-6.5-2.55-8.54-5.69a14.81,14.81,0,0,1-2.26-7.33c-.56-9,3.26-15.78,10.44-20.81a18.91,18.91,0,0,1,11.88-3.31,16,16,0,0,1,8.17,2.25,14.38,14.38,0,0,1,6.77,9.68,21.56,21.56,0,0,1-.17,8.83,25.83,25.83,0,0,1-6,11.63,14.68,14.68,0,0,1-6.76,4.37,18.27,18.27,0,0,1-4,.62c-1.24.1-2.49,0-3.73,0Zm9.48-20.77c0-.43,0-.86,0-1.29A5.35,5.35,0,0,0,134.49,39c-4.58,1.33-8.3,7.51-7.39,12.25a4.36,4.36,0,0,0,2.51,3.41c2.68,1.17,6.82,1.07,9.23-2.12A11.79,11.79,0,0,0,141.41,45.11Z"/><path class="cls-1" d="M327.78,39.78a27.4,27.4,0,0,1-2.8-.4c-2.44-.6-3.42-2.26-3.11-4.73A6.24,6.24,0,0,1,328,29.06c.94,0,1.88-.14,2.82-.1a1.58,1.58,0,0,0,1.71-1.18c.74-1.94,1.53-3.86,2.26-5.81a11,11,0,0,1,2.87-4.33,5,5,0,0,1,3.07-1.48c1.7-.13,3.36-.26,4.78,1.1A4.51,4.51,0,0,1,347,21.63a30.29,30.29,0,0,1-2.49,6.51c-.08.18-.18.36-.35.71,1.17.07,2.25.08,3.31.22a5.21,5.21,0,0,1,1.93.57,4.15,4.15,0,0,1,2,4.74,6.39,6.39,0,0,1-6,5.14c-1.54.11-3.09.1-4.64.15h-.74L337,47.45l-3.07,7.68c1.05,0,2.08,0,3.11,0a40,40,0,0,1,4.47.32A3.83,3.83,0,0,1,344.82,58a5.75,5.75,0,0,1-.24,4,6,6,0,0,1-5.75,3.67c-4,.11-7.92.05-11.88,0a6.65,6.65,0,0,1-4.49-1.81,5.43,5.43,0,0,1-1.71-5.87c1-3.14,2.23-6.19,3.43-9.26,1.12-2.88,2.31-5.74,3.47-8.6C327.71,40.06,327.74,39.91,327.78,39.78Z"/><path class="cls-1" d="M175.3,65.74c-2.77,0-5.54,0-8.3,0a8.79,8.79,0,0,1-4.48-1.29,13.54,13.54,0,0,1-6.92-10c-1.4-8.82,1.52-16.07,8.29-21.81a17.85,17.85,0,0,1,13-4.23,13.12,13.12,0,0,1,5.62,1.41c4.31,2.29,6.14,5.93,6,10.69a8.62,8.62,0,0,1-2.61,6.29,5.66,5.66,0,0,1-7.08.3,2.76,2.76,0,0,1-1-2.07c-.11-1.39-.2-2.78-.3-4.17a2.43,2.43,0,0,0-1.86-2.05,5.69,5.69,0,0,0-5.14,1.48,11.83,11.83,0,0,0-4,8.68c0,4.06,1.71,5.26,4.6,5.86a16.74,16.74,0,0,0,3.16.34c3.48,0,7,0,10.44,0a7.25,7.25,0,0,1,4.5,1.34,3.75,3.75,0,0,1,1.28,3.61c-.37,4.05-3.85,5.6-6.77,5.64s-5.64,0-8.46,0Z"/><path class="cls-1" d="M351.94,60c-.11-3.38,3.23-6.86,7.42-6.52,3.28.26,6.14,3.6,6,7.21a6.86,6.86,0,0,1-7,6.39A6.71,6.71,0,0,1,351.94,60Z"/></g></g></svg>