<svg xmlns="http://www.w3.org/2000/svg" xmlns:xlink="http://www.w3.org/1999/xlink" viewBox="0 0 112.019 40.019" fill="#fff" fill-rule="evenodd" stroke="#000" stroke-linecap="round" stroke-linejoin="round"><use xlink:href="#A" x=".509" y=".509"/><symbol id="A" overflow="visible"><g stroke="none"><path d="M54.485 12.44l-.84-2.06h-4.457l-.84 2.06h-.842l3.448-8.4h.883l3.448 8.4zm-3.07-7.653L49.44 9.71h3.993zm5.13 7.653v-8.4H59.7c1.6 0 2.522 1.136 2.522 2.48s-.925 2.48-2.522 2.48h-2.44v3.5h-.715zm4.92-5.93c0-1.05-.757-1.808-1.85-1.808h-2.343V8.32h2.343c1.136 0 1.85-.757 1.85-1.808zm7.4 5.93l-.842-2.06h-4.457l-.842 2.06h-.84l3.45-8.4h.883l3.447 8.4zm-3.07-7.653L63.82 9.71h3.993zm4.33 3.45c0-2.608 1.892-4.374 4.248-4.374 1.345 0 2.355.59 3.07 1.472l-.59.377a3.17 3.17 0 0 0-2.481-1.219c-1.976 0-3.5 1.514-3.5 3.7s1.514 3.7 3.5 3.7a3.17 3.17 0 0 0 2.481-1.219l.59.377c-.757.925-1.724 1.514-3.07 1.514-2.396.043-4.248-1.724-4.248-4.33zM84.97 12.44V8.447h-5.34v3.993h-.716v-8.4h.715v3.743h5.34V4.03h.715v8.4zm2.807 0v-8.4h5.34v.672h-4.625v3.11h4.542v.672h-4.542v3.32h4.625v.672h-5.34zM46.875 26.528l1.472-2.103a5.56 5.56 0 0 0 4.036 1.724c1.514 0 2.186-.672 2.186-1.387 0-2.186-7.317-.672-7.317-5.425 0-2.103 1.808-3.87 4.793-3.87 2.017 0 3.7.59 4.96 1.766l-1.514 2.017c-1.02-.968-2.397-1.388-3.7-1.388-1.136 0-1.766.504-1.766 1.26 0 1.976 7.274.632 7.274 5.382 0 2.313-1.68 4.08-5.088 4.08-2.397-.084-4.164-.883-5.34-2.06zm14.968 1.765v-10.3h-3.71V15.65h10.092v2.343h-3.7v10.302zm7.065-6.316c0-3.826 2.775-6.56 6.644-6.56 3.826 0 6.602 2.733 6.602 6.56s-2.775 6.56-6.602 6.56c-3.87-.04-6.644-2.775-6.644-6.56zm10.47 0c0-2.355-1.514-4.163-3.826-4.163-2.355 0-3.87 1.767-3.87 4.163 0 2.355 1.514 4.163 3.87 4.163 2.313 0 3.826-1.808 3.826-4.163zm11.815 6.316l-2.48-4.5h-1.976v4.5h-2.692V15.637h5.93c2.65 0 4.28 1.724 4.28 4.08 0 2.228-1.43 3.448-2.775 3.742l2.86 4.836zm.306-8.62c0-1.05-.8-1.68-1.892-1.68h-2.87V21.4h2.86c1.05 0 1.892-.632 1.892-1.724zm15.79 8.62V19.17l-3.574 9.125h-1.166l-3.566-9.134v9.125h-2.692V15.628h3.785l3.07 7.905 3.07-7.905H110v12.657z" fill="#3c3c3b" fill-rule="nonzero"/><path d="M28.897 20.883h-3.673L15.2 28.56h11.685L13.957 38.828h3.59l15.94-12.353H21.72z" fill="#eea852"/><path d="M14.02 13.817h-3.606L0 21.896l13.352.066c6.208 0 12.617-2.302 12.617-8.112s-6.476-9.58-17.357-5.576c-.733.8-3.87 3.74-4.406 4.274 10.347-5.208 19.458-4.94 19.458 1.27 0 5.876-9.38 5.876-10.314 5.876H6.533z" fill="#3da0ca"/><path d="M8.6 8.275c-.734.8-3.87 3.74-4.406 4.274 2.31-1.16 4.56-2.053 6.66-2.664 1.563-2.06 5.76-7.684 11.7-7.684 6.342 0 8.478 3.74 8.478 5.942 0 2.404-1.803 4.208-1.803 4.208s2.737.132 4.072.132 5.14.4 5.14 4.073-4.34 4.207-5.807 4.207H25.36l-2.87 2.272 9.814.066c4.406 0 8.478-2.204 8.478-6.543s-3.74-6.276-7.6-6.276c.4-.667.534-1.324.534-2.136S32.38 0 22.423 0C16.005 0 12.068 5.063 8.605 8.28z" fill="#2c6ba3"/><path d="M25.352 20.766h3.704l-2.954 2.302-3.67-.036z" fill="#928680"/><path d="M10.855 9.885l-.068.02c-1.503.49-4.717 1.82-6.59 2.644L8.6 8.275c1.662-.61 3.222-1.042 4.672-1.31-1.08 1.143-1.897 2.24-2.42 2.92z" fill="#3288ba"/></g></symbol></svg>