<svg xmlns="http://www.w3.org/2000/svg" xmlns:xlink="http://www.w3.org/1999/xlink" viewBox="0 0 167.73 169.9"><defs><style>.cls-1{fill:#465154;}.cls-2{fill:url(#linear-gradient);}.cls-3{fill:#50e6ff;}.cls-4{fill:#32bedd;}</style><linearGradient id="linear-gradient" x1="90.18" y1="297.39" x2="90.18" y2="392.06" gradientTransform="matrix(1, 0, 0, -0.99, 0, 387.72)" gradientUnits="userSpaceOnUse"><stop offset="0" stop-color="#949494"/><stop offset="0.33" stop-color="#9b9b9b"/><stop offset="0.82" stop-color="#aeafb0"/><stop offset="1" stop-color="#b6b8b9"/></linearGradient></defs><title>azure-stream-analytics-logo</title><g id="Layer_2" data-name="Layer 2"><g id="Layer_1-2" data-name="Layer 1"><path class="cls-1" d="M18.29,129.71H14.72l-1.76-5H5.25l-1.7,5H0l7.34-19.61H11Zm-6.19-7.64-2.72-7.82A9.19,9.19,0,0,1,9.12,113H9.06a8.08,8.08,0,0,1-.27,1.23L6.1,122.07Z"/><path class="cls-1" d="M31.67,117l-7.56,10.2h7.53v2.47h-12v-1.19l7.72-10.34h-7v-2.47H31.67Z"/><path class="cls-1" d="M46.37,129.71H43.2V127.5h-.05A4.57,4.57,0,0,1,38.85,130q-5,0-5-6v-8.37h3.17v8q0,3.77,2.91,3.77a2.94,2.94,0,0,0,2.32-1,4,4,0,0,0,.91-2.72v-8.05h3.17Z"/><path class="cls-1" d="M58.24,118.74a2.63,2.63,0,0,0-1.65-.45,2.83,2.83,0,0,0-2.35,1.27,5.69,5.69,0,0,0-.94,3.46v6.7H50.12v-14h3.17v2.88h.05a4.88,4.88,0,0,1,1.43-2.3,3.22,3.22,0,0,1,2.15-.83,2.68,2.68,0,0,1,1.31.26Z"/><path class="cls-1" d="M72.29,123.57H62.75a4,4,0,0,0,1.2,3,4.45,4.45,0,0,0,3.14,1.05,6.92,6.92,0,0,0,4.12-1.34v2.56a9.41,9.41,0,0,1-5.06,1.2,6.26,6.26,0,0,1-4.85-1.91,7.63,7.63,0,0,1-1.76-5.37,7.46,7.46,0,0,1,1.93-5.33,6.33,6.33,0,0,1,4.81-2.06,5.52,5.52,0,0,1,4.44,1.85,7.66,7.66,0,0,1,1.57,5.13Zm-3.06-2.24a4.09,4.09,0,0,0-.81-2.66,2.7,2.7,0,0,0-2.19-1,3.08,3.08,0,0,0-2.32,1,4.56,4.56,0,0,0-1.17,2.61Z"/><path class="cls-1" d="M82.46,128.93v-3.35a5.16,5.16,0,0,0,1.07.74,8.31,8.31,0,0,0,1.32.55,10.4,10.4,0,0,0,1.39.35,7.43,7.43,0,0,0,1.29.12,5.48,5.48,0,0,0,3.06-.68,2.25,2.25,0,0,0,1-2,2.16,2.16,0,0,0-.33-1.21,3.52,3.52,0,0,0-.94-.94,9.91,9.91,0,0,0-1.42-.81l-1.74-.81q-1-.53-1.86-1.08a8,8,0,0,1-1.5-1.21,5.06,5.06,0,0,1-1-1.5,4.88,4.88,0,0,1-.36-2,4.51,4.51,0,0,1,.62-2.4,5.27,5.27,0,0,1,1.64-1.68,7.5,7.5,0,0,1,2.32-1,11,11,0,0,1,2.65-.32,10.71,10.71,0,0,1,4.48.7v3.21a7.17,7.17,0,0,0-4.29-1.2,7.72,7.72,0,0,0-1.44.14,4.27,4.27,0,0,0-1.29.45,2.78,2.78,0,0,0-.92.81,2,2,0,0,0-.36,1.19,2.25,2.25,0,0,0,.27,1.13,2.92,2.92,0,0,0,.8.88,8.16,8.16,0,0,0,1.29.77q.76.38,1.76.81t1.93,1.12a9.1,9.1,0,0,1,1.6,1.3,5.7,5.7,0,0,1,1.09,1.58,4.64,4.64,0,0,1,.4,2,4.64,4.64,0,0,1-2.22,4.18,7.21,7.21,0,0,1-2.34.93,13.22,13.22,0,0,1-2.8.29,12,12,0,0,1-1.21-.08q-.72-.07-1.47-.22a13.46,13.46,0,0,1-1.42-.35A4.5,4.5,0,0,1,82.46,128.93Z"/><path class="cls-1" d="M104.86,129.56a5.5,5.5,0,0,1-2.45.46q-4.07,0-4.07-3.91V118.2H96v-2.49h2.34v-3.24l3.17-.9v4.14h3.35v2.49h-3.35v7A2.76,2.76,0,0,0,102,127a1.87,1.87,0,0,0,1.5.53,2.18,2.18,0,0,0,1.39-.46Z"/><path class="cls-1" d="M115.49,118.74a2.63,2.63,0,0,0-1.65-.45,2.83,2.83,0,0,0-2.35,1.27,5.69,5.69,0,0,0-.94,3.46v6.7h-3.17v-14h3.17v2.88h.05a4.87,4.87,0,0,1,1.43-2.3,3.23,3.23,0,0,1,2.15-.83,2.68,2.68,0,0,1,1.31.26Z"/><path class="cls-1" d="M129.54,123.57H120a4,4,0,0,0,1.2,3,4.45,4.45,0,0,0,3.14,1.05,6.92,6.92,0,0,0,4.12-1.34v2.56a9.4,9.4,0,0,1-5.06,1.2,6.26,6.26,0,0,1-4.85-1.91,7.63,7.63,0,0,1-1.76-5.37,7.46,7.46,0,0,1,1.93-5.33,6.33,6.33,0,0,1,4.81-2.06,5.52,5.52,0,0,1,4.44,1.85,7.66,7.66,0,0,1,1.57,5.13Zm-3.06-2.24a4.09,4.09,0,0,0-.81-2.66,2.69,2.69,0,0,0-2.19-1,3.08,3.08,0,0,0-2.32,1,4.56,4.56,0,0,0-1.17,2.61Z"/><path class="cls-1" d="M143.19,129.71h-3.08v-2.19h-.05A4.63,4.63,0,0,1,135.8,130a4.48,4.48,0,0,1-3.23-1.12,3.92,3.92,0,0,1-1.17-3q0-4,4.57-4.62l4.16-.59q0-3-2.84-3a6.76,6.76,0,0,0-4.51,1.72V116.7a9.84,9.84,0,0,1,5.11-1.31q5.31,0,5.3,5.22Zm-3.06-6.88-2.94.41a4.65,4.65,0,0,0-2.06.66,1.94,1.94,0,0,0-.69,1.7,1.86,1.86,0,0,0,.64,1.46,2.46,2.46,0,0,0,1.7.57,3.15,3.15,0,0,0,2.4-1,3.61,3.61,0,0,0,.95-2.56Z"/><path class="cls-1" d="M167.73,129.71h-3.17v-7.63a6.19,6.19,0,0,0-.62-3.19,2.29,2.29,0,0,0-2.1-1,2.53,2.53,0,0,0-2.11,1.24,5.07,5.07,0,0,0-.87,3v7.57h-3.19v-7.89q0-3.91-2.76-3.91a2.49,2.49,0,0,0-2.11,1.18,5.18,5.18,0,0,0-.83,3v7.57h-3.17v-14H150v2.21H150a4.85,4.85,0,0,1,4.42-2.54,4.16,4.16,0,0,1,2.54.8,4,4,0,0,1,1.48,2.1,5,5,0,0,1,4.65-2.9q4.62,0,4.62,5.7Z"/><path class="cls-1" d="M46.46,163.31H42.89l-1.76-5H33.41l-1.7,5H28.16l7.34-19.61h3.66Zm-6.19-7.64-2.72-7.82a9,9,0,0,1-.26-1.23h-.05a8.08,8.08,0,0,1-.27,1.23l-2.69,7.82Z"/><path class="cls-1" d="M61.12,163.31H57.95v-7.89q0-3.92-2.78-3.92a3,3,0,0,0-2.39,1.09,4,4,0,0,0-.94,2.74v8H48.65v-14h3.19v2.32h.05A5,5,0,0,1,56.43,149a4.23,4.23,0,0,1,3.49,1.48,6.67,6.67,0,0,1,1.2,4.29Z"/><path class="cls-1" d="M75.57,163.31H72.49v-2.19h-.05a4.63,4.63,0,0,1-4.25,2.52A4.48,4.48,0,0,1,65,162.52a3.92,3.92,0,0,1-1.17-3q0-4,4.57-4.62l4.16-.59q0-3-2.84-3a6.76,6.76,0,0,0-4.51,1.72V150.3A9.84,9.84,0,0,1,70.26,149q5.3,0,5.3,5.22Zm-3.06-6.88-2.94.41a4.65,4.65,0,0,0-2.06.66,1.94,1.94,0,0,0-.69,1.7,1.86,1.86,0,0,0,.64,1.46,2.46,2.46,0,0,0,1.7.57,3.14,3.14,0,0,0,2.4-1,3.61,3.61,0,0,0,1-2.56Z"/><path class="cls-1" d="M82.37,163.31H79.18V142.59h3.19Z"/><path class="cls-1" d="M98.58,149.31l-6.32,16.24q-2,4.35-5.52,4.35a6.64,6.64,0,0,1-1.67-.18v-2.64a4.44,4.44,0,0,0,1.37.25,2.82,2.82,0,0,0,2.65-1.75l.94-2.3-5.56-14H88l3.34,10.17q.06.19.25,1h.07q.07-.31.25-1l3.5-10.2Z"/><path class="cls-1" d="M108.79,163.16a5.5,5.5,0,0,1-2.45.46q-4.08,0-4.07-3.91V151.8H99.93v-2.49h2.34v-3.24l3.17-.9v4.14h3.35v2.49h-3.35v7a2.76,2.76,0,0,0,.45,1.78,1.87,1.87,0,0,0,1.5.53,2.19,2.19,0,0,0,1.39-.46Z"/><path class="cls-1" d="M112.78,146.37a1.91,1.91,0,0,1-1.33-.51,1.66,1.66,0,0,1-.55-1.29,1.71,1.71,0,0,1,.55-1.3,1.88,1.88,0,0,1,1.33-.52,1.94,1.94,0,0,1,1.37.52,1.7,1.7,0,0,1,.56,1.3,1.68,1.68,0,0,1-.56,1.26A1.93,1.93,0,0,1,112.78,146.37Zm1.57,16.94h-3.17v-14h3.17Z"/><path class="cls-1" d="M128.2,162.67a7.82,7.82,0,0,1-4,1,6.74,6.74,0,0,1-5-1.95,6.9,6.9,0,0,1-1.91-5.05,7.59,7.59,0,0,1,2.06-5.56,7.35,7.35,0,0,1,5.5-2.1,8,8,0,0,1,3.38.67v3a5.11,5.11,0,0,0-3.12-1.09,4.33,4.33,0,0,0-3.29,1.36,5,5,0,0,0-1.29,3.56,4.74,4.74,0,0,0,1.21,3.43,4.29,4.29,0,0,0,3.25,1.26,5.07,5.07,0,0,0,3.23-1.22Z"/><path class="cls-1" d="M130.49,162.88v-2.94a6.32,6.32,0,0,0,3.92,1.35q2.87,0,2.87-1.7a1.34,1.34,0,0,0-.25-.81,2.34,2.34,0,0,0-.66-.59,5.19,5.19,0,0,0-1-.46l-1.26-.46a13.46,13.46,0,0,1-1.55-.72,4.7,4.7,0,0,1-1.15-.87,3.27,3.27,0,0,1-.69-1.1,4,4,0,0,1-.23-1.44,3.3,3.3,0,0,1,.48-1.78,4.14,4.14,0,0,1,1.29-1.3,6.16,6.16,0,0,1,1.83-.79,8.38,8.38,0,0,1,2.12-.27,9.65,9.65,0,0,1,3.47.59v2.78a5.85,5.85,0,0,0-3.39-1,4.43,4.43,0,0,0-1.09.12,2.8,2.8,0,0,0-.83.34,1.66,1.66,0,0,0-.53.53,1.24,1.24,0,0,0-.19.68,1.44,1.44,0,0,0,.19.77,1.73,1.73,0,0,0,.57.55,4.92,4.92,0,0,0,.9.44l1.21.43a17.74,17.74,0,0,1,1.62.75,5.5,5.5,0,0,1,1.22.87,3.44,3.44,0,0,1,.78,1.12,3.82,3.82,0,0,1,.27,1.51,3.45,3.45,0,0,1-.49,1.86,4.11,4.11,0,0,1-1.31,1.31,6.15,6.15,0,0,1-1.89.77,9.81,9.81,0,0,1-2.26.25A9.53,9.53,0,0,1,130.49,162.88Z"/><path class="cls-2" d="M132.5,51.27V40.33l-.61-.55L120.64,36l-2.87-7.27,5.56-11.49.61-1.28-3.67-3.73L116,8l-1.47.73-11,5.56-7.39-2.08L91.37,0H80.43l-.55.55L76.09,11.73l-7.7,2.87L55.68,8.49l-7.82,7.64.73,1.47,5.87,11.12A36.67,36.67,0,0,1,74,23.47a38.26,38.26,0,0,1,21.82,7A20.29,20.29,0,0,1,98,32h0a19.86,19.86,0,0,1,5.68,8.25h0A18.33,18.33,0,0,1,105,47.06,19.74,19.74,0,0,1,85.26,66.79h-.12a20,20,0,0,1-11.43-3.61A38.56,38.56,0,0,1,49.27,73.88l-1.16,2.38,7.82,7.88,1.59-.43,11-6.11,7.58,3.12,4.83,13.2h11l.43-1.53,3.91-11.67,7.46-3.12,12.89,6.11,7.76-7.7-.73-1.47L118,63.62,120.28,56Z"/><path class="cls-3" d="M46.94,57.14h0A22,22,0,0,1,31.3,50.72a2.81,2.81,0,1,1,4-3.67,16.19,16.19,0,0,0,11.67,4.46h0a16,16,0,0,0,11.49-4.46A21.69,21.69,0,0,1,74,40.94a22.24,22.24,0,0,1,15.71,6.11,2.81,2.81,0,1,1-3.81,4.13L85.75,51A16.44,16.44,0,0,0,74.2,46.26h0A16,16,0,0,0,62.71,51,22.06,22.06,0,0,1,46.94,57.14Z"/><path class="cls-3" d="M46.94,46h0a10.94,10.94,0,0,1-7.7-3.18,2.81,2.81,0,0,1,4-4,5.13,5.13,0,0,0,3.73,1.53h0a6.6,6.6,0,0,0,3.67-1.53,33.37,33.37,0,0,1,46.87,0,2.81,2.81,0,0,1-4,4,27.81,27.81,0,0,0-39.17,0A11.86,11.86,0,0,1,46.94,46Z"/><path class="cls-4" d="M46.94,68.32a33.06,33.06,0,0,1-23.65-9.72,2.81,2.81,0,0,1,4-3.91,27.74,27.74,0,0,0,39.17-.06,11.86,11.86,0,0,1,7.39-3,11.18,11.18,0,0,1,7.64,3.18,2.81,2.81,0,0,1,0,4,2.87,2.87,0,0,1-4,0,5.07,5.07,0,0,0-3.61-1.53h0a6.11,6.11,0,0,0-3.67,1.59A33.06,33.06,0,0,1,46.94,68.32Z"/></g></g></svg>