<svg xmlns="http://www.w3.org/2000/svg" xmlns:xlink="http://www.w3.org/1999/xlink" viewBox="0 0 186.14 260.67"><defs><style>.cls-1{fill:#e65270;}.cls-2{fill:#430a1d;}.cls-13,.cls-2,.cls-3,.cls-6,.cls-8{opacity:0.2;}.cls-13,.cls-14,.cls-2,.cls-25,.cls-26,.cls-27,.cls-29,.cls-34,.cls-35,.cls-6,.cls-8,.cls-9{isolation:isolate;}.cls-35,.cls-4,.cls-6{fill:#2b2b2b;}.cls-5{fill:url(#linear-gradient);}.cls-7{fill:url(#linear-gradient-2);}.cls-11,.cls-14,.cls-8{fill:#fff;}.cls-13,.cls-34,.cls-39,.cls-9{fill:#8b4fba;}.cls-9{opacity:0.6;}.cls-10{fill:#f9e0e7;}.cls-12{fill:url(#linear-gradient-3);}.cls-14,.cls-29{opacity:0.3;}.cls-15{fill:url(#linear-gradient-4);}.cls-16{fill:url(#linear-gradient-5);}.cls-17{fill:#e65271;}.cls-18{fill:url(#linear-gradient-6);}.cls-19{fill:url(#linear-gradient-7);}.cls-20,.cls-29{fill:#f6e8a0;}.cls-21{fill:#f8d285;}.cls-22{fill:url(#linear-gradient-8);}.cls-23{fill:url(#linear-gradient-9);}.cls-24{fill:url(#linear-gradient-10);}.cls-25,.cls-26,.cls-27{opacity:0.7;}.cls-25{fill:url(#radial-gradient);}.cls-26{fill:url(#radial-gradient-2);}.cls-27{fill:url(#radial-gradient-3);}.cls-28{fill:url(#linear-gradient-11);}.cls-30{fill:url(#linear-gradient-12);}.cls-31{fill:url(#linear-gradient-13);}.cls-32{fill:url(#linear-gradient-14);}.cls-33{fill:url(#linear-gradient-15);}.cls-34,.cls-35{opacity:0.4;}.cls-36{fill:#0d0d0d;}.cls-37{fill:url(#linear-gradient-16);}.cls-38{fill:url(#linear-gradient-17);}</style><linearGradient id="linear-gradient" x1="28840.54" y1="-712.32" x2="28893.06" y2="-467.24" gradientTransform="matrix(-1, 0, 0, 1, 28894.91, 677.79)" gradientUnits="userSpaceOnUse"><stop offset="0.38" stop-color="#faa100"/><stop offset="0.66" stop-color="#bf73f2"/><stop offset="0.66" stop-color="#c370e6"/><stop offset="0.69" stop-color="#cc68c7"/><stop offset="0.71" stop-color="#d461ab"/><stop offset="0.73" stop-color="#db5b95"/><stop offset="0.76" stop-color="#e05784"/><stop offset="0.8" stop-color="#e35479"/><stop offset="0.85" stop-color="#e55272"/><stop offset="1" stop-color="#e65270"/></linearGradient><linearGradient id="linear-gradient-2" x1="28810.9" y1="-715.59" x2="28866.84" y2="-454.53" xlink:href="#linear-gradient"/><linearGradient id="linear-gradient-3" x1="28801.73" y1="-699.02" x2="28805.06" y2="-544.16" gradientTransform="matrix(-1, 0, 0, 1, 28894.91, 677.79)" gradientUnits="userSpaceOnUse"><stop offset="0" stop-color="#faa7b5"/><stop offset="0.38" stop-color="#faa100"/><stop offset="0.73" stop-color="#bf73f2"/></linearGradient><linearGradient id="linear-gradient-4" x1="28843.04" y1="-683.11" x2="28805.65" y2="-618.7" gradientTransform="matrix(-1, 0, 0, 1, 28894.91, 677.79)" gradientUnits="userSpaceOnUse"><stop offset="0" stop-color="#f6e8a0"/><stop offset="1" stop-color="#e65271"/></linearGradient><linearGradient id="linear-gradient-5" x1="28836.46" y1="-644.4" x2="28804.22" y2="-588.86" xlink:href="#linear-gradient-4"/><linearGradient id="linear-gradient-6" x1="28764.41" y1="-685.45" x2="28768.13" y2="-620.57" xlink:href="#linear-gradient-4"/><linearGradient id="linear-gradient-7" x1="28767.91" y1="-620.64" x2="28789.34" y2="-715.6" gradientTransform="matrix(-1, 0, 0, 1, 28894.91, 677.79)" gradientUnits="userSpaceOnUse"><stop offset="0" stop-color="#e65271"/><stop offset="0.38" stop-color="#faa100"/></linearGradient><linearGradient id="linear-gradient-8" x1="28842.28" y1="-668.17" x2="28762.94" y2="-600.59" xlink:href="#linear-gradient-4"/><linearGradient id="linear-gradient-9" x1="28770.69" y1="-620.93" x2="28847.81" y2="-599.96" xlink:href="#linear-gradient-3"/><linearGradient id="linear-gradient-10" x1="28565.45" y1="-711.06" x2="28927.63" y2="-516.88" xlink:href="#linear-gradient-3"/><radialGradient id="radial-gradient" cx="59993.71" cy="-14320.24" r="27.44" gradientTransform="matrix(-0.46, -0.14, -0.27, 0.88, 23768.69, 21051.33)" gradientUnits="userSpaceOnUse"><stop offset="0.01" stop-color="#fff"/><stop offset="1" stop-color="#fff" stop-opacity="0"/></radialGradient><radialGradient id="radial-gradient-2" cx="54580.12" cy="-27090.35" r="42.89" gradientTransform="matrix(-0.48, 0, 0, 0.48, 26175.11, 13032.89)" xlink:href="#radial-gradient"/><radialGradient id="radial-gradient-3" cx="54580.12" cy="-27090.34" r="42.89" gradientTransform="matrix(-0.48, 0, 0, 0.48, 26175.11, 13032.89)" xlink:href="#radial-gradient"/><linearGradient id="linear-gradient-11" x1="28714.34" y1="-543.78" x2="28734.66" y2="-497.99" gradientTransform="matrix(-1, 0, 0, 1, 28894.91, 677.79)" gradientUnits="userSpaceOnUse"><stop offset="0" stop-color="#faa7b5"/><stop offset="0.38" stop-color="#faa100"/></linearGradient><linearGradient id="linear-gradient-12" x1="28849.62" y1="-676" x2="28866.28" y2="-549.44" xlink:href="#linear-gradient-3"/><linearGradient id="linear-gradient-13" x1="28863.51" y1="-677.83" x2="28880.17" y2="-551.27" xlink:href="#linear-gradient-3"/><linearGradient id="linear-gradient-14" x1="28887.98" y1="-623.86" x2="28880.5" y2="-535.79" xlink:href="#linear-gradient-3"/><linearGradient id="linear-gradient-15" x1="28754.78" y1="-698.02" x2="28758.11" y2="-543.15" xlink:href="#linear-gradient-3"/><linearGradient id="linear-gradient-16" x1="28723.42" y1="-579.54" x2="28731.66" y2="-565.94" xlink:href="#linear-gradient-3"/><linearGradient id="linear-gradient-17" x1="28750.37" y1="-647.78" x2="28750.37" y2="-647.78" xlink:href="#linear-gradient-7"/></defs><title>flink-logo-vertical</title><g id="Layer_2" data-name="Layer 2"><g id="Layer_1-2" data-name="Layer 1"><path id="path7735" class="cls-1" d="M119.11,186.26c-2.5,0-5,0-7.48,0H67.08a60.22,60.22,0,0,1-14.87-1.87c-18.45-4.83-32.42-15.77-41.53-32.53a62.52,62.52,0,0,1-7.37-26.7A64.38,64.38,0,0,1,4,112c.08-.53.18-1,.27-1.58l.21-1.2.36.35a1.14,1.14,0,0,1,.29.53c.18.59.35,1.18.52,1.77.35,1.23.72,2.5,1.14,3.71a86.33,86.33,0,0,0,14.57,25.65,3.34,3.34,0,0,1,.58,1,40.52,40.52,0,0,0,11.67,17.88,51.31,51.31,0,0,0,19,10.65,57.06,57.06,0,0,1-12.92-7.64,42,42,0,0,1-13.62-18.24,3.43,3.43,0,0,1-.13-2.52,10.16,10.16,0,0,0,.29-1c.06-.23.12-.46.19-.7a25.06,25.06,0,0,1,6.69-11.28,26.72,26.72,0,0,1,11.1-6A84.07,84.07,0,0,1,57.36,121l1.87-.24c2.44-.32,4.91-.7,7.29-1.06l1.44-.22c.53-.08,1.07-.2,1.62-.32l1.34-.28-.35.6a.68.68,0,0,1-.09.14A36.94,36.94,0,0,0,64.84,128a1.2,1.2,0,0,1-.65.58l-1,.32a26,26,0,0,1-3.13.9c-1.15.23-2.32.39-3.46.55-.91.13-1.82.26-2.73.42a15,15,0,0,0-7.19,3c.39-.09.8-.15,1.19-.21a9,9,0,0,0,1.64-.34,28.92,28.92,0,0,1,9.71-1.43h.51c.68,0,1.37,0,2.06.07l1.34.06-.1.33a41.52,41.52,0,0,0,.22,26.12,45.41,45.41,0,0,1-.68-16.12,34.09,34.09,0,0,1,10.25-20,49.59,49.59,0,0,1,14.64-9.47,90.74,90.74,0,0,1,15.84-5l1-.24c3.67-.88,7.46-1.79,11.14-2.87a35.4,35.4,0,0,0,14.23-7.9,15.72,15.72,0,0,0,1.79-1.84,33,33,0,0,1,13.39-10.56,1.05,1.05,0,0,0,.43-.41,17.65,17.65,0,0,1,6.3-6.31,3.35,3.35,0,0,1,1.67-.49,3.39,3.39,0,0,1,2.05.78,6.65,6.65,0,0,1,.69.61A11,11,0,0,1,158.25,82a.36.36,0,0,0,.34.25c.64.08,1.3.17,2,.3,10.72,2.12,18.19,10.37,19.48,21.53,0,.3.06.6.08.9a9.36,9.36,0,0,0,.33,2.1,17.65,17.65,0,0,0,1.06,2.44c.17.35.35.7.51,1.06s.28.61.43.91c.34.72.69,1.45,1,2.2a5.4,5.4,0,0,1,.15,3.52c-.15.51-.46.59-.63.59a.79.79,0,0,1-.41-.13,10.21,10.21,0,0,1-.84-.62l-.39-.3-.44-.34a7.71,7.71,0,0,0-1-.73.82.82,0,0,0-.39-.11.7.7,0,0,0-.39.12l.51.45c.9.8,1.8,1.6,2.69,2.42a1,1,0,0,1,.29.74,6.25,6.25,0,0,1-1.74,4.13,5.55,5.55,0,0,1-4,1.89,5.39,5.39,0,0,1-.95-.09,1,1,0,0,1-.65,1,18.21,18.21,0,0,1-8.83,2.39h-.46a12.5,12.5,0,0,0-6.22,1.81,9,9,0,0,1-2.06.88,26.48,26.48,0,0,1-5.56.78,17.41,17.41,0,0,0,2.36.15c.53,0,1.08,0,1.68-.06l.34,0c.25,0,.51,0,.75,0a2.13,2.13,0,0,1,.82.14c1.55.63,3.07,1.4,4.49,2.13a1.45,1.45,0,0,0,.67.2.84.84,0,0,0,.31-.06l.42-.15c.78-.29,1.58-.6,2.34-.94a12,12,0,0,1,4.94-1.19,9,9,0,0,1,1.24.09,8.6,8.6,0,0,1,3.42,1.08,2.48,2.48,0,0,1,1.36,2,.47.47,0,0,0,.13.16l.42.36c.14.12.29.24.43.37a3.45,3.45,0,0,1,1.14,3c0,.33-.11,1.12-.78,1.12a1.76,1.76,0,0,1-.77-.24,2.12,2.12,0,0,0-.38-.16c.33.2.64.4,1,.61a2.49,2.49,0,0,1,1.07,2.29,4.93,4.93,0,0,1-4.8,4.31,4,4,0,0,1-.83-.09,3,3,0,0,1-2.11-1.37.32.32,0,0,0-.09-.07l-.41,0a7.85,7.85,0,0,0-1.44.14l-.13,0a10.81,10.81,0,0,1-2.41.36,4.94,4.94,0,0,1-.94-.09c-.37-.07-.73-.16-1.1-.25l-.27-.06a11.91,11.91,0,0,1-2,3.86,17.2,17.2,0,0,1-8.5,5.71,26.9,26.9,0,0,1-8.42,1.3,34.49,34.49,0,0,1-4.84-.35,16.27,16.27,0,0,1-13.58-10.57,25,25,0,0,1-1-3.15c-.13-.51-.27-1-.41-1.53a32.67,32.67,0,0,0-3-7.12,21,21,0,0,0-8.48-8.53,19.14,19.14,0,0,0-9-2.2,23.74,23.74,0,0,0-4.18.38l-.87.18c1,0,2,.1,2.94.2a27.64,27.64,0,0,1,12.14,4.09c4.86,3.08,7.84,6.91,9.11,11.71a41.78,41.78,0,0,0,3,7.93,19.51,19.51,0,0,0,3.06,4.7,16.21,16.21,0,0,0,7.82,4.43c.93.26,1.86.55,2.78.84a1.68,1.68,0,0,1,1.08,1.08,7.48,7.48,0,0,1,.39,4.19,12.38,12.38,0,0,1-3,5.79,21.33,21.33,0,0,1-4.36,3.55,22.74,22.74,0,0,0-2.13,1.61,2.17,2.17,0,0,0-.82,1.77c0,1.09.13,1.13.33,1.13a3.29,3.29,0,0,0,.87-.2c.21-.07.42-.15.63-.25l1.27-.55,2.17-.93a12.08,12.08,0,0,1,4.64-1,10.26,10.26,0,0,1,2.38.28,7.07,7.07,0,0,1,5.47,5,2.16,2.16,0,0,1-.1,1.8,1.33,1.33,0,0,1-1,.61,1.42,1.42,0,0,1-.9-.57.93.93,0,0,1-.2-.52c0-.06,0-.11,0-.16a3.44,3.44,0,0,0-1.11-1.95,6.19,6.19,0,0,1,1.27,4.11A2.6,2.6,0,0,1,145.6,185h-.19a1,1,0,0,1-1-.86,9.94,9.94,0,0,1,0-1.07c0-.15,0-.29,0-.44s0-.38,0-.57a8.73,8.73,0,0,0,0-1.18,1.92,1.92,0,0,0-1.45-1.64l-.18,0a1.59,1.59,0,0,1,.63.64,7.45,7.45,0,0,1,.73,1.68A2.93,2.93,0,0,1,143,184.9a4.6,4.6,0,0,1-1.91.6,5.57,5.57,0,0,1-.76,0,12,12,0,0,1-2.75-.43l-.45-.11a8.42,8.42,0,0,0-4.17-.06l-.29.05a72.14,72.14,0,0,1-12.84,1.25Z"/><path id="path7737" class="cls-2" d="M157.14,131.73s-6.89,8.22-18.59,3.51c-10.72-4.32-6.81-16.2-6.81-16.2s1.9,7.37,7.45,10.16C147.21,133.24,157.14,131.73,157.14,131.73Z"/><path id="path7739" class="cls-2" d="M123.19,135.25c1.49,1.52,1.52,3.07,2,5a24.34,24.34,0,0,0,4.24,9.57,18.26,18.26,0,0,0,8.15,6.09c2.92,1.12,6.67.79,6.11,5.13l-1,3.66c-7.45,0-14.44-3.4-17.28-10.8-2.49-6.49.44-14.33-7.12-25.3C118.91,129.29,122.42,134.46,123.19,135.25Z"/><g id="g7743" class="cls-3"><path id="path7741" class="cls-4" d="M120.24,132c.11.46.22.93.32,1.4A1.66,1.66,0,0,1,120.24,132Z"/></g><path id="path7766" class="cls-5" d="M33.4,160.38C5.28,157.6,2,129.62,2,129.62a75.21,75.21,0,0,1,2-25.7C6.3,127.07,24.87,143.1,24.87,143.1S28.95,156.29,33.4,160.38Z"/><path id="path7768" class="cls-6" d="M26.38,149.72s-5.9.56-13.76-9c7.59,13.76,17.42,14,17.42,14Z"/><path id="path7791" class="cls-7" d="M41.58,165.79c-1.47-25.88,13.72-13.87,21.57-27.6A44.55,44.55,0,0,1,72,118.59s-47.05-8.82-47.79,25.49c1.64,7.43,8.84,14.61,13.35,18.5-.88-2-12.11-32.9,25.29-30.38-12.91-1.1-31.55,12.39-22.67,32.6C41,165.45,41.58,165.79,41.58,165.79Z"/><path id="path7793" class="cls-8" d="M54.3,128.47c-9.73,3.66-26.24,3.64-21.54,28.46-.75.56-4.51-5.26-3.57-4.7C24.86,130,44.28,131.32,54.3,128.47Z"/><path id="path7795" class="cls-9" d="M66.62,119.58c9.46-3.74,1.78,6.87.44,8.56-3.1,3.93-11,2.65-15.15,4-2.41.75-12.06,2.17-15.25,11.3-1.42,4-2,10.66,1.07,18.72-.75.57-5.73-4.88-4.79-4.32C25,122.14,62.61,134.94,66.62,119.58Z"/><path id="path7797" class="cls-10" d="M160.65,105a6,6,0,0,1,1.25-2.15,3.91,3.91,0,0,1,.37.13c.92-.6,2.38-.52,3.54-.52a7.26,7.26,0,0,1,2.37.07c1,.38.86,1.4,1.27,2.18.76,1.45,3.12,1.47,3.13,3.52a13.6,13.6,0,0,1,0,3.22c-.18.7-1,.49-1.64.49-2,0-4.09.06-6.14.06L162,109.9c-.76.24-1.35-1.34-1.45-1.88A6.24,6.24,0,0,1,160.65,105Z"/><path id="path7799" class="cls-11" d="M170.1,107.82a3.29,3.29,0,0,0,1.07-1c.15-.23.11-.38.44-.37.87,0,.87,1.19.83,1.79-.05.77-.36,1.48-.48,2.24-.28-.07-.44-.42-.75-.51a3,3,0,0,0-.87,0c-.38,0-.92.27-1.26.13Z"/><path id="path7808" class="cls-12" d="M58,69.89l.2-.24C62,66.15,64,61.73,65.06,56.78c.7-3.24-.19-6.09-1.65-8.88a1.32,1.32,0,0,0-.12-.15c-.29.91-.56,1.81-.87,2.69a19.72,19.72,0,0,1-3.15,6.07c-.58.72-25.11,14.3-22.59,44.39,0,.19,0,.37.07.57.45-.42.85-.86,1.31-1.22a15.56,15.56,0,0,1,5.48-2.64c3.6-1,7.22-1.93,10.85-2.81a101.59,101.59,0,0,0,12.26-3.47A30.48,30.48,0,0,0,73,88a34.77,34.77,0,0,0,7.76-7.3,13,13,0,0,0,2.47-4.83,11.86,11.86,0,0,1-.38,5.53A13.65,13.65,0,0,1,80,86.24a4.72,4.72,0,0,0,.91-.3,25.93,25.93,0,0,0,8.91-7.84,14.35,14.35,0,0,0,2.61-7.49,1.12,1.12,0,0,1,0-.14c.73,3.38.63,9.14-3.19,13.23,1.35-.48,2.56-1,3.81-1.32a3.89,3.89,0,0,0,2.28-1.82,42.94,42.94,0,0,0,5.7-12.69,20.84,20.84,0,0,0,.11-10.64,17.58,17.58,0,0,0-6.83-9.56,31.56,31.56,0,0,0-7.47-4l-.48-.19s0,0-.14-.15c.92.25,1.74.47,2.56.71a34.25,34.25,0,0,1,10.67,5,16.13,16.13,0,0,1,6.18,8.18,17.5,17.5,0,0,1,.19,9.33,37,37,0,0,1-5.74,12.44l-.23.36a.66.66,0,0,0,0,.12l.27-.11a42.45,42.45,0,0,0,14-11.05,37.55,37.55,0,0,0,7.71-15.57c1.62-7.34-.16-13.86-4.91-19.61a36.24,36.24,0,0,0-10.83-8.63A50.26,50.26,0,0,0,89.25,18.8a30.42,30.42,0,0,0-10.2.06,14.52,14.52,0,0,0-5.15,2c.26-.22.51-.46.79-.66a15,15,0,0,1,6.25-2.6,35.5,35.5,0,0,1,11.22-.31,50.25,50.25,0,0,1,16.59,4.88l1.59.81c0-.48,0-.89,0-1.3a1,1,0,0,1,.87-1.06.67.67,0,0,1,.85.59c.08.4.1.8.15,1.2a4.27,4.27,0,0,0,1.17,2.34,1.16,1.16,0,0,0,.21.18s.08,0,.22.05c0-.33,0-.63,0-.93,0-.61,0-1.22,0-1.82,0-.15.11-.39.21-.42a.57.57,0,0,1,.49.15,3.37,3.37,0,0,1,.6,1c.24.79.34,1.62.59,2.4a4.78,4.78,0,0,0,.74,1.43c.35.46.71.36.85-.2s.17-1.08.25-1.61a3.34,3.34,0,0,1,.09-.55,2.09,2.09,0,0,1,.24-.41c.12.11.3.2.35.34a3.16,3.16,0,0,1,.26,1c0,.73,0,1.47,0,2.2a2.8,2.8,0,0,0,.35,1.14c.21.37.55.33.66-.09.17-.6.25-1.22.37-1.83l.27-1.33a1.85,1.85,0,0,1,.65,1.33c.13,1.19.19,2.39.29,3.59a5,5,0,0,0,.92,2.45c1,1.39,1.81,2.87,2.67,4.33.44.75.85.82,1.27,0s.82-1.81,1.21-2.73c.17-.4.32-.81.5-1.2a4.06,4.06,0,0,1,.36-.55,1.15,1.15,0,0,1,.49,1.23c-.13.67-.38,1.31-.55,2a22,22,0,0,0-.5,2.17,1.81,1.81,0,0,0,.23.94c.19.41.49.46.82.14s.59-.73.91-1.06a3.91,3.91,0,0,1,.65-.46c.12.27.37.55.35.81a5.83,5.83,0,0,1-.38,1.62c-.41,1-1,2-1.31,3.09a11.37,11.37,0,0,0-.39,2.42.73.73,0,0,0,.3.61.79.79,0,0,0,.63-.26c.67-.74,1.3-1.51,2-2.27a4.87,4.87,0,0,1,.56-.48l.19.09a5.9,5.9,0,0,1-.2,1.29,12,12,0,0,1-1,1.91c-.6,1-1.28,1.85-1.89,2.79A17.55,17.55,0,0,0,126.59,55c-.34,1.45-.82,2.87-1.24,4.31a2.28,2.28,0,0,0-.12.55c.37-.59.72-1.18,1.11-1.77a10.43,10.43,0,0,1,2.94-3.16,9.88,9.88,0,0,1,2-1,100.26,100.26,0,0,0,10.57-4.24,20.6,20.6,0,0,0,2.77-1.72,2.94,2.94,0,0,0,1.19-3.3l-.71-2.88c-.58.92-1.08,1.8-1.66,2.63a5.58,5.58,0,0,1-2.37,2,3.4,3.4,0,0,1,.17-.33,20.74,20.74,0,0,0,3-6.84,2.07,2.07,0,0,0-.05-.82,24.56,24.56,0,0,1-.08-5.32,5.61,5.61,0,0,0,0-1.07.6.6,0,0,0-.29-.43c-.09,0-.34.08-.42.2a8.56,8.56,0,0,0-1,1.49c-.93,2.15-1.82,4.33-2.7,6.5a28,28,0,0,1-4.24,7.6,10,10,0,0,1-3,2.54,4.62,4.62,0,0,1-.73.29c1.85-1.92,2.27-4.34,2.35-6.82.11-3.18,0-6.36.08-9.54a35.19,35.19,0,0,1,1.34-10.16.69.69,0,0,0-.1-.45c-.29-.56-.66-1.09-.9-1.68-.5-1.22-.92-2.48-1.42-3.71-.29-.72-.39-.78-1.16-.72a2,2,0,0,1-1.77-1c-.34-.45-.48-.44-.71.09s-.45,1.16-.72,1.72c-.09.19-.33.32-.51.47-.13-.2-.35-.39-.38-.6-.07-.68-.05-1.37-.1-2a3.64,3.64,0,0,0-.18-1,.61.61,0,0,0-.45-.32c-.12,0-.32.19-.37.34-.17.49-.27,1-.42,1.48s-.3.44-.53.11a21.16,21.16,0,0,0-6.42-5.44c-.72-.43-1.42-.88-2.14-1.32l-.15,0c.09.79.18,1.58.27,2.37l-.19.1a5.46,5.46,0,0,1-.67-.58c-.47-.56-.9-1.15-1.38-1.71a6.45,6.45,0,0,0-3.29-2.17l1.05,3.61-.17.07a4.27,4.27,0,0,1-.36-.44c-.28-.45-.55-.9-.81-1.37a6.51,6.51,0,0,0-5-3.45c-1.51-.22-3-.36-4.55-.46a8.65,8.65,0,0,1-3.21-.73,23.44,23.44,0,0,0-2.24-.8,1.24,1.24,0,0,0-.44,0,1.4,1.4,0,0,0,0,.48c.35.69.74,1.37,1.1,2.06a7.73,7.73,0,0,1,.32.79l-.1.11a5.49,5.49,0,0,1-.68-.23c-1-.48-2-.92-2.93-1.46a7.22,7.22,0,0,0-3.08-.68A25.65,25.65,0,0,0,81.1,6a14.11,14.11,0,0,0-5.27,2.81c.2,0,.4,0,.59-.06a24.78,24.78,0,0,1,5.79-.7A8,8,0,0,1,86,9a2.3,2.3,0,0,1,.46.5,2,2,0,0,1-.79.24c-.61-.07-1.21-.3-1.82-.35a16.12,16.12,0,0,0-5.71.79,39.06,39.06,0,0,0-12.4,6.06c-.93.66-1.89,1.27-2.85,1.88a14.94,14.94,0,0,0-4.59,4.6,3.68,3.68,0,0,0-.36.7A1.18,1.18,0,0,0,58.54,25a6.41,6.41,0,0,0,1.48.54A16.44,16.44,0,0,1,72.58,39.68a47.94,47.94,0,0,1,.52,7.78,24.7,24.7,0,0,1-6.46,15.72,33.32,33.32,0,0,1-8.29,6.56Z"/><path id="path7810" class="cls-13" d="M144.53,30c-2.87,22.39-12.8,17.32-19.31,29.82-.36-.47-1.18,3.35.46-3.75s6.34-3.9,10.79-12C142.11,33.79,141,32.87,144.53,30Z"/><path id="path7812" class="cls-14" d="M114.85,30.43c-1.07,6.41-10.13,6.12-17.88,3.4-8.43-3-25.93-3.9-27.34-.38-.7.81-2.11-2.52-2.11-2.52s13.3-14.51,35.55.8c-.91-1.41,8-5.53,8-5.53S113.74,25.39,114.85,30.43Z"/><path id="path7814" class="cls-13" d="M68.73,92c.48,1.2,4.42.39,4.79-1.48C67.71,83.9,83,71.81,68.9,56,78.13,80.38,58.48,81.37,68.73,92Z"/><path id="path7816" class="cls-9" d="M68.73,92c.48,1.2.4.86.77-1-5.81-6.58,9.66-16.17-.6-34.91C78.13,80.38,58.48,81.37,68.73,92Z"/><path id="path7823" class="cls-15" d="M89.89,87.16C117.8,57.79,82.52,62.71,71,42.78c0-.34,0-.68,0-1a17,17,0,0,0-1.84-7.69C80,50,107.27,35.95,102,68.58,101.49,70.26,97.7,86.79,89.89,87.16Z"/><path id="path7830" class="cls-16" d="M89.89,87.16C78.4,92.8,68.36,93,68.83,91.29c22.83-15.49,4.4-31.45.1-46.49.29-1.21,2.13-1.67,2.13-3,0-.15,0-.29,0-.44a5,5,0,0,0,1.87,2.77C83.53,54.79,117.26,58.37,89.89,87.16Z"/><path id="path7832" class="cls-17" d="M86.29,86.72C104,60.33,71,55.31,71.21,46.94c-2.63,17.21,29,24.58-.72,45.18C70,93.8,74.8,92.36,86.29,86.72Z"/><path id="path7839" class="cls-18" d="M135.67,40.87c1.4,2.34-.15,5.11-1.79,7.7-1.51,2.39-5.15,1.61-7.62,7.38l.21-4.5c2.74-4.77-1.89-11.34-3.18-15.78-2.2-7.56-4.58-14.54-1.67-22.22.2-.52.37-1.08.56-1.61A17.84,17.84,0,0,1,126,15.62c.82,1.08.54-2.79,1.62-2,.8.59,0,3.33.72,4s1.37-3.45,2-2.52c1.44,2.16,2.27.79,2.88,1.44s1.85,5.12,2.38,5.74,1,1.21,1.49,1.83a42.39,42.39,0,0,1-2,10C134,36.9,134,38.07,135.67,40.87Z"/><path id="path7841" class="cls-17" d="M96.39,6.39a.63.63,0,0,0,.2,0c.77,0-2.08-3.6-1.26-3.6,1.39,0,3.34,1.43,4.7,1.54,2.86.22,5.83.15,8.37,1.32s3.51,4.57,4.06,4.72-1.32-4-.79-3.81a6.91,6.91,0,0,1,2.24,1.25c2.4,3.43,3.18,20.45-.34,20-3.7-.46,5.83,1.31,5.87,1.16,3.19-12-3.91-19.43-3.59-19A3.29,3.29,0,0,0,117,11.12c.76.29-.47-2.9.22-2.48,2.2,1.34,3.76,2.29,5,3.25,0,.06,0,.19.11.16.94-.39,6.77-1.76,2.34,19.18,6.74-13.63,1.46-19,2-18.43,2.39,2.58,2.88,8.89,3.19,12.63.29,3.51-1.91,11.5-4.77,14.15-2,1.86-2-.44-2.73-2.22-1.24-2.92-3.52-5.28-5.58-7.68a66.2,66.2,0,0,0-5.1-4.7c-1.84-1.75-2.81-4.18-4.46-6.1-1.47-1.71-3.28-3.08-4.68-4.86-1.57-2-2.62-4.29-4.36-6.13A14.89,14.89,0,0,0,96.39,6.39Z"/><path id="path7848" class="cls-19" d="M109.31,4.48c4.12,0,6.7,2,10.11,3.84,2.82,1.57,6.29,1.58,8.68,3.75A14.93,14.93,0,0,1,133.23,22a52,52,0,0,1-.14,15.68c-.46,2.45-2.21,7.47-4,9.26l-2.2-1.4c-4.34-11.22-17.44-15.82-22.39-26.85a29,29,0,0,1-2-11C102.37,4,106.31,4.49,109.31,4.48Z"/><path id="path7850" class="cls-20" d="M68.34,32.51A17.11,17.11,0,0,0,57.7,25.06c-1.13-.25-3.16-1-1.15-3.38,2.15-3.36,5.24-4.64,6.9-5.87,6.68-5,3.92-5.47,7.82-5.92,1.52-.18,1.12-.31,1.89,0s-.59-.22-1.08-.54c-4.35-2.88-4,2.86-2.17,1.62,5.57-4.31,18.39-7.33,22-6.71.52.09,4.14,2.18,4.69,2.17.77,0-2.08-3.6-1.26-3.6,1.39,0,3.34,1.43,4.7,1.54,2.81.22,11.34,4.13,11.28,14.43,0,3.15.18,5.36-.25,7.41C107.95,41.27,76.45,20.12,68.34,32.51Z"/><path id="path7852" class="cls-11" d="M106,23.23c-1.46-1.82-10.94-5.11-10.94-5.11s-15.75-5.43-30.28,10c7.43-5.9,20.47-3.42,29.91-2.33C96,26,92,24.7,93.06,24.32,96.57,23,99.81,26.66,103.3,26A3,3,0,0,0,106,23.23Z"/><path id="path7854" class="cls-20" d="M94,20.67c-5.79-1.52-11.57.71-12.68.77.52-.79,1.38-2.6,5.66-3.23a37,37,0,0,1,4,0,9.5,9.5,0,0,1,4.64,1.23,11.83,11.83,0,0,0,4.36.91s8.87.67,5.93,3.67-7.22-3.88-16.61-1.68C89.25,22.06,91.39,20.53,94,20.67Z"/><g id="g7858"><path id="path7856" class="cls-21" d="M85.19,8.21c-3.66-2.42-10-.34-10.88-.36,0-.08,0-.18.18-.27,5.57-4.31,13.82-3.92,17.42-3.31l.11,0,.06,0c.78.3,3.32,1.73,4.25,2,5.42,3.07,14,9.56,14.74,19.83a34.37,34.37,0,0,1-7-4c-.57-.44-13.53-14-47.81,2.29a1.28,1.28,0,0,1-.41-1.75c7.74-12.44,21.88-16,44.39-4.23C97,14.71,95.5,11.26,85.19,8.21Z"/></g><path id="path7865" class="cls-22" d="M107.1,78.13C119.8,65.14,125,55.44,118.83,45c-10-16.93-40.61.73-53.94-16.35,1.41,1.61,4.42,4.81,7.32,6.38,9.88,6.46,28.48,4.38,34.41,9.37C114.24,50.81,116.19,63.76,107.1,78.13Z"/><path id="path7874" class="cls-23" d="M65.73,51c0,.87,2,5.89,1.67,7.05-2.67,9.87-14.27,14.72-14.27,14.72s-13,5.22-15,29.1c-2.37,1.7-2-1.92-2-3.54C37.6,67,63.65,70.51,65.73,51Z"/><path id="path7883" class="cls-24" d="M109.9,102.73a4.87,4.87,0,0,0-.64-.29c-1.14-.32-2.28-.61-3.42-.93-.36-.1-.7-.27-1.06-.4,0-.08,0-.15,0-.23a7.64,7.64,0,0,1,1.22-.21c1.64,0,3.27,0,4.91,0a23.27,23.27,0,0,0,6.86-.68,16.42,16.42,0,0,0,3.15-1.39A49.57,49.57,0,0,0,143.4,73a46.33,46.33,0,0,0,2.16-7c0-.13,0-.27.09-.5l-.39.23a55.36,55.36,0,0,1-21.18,8.87,52.86,52.86,0,0,1-8.32.86,1,1,0,0,0-.61.23,51.86,51.86,0,0,1-14.44,10A52.66,52.66,0,0,1,87.35,89.9c-5.92,1.15-11.85,2.24-17.77,3.38a162.57,162.57,0,0,0-21.52,5.32,54.91,54.91,0,0,0-12.72,5.91,23.65,23.65,0,0,0-7.49,7.34c-.66,1.08-1.12,2.29-1.69,3.43a2.17,2.17,0,0,1-.37.58,16,16,0,0,0-4.86,13.9,27.6,27.6,0,0,0,3.92,11.1c.24.4.45.83.63,1.18.1-.87.18-1.85.31-2.82a18,18,0,0,1,9.44-13.82,35.71,35.71,0,0,1,10-3.75c3.84-.85,7.72-1.56,11.6-2.26a113,113,0,0,0,14-3c.89-.28,1.77-.6,2.64-.93a12.81,12.81,0,0,0,3.16-1.69,45.63,45.63,0,0,1,10.54-5.68l.3-.12,0-.07h-.17c-4.19,0-8.39,0-12.58,0a81.79,81.79,0,0,0-11.21.58,66.66,66.66,0,0,0-15,3.86,105,105,0,0,0-16.39,8.12,1.34,1.34,0,0,1-.47.2l.29-.24A76.57,76.57,0,0,1,50.66,109.7a57,57,0,0,1,14.58-3.54,74.62,74.62,0,0,1,13.27-.1q5.74.42,11.48.82a2.79,2.79,0,0,0,1-.11,76.44,76.44,0,0,1,11.56-2.38c2.31-.33,4.59-.88,6.87-1.34a2.69,2.69,0,0,0,.45-.18Z"/><path id="path7885" class="cls-8" d="M39.46,115.63c15-17.9,53.87-8.52,70.44-12.9-10.49,6-19,5-19,5S55.07,103.77,39.46,115.63Z"/><path id="path7887" class="cls-17" d="M154.05,47.69a9.7,9.7,0,0,0-1.22.22,29.51,29.51,0,0,0-4,1.35,17.61,17.61,0,0,0-3.36,2.25c-2,1.64-4,3.39-6,5.06A13,13,0,0,1,132,60.23c2.69-1.36,4.2-3.77,5.76-6.25a1.5,1.5,0,0,0-.22,0,69.89,69.89,0,0,0-11.78,6.93,7.34,7.34,0,0,0-2.29,2.74c-.88,1.83-2,3.56-3,5.33l-.22.37c.89-.18,1.66-.31,2.42-.5a43.81,43.81,0,0,0,9.15-3.73A119.11,119.11,0,0,0,145,57.08a1.5,1.5,0,0,1,.43-.23,1.11,1.11,0,0,1-.12.16,53.49,53.49,0,0,1-17.25,11.88,31.47,31.47,0,0,1-8.88,2.3.54.54,0,0,0-.33.13c-.68.83-1.35,1.67-2.11,2.6,1.87-.4,3.64-.75,5.39-1.16a75.91,75.91,0,0,0,14.31-4.68,33.37,33.37,0,0,0,9.35-5.93A28.94,28.94,0,0,0,153.59,50,20,20,0,0,0,154.05,47.69Z"/><path id="path7889" class="cls-9" d="M69.16,93.26c1.46-.49,3.11-1.09,4.88-1.77C94.9,85,101.79,79.56,101.79,79.56l21-15.51s3.42,2.62,7.86-.81c-3,3.62-12.29,6.45-12.29,6.45a8.48,8.48,0,0,1-3.45,5.07c8.25-2.8,22.1-2,31.71-10.65C139.3,84.66,121.25,69,103.8,81.78c-2,1.21-28.62,8-15.4,7.54s21.93,8.56,33,5.6c-10.37,3.76-19.53-2.27-34-3.28,2.25.45,5.33,1.69,6.64,3.38C88.82,91.29,78.57,91.11,76.14,92A63.55,63.55,0,0,0,69.16,93.26Z"/><path id="path7891" class="cls-6" d="M119.18,99.6c-15.2,6-68.9-11.45-93,15.68,0,0-1.81-.81,7.8-11.57C71.72,85.66,99.83,102.73,119.18,99.6Z"/><path id="path7898" class="cls-25" d="M142.68,75.56c4.5-2.53.84,3.65-3.65,7.3-17.7,12.36-25.7-1.7-43.26,5.06C122.63,73.12,125.26,91.57,142.68,75.56Z"/><path id="path7900" class="cls-13" d="M141.3,79.07c4.5-2.53,2.22.14-2.28,3.8-17.7,12.36-25.7-1.7-43.26,5.06C113.05,78.31,123.89,95.08,141.3,79.07Z"/><g id="g7916"><path id="path7907" class="cls-26" d="M53.93,72.44c-8.19,7.49-1.77,23.9-1.77,23.9l-5.83,1.25S40.45,81.73,53.93,72.44Z"/><path id="path7914" class="cls-27" d="M68.06,59.87c6.17,11-10.19,26.09-1.41,31.44-.14.72-5,3.17-4.8,2.46-10.85-16.64,7-20.61,4.69-31C54,79.87,53.87,83.25,60,94.08c-.08.06-.75.93-1.41.44C49,87.38,46.34,79.35,68.06,59.87Z"/></g><path id="path7918" class="cls-13" d="M88.22,82.19c.39,5.14,4-3.21,4.53-9,.47-21.58-21.41-16.36-22.41-33.82C68.21,59.25,91.89,58.81,88.22,82.19Z"/><path id="path7920" class="cls-14" d="M109.44,73.63c.39,5.14,10.71-8.09,11.26-13.86-3.46-37-41.57-14.51-51.54-28.15C77.39,46.56,130.66,25.77,109.44,73.63Z"/><path id="path7927" class="cls-28" d="M179.16,145.72c-.56.49-1,.94-1.52,1.32a8.07,8.07,0,0,1-1.31.81,3.53,3.53,0,0,1-3.36,0,9.33,9.33,0,0,0-5.56-.79,1.38,1.38,0,0,0-1.18.85,16.41,16.41,0,0,1-9.15,8.11,1,1,0,0,0-.76.9,9.43,9.43,0,0,0,0,3.76,7.51,7.51,0,0,0,3.42,4.56,18.42,18.42,0,0,0,5.76,2.36,30.46,30.46,0,0,0,7.43,1,13.06,13.06,0,0,0,3.78-.52,7,7,0,0,0,5.08-5.45,46.46,46.46,0,0,0,1-5.47,14.39,14.39,0,0,0-3.48-11.22A1.9,1.9,0,0,1,179.16,145.72Z"/><g id="g7931"><path id="path7929" class="cls-29" d="M171.21,146c.21,1.26,2.58,1.61,3.68,1.57,1.94-.07,3.19-1.2,4.45-2.67a4.81,4.81,0,0,0,.5-.72c2.2,1.75,3.42,4.12,3.08,6.54-.6,4.26-5.85,7-11.72,6.22-4.06-.57-7.36-2.72-8.8-5.4,1.07-1.37,1.49-3.12,2.91-4.3S169.42,146,171.21,146Z"/></g><path id="path7940" class="cls-30" d="M28.42,106a3.68,3.68,0,0,0,2.94.48A61.33,61.33,0,0,1,30.15,92.5,36.91,36.91,0,0,1,33.5,77.56a12.09,12.09,0,0,1,1-1.74,2.2,2.2,0,0,1-.07.27,30.22,30.22,0,0,0-2,9.57,55.38,55.38,0,0,0,1.42,15.17c0,.12.06.24.11.42.72-.49,1.43-1,2.12-1.44.08-.06.08-.28.07-.43a40.81,40.81,0,0,1,0-9.1A51.52,51.52,0,0,1,39.25,77.7a68.8,68.8,0,0,1,8.53-15.89l.24-.34a.71.71,0,0,0,0-.15l-1.47.52a76.49,76.49,0,0,0-9.47,4.1,6.72,6.72,0,0,0-1.34.92,25.13,25.13,0,0,0-8,14.21c-.17.83-.29,1.68-.52,2.51.05-.93.08-1.86.16-2.78a51.7,51.7,0,0,1,2.69-12.91,5.71,5.71,0,0,0,0-3,3.56,3.56,0,0,0-.41-.89,4.26,4.26,0,0,0-.7.7,24.75,24.75,0,0,0-2.65,6.26,71,71,0,0,0-2.06,10.25,68.27,68.27,0,0,0-.72,9.74,29.64,29.64,0,0,0,1.37,9.72,13.22,13.22,0,0,0,2.24,4.13c.36.44.81.81,1.21,1.22Z"/><path id="path7942" class="cls-6" d="M43.38,61.43s-8.2,1.15-11.66,6.79-4.46,15.34-4.46,15.34S25.5,98,31.37,106.44C27.65,75.56,43.38,61.43,43.38,61.43Z"/><path id="path7951" class="cls-31" d="M28.42,106h-.09a9.4,9.4,0,0,1-4.09-3.23,16.93,16.93,0,0,1-2.91-7,40.06,40.06,0,0,1-.5-11.36c.18-2.17.5-4.33.77-6.5,0-.08,0-.15,0-.31-.13.11-.23.18-.3.26A63.14,63.14,0,0,0,7.23,100.31a1.28,1.28,0,0,0,0,.75A71.63,71.63,0,0,0,15,117.69c1.38,2.2,2.9,4.32,4.36,6.47.11.17.25.32.46.6.05-1.08.63-2,.18-3a9.69,9.69,0,0,1-.86-4.27,2.76,2.76,0,0,1,.55-1.58,7,7,0,0,0,1.53,3,1.5,1.5,0,0,0,.14-1.31,14.39,14.39,0,0,1-.89-5.45,8.59,8.59,0,0,1,.32-1.72A11.47,11.47,0,0,0,23.16,114a1.88,1.88,0,0,0,.14-.21,32.27,32.27,0,0,1,5-7.42C28.39,106.31,28.38,106.12,28.42,106Z"/><path id="path7953" class="cls-6" d="M22.08,113.2s-9.22-18.05-4.91-33.55c.54-.43-.87.67-2.53,2.59-.25.29-3.35,20.76,2.93,29.79-8.44-10-4.44-27.89-4.8-27.37a15.89,15.89,0,0,0-1.88,3.63c-4.31,20.21,10.6,32.38,10.6,32.38Z"/><path id="path7955" class="cls-1" d="M163.23,178.19c-.38.58-.82,1.16-1.17,1.8a2.35,2.35,0,0,0-.17,1.9,1.34,1.34,0,0,0,1.65,1,17.68,17.68,0,0,1,2-.23c.72,0,.77.07.86.78a2.08,2.08,0,0,0,.11.55,1.9,1.9,0,0,0,1.49,1.4,1.82,1.82,0,0,0,1.76-.94,2.84,2.84,0,0,0-2-4.5,13.2,13.2,0,0,0-2.09,0l-.4,0-.1-.12a2.75,2.75,0,0,1,.57-.65,2.63,2.63,0,0,1,1.65-.33c3.76.43,7.34,0,10.53-2.27a13.27,13.27,0,0,0,4.08-4.8l0,0c.13-.35.38-.77,0-1a1.25,1.25,0,0,0-1,0c-1.4.46-2.77,1-4.19,1.43a19.89,19.89,0,0,1-6.36.47,28.12,28.12,0,0,1-8.45-1.64,24.47,24.47,0,0,1-8.21-5,7.05,7.05,0,0,0-.86-.72c-.52-.35-.88-.18-.9.46a5.25,5.25,0,0,0,.13,1.34,14.1,14.1,0,0,0,7.73,9.67C161.08,177.37,162.21,177.76,163.23,178.19Z"/><path id="path7964" class="cls-32" d="M4.48,95.19c-.16,16.09,5,30,15.79,41.9-.15-1.09-.35-2.18-.44-3.27-.15-1.86-.25-3.73-.34-5.6a1.76,1.76,0,0,0-.33-1,119.56,119.56,0,0,1-10.69-18.3A45.21,45.21,0,0,1,5,98.75C4.78,97.61,4.66,96.44,4.48,95.19Z"/><path id="path7973" class="cls-33" d="M136.05,42.29C138,39,140,35.74,140.68,32a8.17,8.17,0,0,0,0-2,27.81,27.81,0,0,1,1.35-10.69,2.87,2.87,0,0,0,.23-.95,1.33,1.33,0,0,0-.31-.77c-.22-.26-.52-.17-.81,0a5.81,5.81,0,0,0-2.1,2.15A17.37,17.37,0,0,0,137,25.47a70.43,70.43,0,0,0-1,16.62A1.39,1.39,0,0,0,136.05,42.29Z"/><path id="path7975" class="cls-34" d="M137.19,21a13.08,13.08,0,0,1,2.37-2.85l1.3-.83a27.7,27.7,0,0,0-1.78,10.3c0,3,.92,5.79,1.07,8.77.12,2.46-1,3.7-2.23,5.7-.58.9-1.36,2.85-2.61,2.86a13.28,13.28,0,0,1-.5-4.73c0-1.82-.31-3.6-.24-5.44A75.15,75.15,0,0,1,137.19,21Z"/><path id="path7977" class="cls-1" d="M182.09,164.82l-.08.06c-1.42,2.92-3.94,4.19-7,4.45a28.39,28.39,0,0,1-14.45-2.62,8.75,8.75,0,0,1-4.51-4.17,22.84,22.84,0,0,1-.9-2.76,2.47,2.47,0,0,0-2.27,2,2.23,2.23,0,0,0,.28,1.06,9.56,9.56,0,0,0,2.76,3.2,24.13,24.13,0,0,0,9.65,4.61,26,26,0,0,0,13.89-.23,17.81,17.81,0,0,0,3.13-1.42,1.94,1.94,0,0,0,1.06-2.07A2.59,2.59,0,0,0,182.09,164.82Z"/><path id="path7979" class="cls-35" d="M182.09,164.82l-.08.06c-1.42,2.92-3.94,4.19-7,4.45a28.39,28.39,0,0,1-14.45-2.62,8.75,8.75,0,0,1-4.51-4.17,22.84,22.84,0,0,1-.9-2.76,2.47,2.47,0,0,0-2.27,2,2.23,2.23,0,0,0,.28,1.06,9.56,9.56,0,0,0,2.76,3.2,24.13,24.13,0,0,0,9.65,4.61,26,26,0,0,0,13.89-.23,17.81,17.81,0,0,0,3.13-1.42,1.94,1.94,0,0,0,1.06-2.07A2.59,2.59,0,0,0,182.09,164.82Z"/><g id="g7987"><path id="path7981" class="cls-36" d="M131.54,118.53a11.07,11.07,0,0,0,1.12,5.1,13.87,13.87,0,0,0,7.41,6.73,19.65,19.65,0,0,0,8.87,1.46l.21-.06a27.45,27.45,0,0,1-6.06-1.63,20.42,20.42,0,0,1-8.57-6.06,16.34,16.34,0,0,1-2.78-5C131.68,118.86,131.61,118.7,131.54,118.53Z"/><path id="path7983" class="cls-36" d="M156.55,92.74a6.7,6.7,0,0,0,1.9-9.44A14.16,14.16,0,0,1,156.55,92.74Z"/><path id="path7985" class="cls-36" d="M162,111.3a8.21,8.21,0,0,0,5.57,1.65c.81,0,1.61-.15,2.42-.19a5.15,5.15,0,0,1,1.32.1c.82.18,1.18.06,1.46-.72a12.31,12.31,0,0,0,.72-5.52,9.46,9.46,0,0,0-.65-2.66,6.34,6.34,0,0,0-8.83-2.84,8.34,8.34,0,0,0-1.15.8c-.38.31-.73.67-1.13,1,.18.21.32.4.49.57a1.43,1.43,0,0,1,.41,1.37,3,3,0,0,0,1.71,3.54,18.88,18.88,0,0,0,3.1,1.27,13.53,13.53,0,0,0,1.68.44.53.53,0,0,0,.39-.14,4.6,4.6,0,0,0,1.84-2.22,4.18,4.18,0,0,1,0,2.17,3.18,3.18,0,0,0,.18,1.77l0,.06-.3-.16a8.6,8.6,0,0,0-3.56-1,9.74,9.74,0,0,1-4.35-1.44,5.44,5.44,0,0,1-2.52-4.46c0-.06,0-.11,0-.27C159.27,107.21,159.71,109.42,162,111.3Z"/></g><path id="path7996" class="cls-37" d="M164.08,105.29a3.14,3.14,0,1,0,3.14-3.14A3.14,3.14,0,0,0,164.08,105.29Z"/><path id="path8000" class="cls-11" d="M178.13,158.25a1.28,1.28,0,0,0,1.75-.41,8.66,8.66,0,0,0-.09-8.05,1.27,1.27,0,0,0-2.26,1.17,6.12,6.12,0,0,1,.19,5.56A1.28,1.28,0,0,0,178.13,158.25Z"/><g id="g8004"><path id="path8002" class="cls-2" d="M41.65,165.59c-.79-22.73,13.22-15.34,19.45-24.93a7.12,7.12,0,0,0,1-1.79C55.14,142.73,35.53,140.15,41.65,165.59Z"/></g><g id="g8008"><path id="path8006" class="cls-6" d="M31,121.29c19.24-16.57,57.23-14.76,60-14.52-15.94,11.37-63.74.68-65.49,35.28C22.39,132.22,26.39,125.24,31,121.29Z"/></g><path id="path8010" class="cls-2" d="M61.73,139.78s0,5,0,8.57-4.46,1.61-6.18-3.26A12.57,12.57,0,0,0,61.73,139.78Z"/><path id="path8012" class="cls-2" d="M59.35,141.46c3.22-5.69-.09-10.61-.6-10.82,1.83-.1,5.35-3.53,6.19-4.67,1.31-1.79,1.39-4.39,1.5-6.52,2.6-.12,4.43-1.71,6.79-2.27-2,1.88-4.74,4.11-6,6.65a52.18,52.18,0,0,0-2.74,7.25A53.42,53.42,0,0,0,63,137c-.27,1.51-1.16,3.54-1,5,0,0-.33,13.23,2.32,19.76a16.3,16.3,0,0,1-8.57-7.4c-1-1.79-3-6.26-.57-9.1A9.15,9.15,0,0,0,59.35,141.46Z"/><path id="path8014" class="cls-36" d="M12.3,158.65a67.24,67.24,0,0,0,40.45,26.78,73.77,73.77,0,0,0,17,1.63c14.05-.06,28.1,0,42.16,0q14.18,0,28.36,0a20.07,20.07,0,0,0,6.64-.9,7.4,7.4,0,0,0,4.65-4.12,7.56,7.56,0,0,0-2.61-8.88,10.5,10.5,0,0,0-6.91-1.83c-.67,0-1.34.14-2,.2a1.46,1.46,0,0,1-.46,0,4.88,4.88,0,0,1-.62-.23,2.35,2.35,0,0,1,.36-.51,15.65,15.65,0,0,0,5.19-8.15,10.53,10.53,0,0,0,.29-3.62c0-.09,0-.19,0-.28,0-.63.19-.83.81-.86,1.84-.08,3.67-.16,5.51-.3.88-.07,1.74-.28,2.73-.34-.12.15-.2.37-.35.44a5.26,5.26,0,0,0-2.9,3.31,15.76,15.76,0,0,0-.88,5.46,13,13,0,0,0,3.23,8,18.82,18.82,0,0,0,6.26,4.8c.31.15.39.28.28.63a4.65,4.65,0,0,0,.08,3,2.43,2.43,0,0,0,1.16,1.36,4.62,4.62,0,0,0,4.1.23c0,.2.07.42.12.61.4,1.51,1.37,2.11,2.85,3h1s.08-.11.12-.12c2.6-.44,3.69-2.81,3.39-5.06-.08-.58-.25-1.15-.36-1.67,1.18-.31,2.39-.55,3.54-1a15.31,15.31,0,0,0,10.36-11,5.48,5.48,0,0,0-1.48-5.8.73.73,0,0,1-.09-.54c.33-2.08.84-4.14,1-6.22a16.52,16.52,0,0,0-4.68-12.92.63.63,0,0,1-.16-.65c.23-1.11.49-2.22.62-3.34A7,7,0,0,0,179,134a1.53,1.53,0,0,1-.34-.48,4.62,4.62,0,0,0-2.45-2.7,11.64,11.64,0,0,0-7.33-1,18,18,0,0,0-4.69,1.69,1.55,1.55,0,0,1-1.89-.07c-.1-.09-.27-.11-.37-.2s-.46-.38-.42-.52a.89.89,0,0,1,.5-.53,9.84,9.84,0,0,1,3.65-.71,24,24,0,0,0,2.85-.14,21.15,21.15,0,0,0,8.34-3,1.61,1.61,0,0,1,.56-.22,8,8,0,0,0,6.61-6.46,2.73,2.73,0,0,1,.23-1,7.58,7.58,0,0,0,.71-6.9c-.52-1.51-1.24-3-1.81-4.45a9.61,9.61,0,0,1-.69-2.46,38.6,38.6,0,0,0-1.15-7A23.84,23.84,0,0,0,160,79.8a.93.93,0,0,1-.88-.63A9.19,9.19,0,0,0,153.58,74a2.63,2.63,0,0,0-2,0,16.7,16.7,0,0,0-2.67,1.42A19.68,19.68,0,0,0,143.65,81c-.11.17-.23.38-.4.44a.93.93,0,0,1-.72,0c-.13-.09-.16-.45-.11-.65a2.27,2.27,0,0,1,.39-.68A43.75,43.75,0,0,0,150,62.28a1.2,1.2,0,0,1,.33-.58c.92-.94,1.87-1.84,2.78-2.78A11.18,11.18,0,0,0,156,53.58a10.14,10.14,0,0,0,.22-1.61c0-.16-.15-.34-.23-.51-.18.1-.4.16-.51.31-.25.34-.42.73-.65,1.08a8.25,8.25,0,0,1-.53.65.32.32,0,0,1,0-.27,31.56,31.56,0,0,0,2-7.71c.09-.74.15-1.49.17-2.24,0-.54-.34-.89-.71-.74a1.65,1.65,0,0,0-.51.39,23.33,23.33,0,0,1-4.92,3.52c0-.06-.07-.08-.07-.11,0-.26-.1-.52-.13-.78a60.25,60.25,0,0,0-2.22-9,14.81,14.81,0,0,1-.72-7A5.32,5.32,0,0,1,149.06,26a2,2,0,0,0,.26-.3,1.59,1.59,0,0,0-.32-.16c-1.74-.38-3.54-.16-4.52,1.84-.11.22-.26.43-.46.76a5.52,5.52,0,0,1-.51-1,15.58,15.58,0,0,1-.28-4.79A16.18,16.18,0,0,1,145,16.69a9.46,9.46,0,0,0,.58-1.42,1.1,1.1,0,0,0-1.16-1.52A4.17,4.17,0,0,0,143,14a9.44,9.44,0,0,0-5.16,4.51c-.09.18-.18.35-.28.56a8,8,0,0,1-2.18-2.94,17.75,17.75,0,0,0-1-2.2c-.27-.51-.48-.5-.81,0-.09.13-.17.26-.27.38-.25.31-.45.31-.65,0a6.08,6.08,0,0,1-.44-1,9.05,9.05,0,0,0-2.9-4c-.09-.07-.19-.12-.41-.25.08.51.14.9.19,1.3s.1.81.15,1.23a.68.68,0,0,1-.18,0l-.39-.26A51.9,51.9,0,0,0,111,3.42c-1.94-.46-4-.62-5.73-1.72l-.13-.06a.72.72,0,0,0-.87.21,1.06,1.06,0,0,1-.72.24c-.78,0-1.56-.19-2.33-.25a13.61,13.61,0,0,1-2.13-.39C97.94,1.14,96.8,0,95.64,0H94.8c-.27,0-.59.77-.81,1-.38.48-.85,1-1.45,1.08A65.39,65.39,0,0,0,80.77,3.91,47,47,0,0,0,64.4,11.2a30.05,30.05,0,0,0-8.93,9.63,24.11,24.11,0,0,0-1.16,2.49,2.83,2.83,0,0,0-.11,2,1,1,0,0,0,1.18.78c3.24-.51,6,.67,8.5,2.51a15.35,15.35,0,0,1,5.52,7.1A10.8,10.8,0,0,1,67.1,47.36c-.31.35-.65.66-1,1-.14-.53-.26-1-.39-1.48a15.69,15.69,0,0,0-3.33-6.36c-1-1.06-1.35.2-1.11,2.13a12.36,12.36,0,0,1-3.59,10.59,1.75,1.75,0,0,1-.68.38c-3,1.07-6,2.08-9,3.19a91.72,91.72,0,0,0-15.38,7.31l-.21.11A1.34,1.34,0,0,1,31.73,63c0-.66.13-1.33.21-2,0-.08,0-.15,0-.23.16-1.17-.3-1.55-1.38-1a4.56,4.56,0,0,0-1.43,1.16,19.09,19.09,0,0,0-2.75,5c-.39.93-.7,1.9-1.1,2.83a2.53,2.53,0,0,1-.65.92A74.27,74.27,0,0,0,13.16,81.64,66.19,66.19,0,0,0,5.88,93.86c0,.11-.11.23-.16.33s0,0-.11.1a42.41,42.41,0,0,1-.4-11.42c-.3,1.14-.64,2.27-.91,3.41a47,47,0,0,0-1.1,14,2,2,0,0,1-.12.73,64.5,64.5,0,0,0,9.21,57.61ZM8.46,108.94a119.56,119.56,0,0,0,10.69,18.3,1.78,1.78,0,0,1,.33,1c.09,1.87.19,3.74.34,5.6.09,1.1.29,2.19.44,3.27C9.49,125.24,4.32,111.28,4.48,95.19c.18,1.25.3,2.41.52,3.56A45.22,45.22,0,0,0,8.46,108.94ZM48.05,61.31a.71.71,0,0,1,0,.15l-.24.34A68.83,68.83,0,0,0,39.25,77.7a51.54,51.54,0,0,0-3.06,12.58,40.81,40.81,0,0,0,0,9.1c0,.14,0,.37-.07.43-.69.49-1.4,1-2.12,1.44,0-.18-.09-.29-.11-.42a55.23,55.23,0,0,1-1.42-15.17,30.29,30.29,0,0,1,2-9.57,2.39,2.39,0,0,0,.07-.27,12.3,12.3,0,0,0-1,1.74A36.89,36.89,0,0,0,30.15,92.5a61.33,61.33,0,0,0,1.22,13.94,3.69,3.69,0,0,1-2.94-.48c0,.15,0,.35-.12.45a32.35,32.35,0,0,0-5,7.42,2,2,0,0,1-.14.21,11.53,11.53,0,0,1-2.35-3.67,8.54,8.54,0,0,0-.32,1.72,14.39,14.39,0,0,0,.89,5.45,1.5,1.5,0,0,1-.14,1.31,7,7,0,0,1-1.53-3,2.76,2.76,0,0,0-.55,1.58,9.69,9.69,0,0,0,.86,4.27c.44,1.06-.13,1.94-.18,3-.21-.27-.34-.43-.46-.6-1.46-2.15-3-4.27-4.36-6.47a71.63,71.63,0,0,1-7.78-16.63,1.28,1.28,0,0,1,0-.75A63.13,63.13,0,0,1,21.31,77.82c.08-.08.17-.14.3-.26,0,.15,0,.23,0,.31-.26,2.16-.58,4.33-.77,6.5a40.05,40.05,0,0,0,.5,11.36,17,17,0,0,0,2.91,7,9.39,9.39,0,0,0,4.1,3.23,17.17,17.17,0,0,1-1.21-1.22,13.24,13.24,0,0,1-2.24-4.13,29.58,29.58,0,0,1-1.37-9.72,67.74,67.74,0,0,1,.72-9.74A71.11,71.11,0,0,1,26.3,70.92,24.69,24.69,0,0,1,29,64.66a4.34,4.34,0,0,1,.7-.7,3.69,3.69,0,0,1,.41.89,5.7,5.7,0,0,1,0,3,51.7,51.7,0,0,0-2.69,12.91c-.08.93-.11,1.86-.16,2.78.23-.83.35-1.68.52-2.51a25.13,25.13,0,0,1,8-14.21,6.72,6.72,0,0,1,1.34-.92,76.77,76.77,0,0,1,9.47-4.1ZM142.3,18.37a2.87,2.87,0,0,1-.23.95A27.75,27.75,0,0,0,140.72,30a8.17,8.17,0,0,1,0,2c-.71,3.78-2.7,7-4.63,10.33a1.31,1.31,0,0,1-.07-.19,70.64,70.64,0,0,1,1-16.62,17.4,17.4,0,0,1,2.05-5.73,5.84,5.84,0,0,1,2.1-2.15c.28-.16.58-.25.81,0A1.32,1.32,0,0,1,142.3,18.37Zm2.3,29.55a20.77,20.77,0,0,1-2.77,1.72,101,101,0,0,1-10.57,4.24,9.88,9.88,0,0,0-2,1,10.42,10.42,0,0,0-2.94,3.16c-.38.58-.74,1.18-1.11,1.77a2.39,2.39,0,0,1,.12-.55c.42-1.43.9-2.85,1.24-4.31a17.55,17.55,0,0,1,2.34-5.66c.61-.94,1.29-1.84,1.89-2.79a11.85,11.85,0,0,0,1-1.91,5.86,5.86,0,0,0,.2-1.29l-.19-.09a4.87,4.87,0,0,0-.56.48c-.65.75-1.28,1.53-2,2.27a.78.78,0,0,1-.63.26.72.72,0,0,1-.3-.61,11.37,11.37,0,0,1,.39-2.42c.35-1.06.9-2,1.31-3.09a5.83,5.83,0,0,0,.38-1.62c0-.26-.23-.54-.35-.81a3.84,3.84,0,0,0-.65.46c-.32.34-.58.73-.91,1.06s-.63.27-.82-.14a1.79,1.79,0,0,1-.23-.93A22.28,22.28,0,0,1,128,36c.17-.66.42-1.31.55-2a1.14,1.14,0,0,0-.49-1.23,3.83,3.83,0,0,0-.36.55c-.18.39-.33.81-.5,1.2-.4.91-.75,1.85-1.21,2.73s-.82.7-1.27,0c-.86-1.46-1.71-2.93-2.67-4.33a5,5,0,0,1-.92-2.45c-.11-1.19-.17-2.39-.29-3.59a1.86,1.86,0,0,0-.65-1.33c-.1.5-.19.92-.27,1.33-.12.61-.2,1.23-.37,1.83-.12.42-.45.46-.66.09a2.8,2.8,0,0,1-.35-1.13c-.05-.73,0-1.46,0-2.2a3.11,3.11,0,0,0-.26-1c-.05-.14-.23-.23-.35-.34a2,2,0,0,0-.24.41,3.34,3.34,0,0,0-.09.55c-.08.54-.12,1.09-.25,1.61s-.49.67-.85.2a4.76,4.76,0,0,1-.74-1.43c-.25-.78-.35-1.61-.59-2.4a3.45,3.45,0,0,0-.6-1,.55.55,0,0,0-.49-.15c-.11,0-.21.27-.21.42,0,.61,0,1.22,0,1.82,0,.3,0,.6,0,.93a1,1,0,0,1-.22,0,1.17,1.17,0,0,1-.21-.18,4.26,4.26,0,0,1-1.17-2.34c-.06-.4-.08-.81-.15-1.2a.67.67,0,0,0-.85-.59c-.5.06-.82.42-.87,1.06,0,.41,0,.83,0,1.3l-1.59-.81a50.25,50.25,0,0,0-16.59-4.88,35.45,35.45,0,0,0-11.22.31,15,15,0,0,0-6.25,2.6c-.27.2-.52.44-.79.66a14.49,14.49,0,0,1,5.15-2,30.47,30.47,0,0,1,10.2-.06,50.18,50.18,0,0,1,16.93,5.65A36.24,36.24,0,0,1,117,33.1c.23.27.44.55.65.83-6.15-2.94-13.1,2.59-20.05.14,9.53,4.91,15.17-1.41,20.54,2.68,1.37,1,1.61,3.72-1.51,3.27s4.49,1,5.83,8.81a25,25,0,0,1-.54,3.88,37.53,37.53,0,0,1-7.71,15.57,42.47,42.47,0,0,1-14,11.05l-.27.09a.62.62,0,0,1,0-.11l.23-.35a37,37,0,0,0,5.74-12.44,17.46,17.46,0,0,0-.19-9.33A16.14,16.14,0,0,0,99.52,49a34.27,34.27,0,0,0-10.67-5c-.81-.24-1.64-.46-2.56-.71.1.11.11.14.14.15l.48.19a31.5,31.5,0,0,1,7.47,4,17.56,17.56,0,0,1,6.83,9.56,20.84,20.84,0,0,1-.11,10.64,42.86,42.86,0,0,1-5.7,12.68,3.9,3.9,0,0,1-2.28,1.82c-1.25.37-2.46.84-3.81,1.32,3.81-4.09,3.92-9.85,3.19-13.23a1,1,0,0,0,0,.14,14.36,14.36,0,0,1-2.61,7.49,26,26,0,0,1-8.91,7.84,4.72,4.72,0,0,1-.91.3,13.58,13.58,0,0,0,2.81-4.88,11.86,11.86,0,0,0,.38-5.53,13,13,0,0,1-2.47,4.83A34.58,34.58,0,0,1,73,88a30.39,30.39,0,0,1-6.34,3.36,101.06,101.06,0,0,1-12.26,3.47c-3.63.89-7.25,1.81-10.85,2.81a15.54,15.54,0,0,0-5.48,2.64,16.07,16.07,0,0,1-.86-4.77C37,74,54.06,62.5,59.27,56.49a18.21,18.21,0,0,0,3.15-6.07c.31-.88.58-1.77.87-2.69a1.27,1.27,0,0,1,.12.15c1.46,2.79,2.35,5.65,1.65,8.88C64,61.73,62,66.15,58.24,69.65l-.2.24.31-.16a33.24,33.24,0,0,0,8.29-6.56A24.7,24.7,0,0,0,73.1,47.46a48,48,0,0,0-.52-7.78A16.44,16.44,0,0,0,60,25.58,6.53,6.53,0,0,1,58.54,25,1.18,1.18,0,0,1,58,23.45a3.68,3.68,0,0,1,.36-.7,15,15,0,0,1,4.59-4.6c1-.61,1.92-1.22,2.85-1.88a39,39,0,0,1,12.4-6.06,16.2,16.2,0,0,1,5.71-.79c.61.05,1.21.28,1.82.35a2.21,2.21,0,0,0,.8-.23A2.22,2.22,0,0,0,86,9a8,8,0,0,0-3.82-.93,24.79,24.79,0,0,0-5.79.7,5.69,5.69,0,0,1-.59.06A14.07,14.07,0,0,1,81.1,6a25.62,25.62,0,0,1,9.67-.9,7.19,7.19,0,0,1,3.08.68c.95.53,1.94,1,2.93,1.46a5.49,5.49,0,0,0,.68.23l.1-.11a7.76,7.76,0,0,0-.32-.79c-.35-.69-.74-1.37-1.1-2.06a1.35,1.35,0,0,1,0-.48,1.29,1.29,0,0,1,.44,0,20.05,20.05,0,0,1,2.24.81,8.66,8.66,0,0,0,3.21.73c1.52.11,3,.25,4.55.46a6.51,6.51,0,0,1,5,3.45c.26.46.53.92.81,1.37a4.32,4.32,0,0,0,.36.44l.17-.07-1.05-3.6a6.43,6.43,0,0,1,3.29,2.17c.48.56.91,1.15,1.38,1.71a5.77,5.77,0,0,0,.67.58l.19-.1c-.09-.79-.19-1.58-.27-2.37l.15,0,2.14,1.32a21.18,21.18,0,0,1,6.42,5.44c.23.32.41.28.53-.11s.25-1,.42-1.48c0-.15.25-.35.37-.34a.61.61,0,0,1,.45.32,3.63,3.63,0,0,1,.18,1c0,.68,0,1.37.1,2,0,.21.24.4.38.6.18-.15.42-.28.51-.47.27-.56.47-1.15.72-1.72s.37-.54.71-.09a2,2,0,0,0,1.77,1c.77-.06.87,0,1.16.72.49,1.23.91,2.48,1.42,3.71.24.58.61,1.11.9,1.68a.7.7,0,0,1,.1.45,35.18,35.18,0,0,0-1.34,10.16c0,3.18,0,6.36-.08,9.54-.08,2.48-.5,4.91-2.35,6.82a4.62,4.62,0,0,0,.73-.29,9.93,9.93,0,0,0,3-2.54,28,28,0,0,0,4.24-7.6c.88-2.17,1.77-4.35,2.7-6.5a8.56,8.56,0,0,1,1-1.49c.08-.11.33-.25.42-.2a.61.61,0,0,1,.29.43,5.93,5.93,0,0,1,0,1.07,24.56,24.56,0,0,0,.08,5.32,2.07,2.07,0,0,1,.05.82,20.7,20.7,0,0,1-3,6.84c0,.06-.08.14-.17.33a5.61,5.61,0,0,0,2.37-2c.58-.83,1.09-1.72,1.66-2.63l.71,2.88A3,3,0,0,1,144.6,47.91Zm1.21,14.24a33.44,33.44,0,0,1-9.35,5.93,75.91,75.91,0,0,1-14.31,4.68c-1.75.41-3.52.76-5.39,1.16.75-.94,1.42-1.77,2.11-2.6a.54.54,0,0,1,.33-.13,31.52,31.52,0,0,0,8.88-2.3A53.54,53.54,0,0,0,145.32,57a1.19,1.19,0,0,0,.12-.16,1.47,1.47,0,0,0-.43.23,119.84,119.84,0,0,1-13.19,8.07,43.81,43.81,0,0,1-9.15,3.73c-.76.19-1.53.32-2.42.5l.22-.37c1-1.77,2.12-3.49,3-5.33a7.34,7.34,0,0,1,2.29-2.74A69.82,69.82,0,0,1,137.54,54a1.56,1.56,0,0,1,.22,0c-1.56,2.48-3.07,4.89-5.76,6.25a13,13,0,0,0,7.49-3.65c2-1.67,3.93-3.42,6-5.06a17.78,17.78,0,0,1,3.36-2.25,28.93,28.93,0,0,1,4-1.35,9.77,9.77,0,0,1,1.22-.22,20.22,20.22,0,0,1-.46,2.3A28.94,28.94,0,0,1,145.81,62.15ZM120.93,98.61a16.42,16.42,0,0,1-3.15,1.39,23.27,23.27,0,0,1-6.86.68c-1.64,0-3.28,0-4.91,0a7.6,7.6,0,0,0-1.22.21c0,.07,0,.15,0,.23.35.14.7.3,1.06.4,1.14.32,2.29.62,3.42.93a4.85,4.85,0,0,1,.64.29l0,.13a2.86,2.86,0,0,1-.45.18c-2.29.45-4.57,1-6.87,1.34A76.72,76.72,0,0,0,91,106.77a2.93,2.93,0,0,1-1,.12l-11.48-.82a74.44,74.44,0,0,0-13.27.1,56.77,56.77,0,0,0-14.58,3.54A76.61,76.61,0,0,0,32,120.4l-.29.24a1.38,1.38,0,0,0,.47-.2,104.85,104.85,0,0,1,16.39-8.12,66.66,66.66,0,0,1,15-3.86,81.51,81.51,0,0,1,11.21-.58c4.19,0,8.39,0,12.58,0h.17s0,.06,0,.06l-.3.13a45.63,45.63,0,0,0-10.54,5.68,12.81,12.81,0,0,1-3.16,1.69c-.87.33-1.75.65-2.64.93a112.59,112.59,0,0,1-14,3c-3.88.7-7.75,1.41-11.6,2.26a35.69,35.69,0,0,0-10,3.75,18,18,0,0,0-9.44,13.82c-.14,1-.21,1.95-.31,2.82-.19-.35-.39-.77-.63-1.18a27.59,27.59,0,0,1-3.92-11.1,16,16,0,0,1,4.86-13.9,2.14,2.14,0,0,0,.37-.58c.56-1.14,1-2.34,1.69-3.43a23.65,23.65,0,0,1,7.49-7.34A55,55,0,0,1,48.06,98.6a162.57,162.57,0,0,1,21.52-5.32C75.5,92.14,81.43,91,87.35,89.9a52.43,52.43,0,0,0,13.35-4.25,51.87,51.87,0,0,0,14.44-10,1,1,0,0,1,.61-.23,52.64,52.64,0,0,0,8.32-.86,55.39,55.39,0,0,0,21.18-8.87l.39-.23c0,.23-.06.37-.09.5a46.2,46.2,0,0,1-2.16,7A49.56,49.56,0,0,1,120.93,98.61Zm61.85,58.55a47.17,47.17,0,0,1-1,5.47,7,7,0,0,1-5.08,5.45,13.11,13.11,0,0,1-3.78.52,30.55,30.55,0,0,1-7.43-1,18.4,18.4,0,0,1-5.76-2.36,7.51,7.51,0,0,1-3.42-4.56,9.43,9.43,0,0,1,0-3.76,1,1,0,0,1,.76-.9,16.39,16.39,0,0,0,9.15-8.11,1.37,1.37,0,0,1,1.18-.85,9.3,9.3,0,0,1,5.56.79,3.53,3.53,0,0,0,3.36,0,7.94,7.94,0,0,0,1.31-.81c.51-.39,1-.83,1.52-1.32a1.6,1.6,0,0,0,.13.21A14.4,14.4,0,0,1,182.78,157.16Zm-29.7,8.2a7,7,0,0,1,.86.72,24.47,24.47,0,0,0,8.21,5,28.13,28.13,0,0,0,8.45,1.64,20,20,0,0,0,6.36-.47c1.42-.39,2.78-1,4.19-1.43a1.25,1.25,0,0,1,1,0c.34.26.08.68,0,1l0,0a13.28,13.28,0,0,1-4.08,4.8c-3.19,2.25-6.77,2.7-10.53,2.27a2.62,2.62,0,0,0-1.65.33c-.24.13-.38.43-.57.65l.1.12c.13,0,.27,0,.4,0a13,13,0,0,1,2.09,0,2.84,2.84,0,0,1,2,4.5,1.83,1.83,0,0,1-1.76.94,1.9,1.9,0,0,1-1.49-1.4,2.16,2.16,0,0,1-.11-.55c-.08-.7-.13-.8-.86-.78a17.28,17.28,0,0,0-2,.23,1.34,1.34,0,0,1-1.65-1,2.35,2.35,0,0,1,.17-1.9c.35-.64.79-1.22,1.17-1.8-1-.43-2.15-.81-3.19-1.36a14.09,14.09,0,0,1-7.73-9.67,5.15,5.15,0,0,1-.13-1.34C152.2,165.19,152.56,165,153.08,165.36Zm2.08-5.58a23.17,23.17,0,0,0,.9,2.76,8.76,8.76,0,0,0,4.51,4.17A28.4,28.4,0,0,0,175,169.33c3-.26,5.57-1.53,7-4.45l.08-.06a2.59,2.59,0,0,1,1.58,2.16A1.94,1.94,0,0,1,182.6,169a17.81,17.81,0,0,1-3.13,1.42,26,26,0,0,1-13.89.23,24.12,24.12,0,0,1-9.65-4.61,9.52,9.52,0,0,1-2.76-3.2,2.24,2.24,0,0,1-.28-1.06A2.47,2.47,0,0,1,155.16,159.79Zm-146-23.41C5.42,129.89,3.48,123,3.48,121.94a64.5,64.5,0,0,1,.74-9.88c.11-.76.27-1.51.4-2.27a.88.88,0,0,1,.23.42c.55,1.83,1,3.69,1.66,5.49a87.21,87.21,0,0,0,14.61,25.73,3.16,3.16,0,0,1,.53,1,40.62,40.62,0,0,0,5.8,11.42c-2.8-1.2-6-1.62-9.79-6,4.67,9,15.73,12.57,15.73,12.57a51.91,51.91,0,0,0,21.25,11.33c.64.18,1.29.32,1.94.47a1.25,1.25,0,0,0-.46-.25A57.13,57.13,0,0,1,39.85,163a41.47,41.47,0,0,1-13.54-18.13,3.15,3.15,0,0,1-.13-2.34c.21-.55.31-1.14.49-1.71a24.92,24.92,0,0,1,6.62-11.17,26.49,26.49,0,0,1,11-6c4.9-1.44,10-2,15-2.63,2.92-.38,5.83-.84,8.74-1.29.78-.12,1.56-.31,2.39-.48a1.66,1.66,0,0,1-.11.18,37.18,37.18,0,0,0-5.67,8.43.92.92,0,0,1-.5.44,39.05,39.05,0,0,1-4.06,1.2c-2,.41-4.14.56-6.18,1-11,2.18-14.35,8.06-14.3,8,3.33-3.54,8.66-4.54,10.07-5a29.59,29.59,0,0,1,10.13-1.42c1,0,2,.07,3,.11a41.45,41.45,0,0,0,1.51,29.58,2,2,0,0,0-.08-.53,47,47,0,0,1-1.37-18.94A33.67,33.67,0,0,1,73,122.42,49.41,49.41,0,0,1,87.61,113a90.84,90.84,0,0,1,15.8-5c4.05-1,8.12-1.93,12.12-3.11a35.56,35.56,0,0,0,14.34-8,15.32,15.32,0,0,0,1.81-1.88,33.05,33.05,0,0,1,12.95-10.33,11.39,11.39,0,0,1,1.81-3.49A21.83,21.83,0,0,1,151,76.9a4.39,4.39,0,0,1,1.72-.68A1,1,0,0,1,154,77a4.21,4.21,0,0,1,.13.54,3.63,3.63,0,0,1,1,.57,6.94,6.94,0,0,1,.67.58A10.89,10.89,0,0,1,158,82.08a.61.61,0,0,0,.55.41c.65.08,1.3.17,1.94.3,10.39,2.06,18,9.95,19.27,21.3a16.18,16.18,0,0,0,.42,3,32.48,32.48,0,0,0,1.58,3.53c.47,1,1,2,1.4,3.1a5.13,5.13,0,0,1,.15,3.35c-.11.39-.34.49-.65.3s-.81-.61-1.22-.91a13.2,13.2,0,0,0-1.5-1.09,1,1,0,0,0-1.32.26,2.77,2.77,0,0,1,.23.18c1.07,1,2.14,1.9,3.2,2.87a.74.74,0,0,1,.2.53,6,6,0,0,1-1.67,4,5.09,5.09,0,0,1-5,1.67c-.05.75-.1.88-.53,1.11a18,18,0,0,1-9,2.35,12.77,12.77,0,0,0-6.53,1.84,8.83,8.83,0,0,1-2,.85,29,29,0,0,1-6.71.81l-.55,0a.61.61,0,0,0,.35.2,18,18,0,0,0,5.49.35,4.25,4.25,0,0,1,1.79,0c1.52.62,3,1.36,4.47,2.12a1.38,1.38,0,0,0,1.19.16c.93-.35,1.87-.69,2.77-1.1a11,11,0,0,1,6-1.08,8.37,8.37,0,0,1,3.32,1,2.2,2.2,0,0,1,1.23,1.76.6.6,0,0,0,.21.34c.27.25.58.48.85.73a3.2,3.2,0,0,1,1.06,2.78c-.09.92-.36,1.08-1.16.67a1,1,0,0,0-1.2,0c.51.33,1,.62,1.5,1a2.23,2.23,0,0,1,1,2.06,4.61,4.61,0,0,1-5.31,4,2.73,2.73,0,0,1-1.94-1.25.44.44,0,0,0-.33-.2,11.39,11.39,0,0,0-1.88.17,8.15,8.15,0,0,1-3.37.3c-.53-.1-1.05-.25-1.6-.37a11.66,11.66,0,0,1-2.07,4,17.06,17.06,0,0,1-8.38,5.62,28.59,28.59,0,0,1-13.14.93,16,16,0,0,1-13.37-10.4c-.61-1.49-.92-3.1-1.37-4.65a33.11,33.11,0,0,0-3-7.18,21.41,21.41,0,0,0-8.59-8.63,20.24,20.24,0,0,0-13.35-1.84c-.88.16-1.75.38-2.72.6,1.7.1,3.26.14,4.81.3a27.23,27.23,0,0,1,12,4.05c4.37,2.77,7.63,6.4,9,11.55a41.76,41.76,0,0,0,3,8,19.53,19.53,0,0,0,3.1,4.76,16.61,16.61,0,0,0,7.95,4.51c.93.26,1.85.55,2.77.84a1.45,1.45,0,0,1,.92.93,7.16,7.16,0,0,1,.38,4,12.15,12.15,0,0,1-2.91,5.67,21,21,0,0,1-4.31,3.5,22.68,22.68,0,0,0-2.16,1.63,2.43,2.43,0,0,0-.91,2c.06,1.41.15,1.63,1.55,1.16.22-.07.44-.16.65-.25,1.15-.49,2.29-1,3.44-1.48a10.86,10.86,0,0,1,6.86-.7,6.82,6.82,0,0,1,5.28,4.78,1.92,1.92,0,0,1-.08,1.59,1.07,1.07,0,0,1-.76.48c-.24,0-.52-.26-.71-.48s-.12-.38-.17-.57a3.39,3.39,0,0,0-1.7-2.39,3.52,3.52,0,0,0-.61-.18,6.23,6.23,0,0,1,1.94,4.8,2.35,2.35,0,0,1-2.62,2.27.7.7,0,0,1-.76-.63c-.06-.49,0-1,0-1.49a15.68,15.68,0,0,0-.06-1.77,2.19,2.19,0,0,0-1.63-1.86,1.63,1.63,0,0,0-1.27.14,1.86,1.86,0,0,1,1.41.83,7.17,7.17,0,0,1,.7,1.62,2.68,2.68,0,0,1-1,3.13,4.39,4.39,0,0,1-1.8.56,10.59,10.59,0,0,1-3.87-.49,10.63,10.63,0,0,0-2.34-.3,12.44,12.44,0,0,0-2.22.29c-4.46.8-8.94.46-13.49.41-4.91-.06-9.83,0-14.74,0H78c-3.63,0-7.27,0-10.9,0a59.7,59.7,0,0,1-14.81-1.87C33.82,178.42,20,168.43,10.91,151.69A61.31,61.31,0,0,1,3.8,128.1c-.1-1,5.41,9.28,5.36,8.28Z"/><path id="path8016" class="cls-1" d="M153.43,92.88c-1.55-3.3-1.57-4.69.15-7.82,1.29-2.36,4.72-.26,4.26-2.89-.2-2.29-2.59-4.8-3-5.35s-.85-1.28-1.66-1.12a5.24,5.24,0,0,0-2,.95A26.93,26.93,0,0,0,145.5,82c-2.85,3.8-1.67,6.1,1.66,9.13C148.57,92.46,153.6,93.23,153.43,92.88Z"/><path id="path8018" class="cls-6" d="M150.35,80.35a19.43,19.43,0,0,1,3.43-2.65c.71-.47-1.4,5.29-2,6.83-2,5,.63,8.15-.1,7.77-1.6-.85-3.88-3.81-4-5.64C147.45,84.66,149,81.84,150.35,80.35Z"/><g id="g8022"><path id="path8020" class="cls-36" d="M152.8,92.57c-1.55-3.3-1.57-4.69.15-7.82a10.9,10.9,0,0,0,1.42-7.37,6,6,0,0,0-.2-.88c-.27-.79-.76-1.18-1.57-1a5.42,5.42,0,0,0-2.12.84,26.93,26.93,0,0,0-5.62,5.4c-2.18,2.91-1.94,4.9-.29,7.11a1.64,1.64,0,0,0,1.38.73c.79.15,1-1,.7-1.39a7.65,7.65,0,0,1-1-2.86,8,8,0,0,1,2.29-5.62c1.26-1.38,3.8-3.51,5.54-4,.42,1.61-.47,4.81-1,6.37-.69,1.9-2.78,5.37-2.25,7.63a7.22,7.22,0,0,0,1.52,2.62C152.45,92.82,152.8,92.57,152.8,92.57Z"/></g><path id="path8029" class="cls-38" d="M144.53,30"/><g id="g8033" class="cls-3"><path id="path8031" class="cls-39" d="M58.75,130.64a1.07,1.07,0,0,1-.57-.1A1.31,1.31,0,0,1,58.75,130.64Z"/></g><path id="path8035" class="cls-2" d="M154.11,158.3c1.81-2.75,3.84-3.68,6.14-5.84s3.86-4.53,6-6.55c1.7.36,3.62.07,5.37.16,1.25,3.09,7.32.15,7.88-1.84l.81,1.21c1.75,3.45-4.53,3.68-8.1,3.32-2.51-.25-13.34,2.6-13,16.56-1.22,1.87-4.09,0-4.1,2.48s0,6.9,2.2,8.49c-.62,2.18-2.76-.13-3.36-1-1.32-2-3.22-5.41-3.65-7.73C149.64,163.61,152.13,161.3,154.11,158.3Z"/><path d="M24,213.48H54.51v7.33H32.44v12.93h20.8v7.07H32.44v19.86H24V213.48Z"/><path d="M62,210.28h8v50.39H62Z"/><path d="M78.7,217.81a4.61,4.61,0,0,1,1.43-3.37A4.92,4.92,0,0,1,83.77,213a5.29,5.29,0,0,1,3.7,1.37,4.68,4.68,0,0,1,0,6.86,5.29,5.29,0,0,1-3.7,1.37,4.92,4.92,0,0,1-3.63-1.43A4.6,4.6,0,0,1,78.7,217.81Zm1.13,10.86h8v32h-8Z"/><path d="M97.56,228.67h7.6v5.13h.13a10.34,10.34,0,0,1,3.7-4.23,10.63,10.63,0,0,1,6.23-1.83,12,12,0,0,1,5.37,1.1,10.59,10.59,0,0,1,3.67,2.9,11.76,11.76,0,0,1,2.1,4.13,17.42,17.42,0,0,1,.67,4.8v20h-8V242.94a22.78,22.78,0,0,0-.2-2.93,7.93,7.93,0,0,0-.87-2.77,5.76,5.76,0,0,0-1.83-2,5.39,5.39,0,0,0-3.1-.8,6.85,6.85,0,0,0-3.33.77,7.08,7.08,0,0,0-2.3,2A8.67,8.67,0,0,0,106,239.9a11,11,0,0,0-.47,3.17v17.6h-8v-32Z"/><path d="M136.49,210.28h8v31.86h.2l12.13-13.46h10.26l-13.86,14.46,14.73,17.53h-10.6l-12.66-16.4h-.2v16.4h-8V210.28Z"/></g></g></svg>