<svg id="flat" height="70" viewBox="0 0 512 512" width="300" xmlns="http://www.w3.org/2000/svg"><path d="m311.89173 72.0321a16 16 0 0 1 16 16l.05413 87.9679h-143.89172l-.05414-87.9679a16 16 0 0 1 16-16z" fill="#f5a431"/><path d="m200.09 175.98193-.03583-55.95013a8 8 0 0 1 7.98192-8.01787 8 8 0 0 1 8.01806 7.98211l.03585 55.94976z" fill="#eb8117"/><path d="m295.94586 176-.03586-55.95014a8 8 0 0 1 7.982-8.01786 8 8 0 0 1 8.018 7.9821l.03583 55.94977z" fill="#eb8117"/><path d="m135.94586 104a16 16 0 0 1 16 16l.05414 48.03212h-32v32h-64v-32h-32l-.05414-48.03212a16 16 0 0 1 16-16z" fill="#5771e5"/><path d="m87.9463 159.99989a8 8 0 0 1 -8-8v-40h16v40a8 8 0 0 1 -8 8z" fill="#4356e6"/><path d="m463.95 238.1421a6.64637 6.64637 0 0 1 -.96 3.45008l-23.04 38.40991-27.02 43.23a44.18285 44.18285 0 0 1 -65.08984 11.08008l-27.89016-22.31008v72l-8 16h-112l-8-16v-72l-27.8999 22.31006a44.20319 44.20319 0 0 1 -65.0901-11.08008l-27.01-43.23-23.05-38.40991a6.73475 6.73475 0 0 1 -.95-3.45008 6.13689 6.13689 0 0 1 9.54-5.11l22.46 14.97 14.34009-14.35a5.65991 5.65991 0 0 1 9.65991 4v26.35l32 40 39.1001-32.59a32.00082 32.00082 0 0 1 20.48-7.41h120.82976a32.00771 32.00771 0 0 1 20.49024 7.41l39.09985 32.59 32-40v-26.35a5.657 5.657 0 0 1 9.65015-4l14.34985 14.35 22.45-14.97a6.14506 6.14506 0 0 1 9.55 5.11z" fill="#ffceb6"/><path d="m439.95 280.00209-27.02 43.23a44.18285 44.18285 0 0 1 -65.08984 11.08008l-27.89016-22.31008v72l-8 16h-112l-8-16v-72l-27.8999 22.31006a44.20319 44.20319 0 0 1 -65.0901-11.08008l-27.01-43.23 32-16 32 40 39.1001-32.59a32.00082 32.00082 0 0 1 20.48-7.41h120.82976a32.00771 32.00771 0 0 1 20.49024 7.41l39.09985 32.59 32-40z" fill="#ed6445"/><path d="m264 295.892-.054.108 8 64-16 16-16-16 8-64z" fill="#f7c04a"/><path d="m247.946 296-8-16 16-8 16 8-7.946 15.892z" fill="#f5a431"/><path d="m276.74656 297.59991-20.80027-15.6-20.80027 15.6a7.99982 7.99982 0 0 1 -11.19977-1.60007 7.99982 7.99982 0 0 1 1.6-11.19967l25.60023-19.20017a7.998 7.998 0 0 1 9.59961 0l25.60023 19.20016a7.99982 7.99982 0 0 1 1.6 11.19967 7.99982 7.99982 0 0 1 -11.19976 1.60008z" fill="#de402f"/><path d="m239.946 496 16-56 16 56h40v-96h-112v96z" fill="#445496"/><path d="m100.85254 130.2187-12.90625-8.60406-12.90629 8.60406a7.99984 7.99984 0 0 1 -11.09373-2.21878 7.99983 7.99983 0 0 1 2.21873-11.09379l17.34374-11.56249a7.99983 7.99983 0 0 1 8.875 0l17.34374 11.56249a7.99983 7.99983 0 0 1 2.21875 11.09377 7.99984 7.99984 0 0 1 -11.09369 2.2188z" fill="#4356e6"/><path d="m40.03585 168.03212-.03585-16.03242a8 8 0 0 1 7.98193-8.01788 8 8 0 0 1 8.01807 7.98212l.03583 16.032z" fill="#4356e6"/><path d="m120 168.05018-.03583-16.03242a8 8 0 0 1 7.98192-8.01787 8 8 0 0 1 8.01806 7.98211l.03585 16.03205z" fill="#4356e6"/><path d="m263.946 112 8 24-16 16-16-16 8-24z" fill="#51a37e"/><path d="m247.946 112-8-16 16.054-15.968 15.946 15.968-8 16z" fill="#308c72"/><path d="m271.94586 224.03212v31.96788a16 16 0 0 1 -16 16 16 16 0 0 1 -16-16v-31.9679z" fill="#ffceb6"/><path d="m239.94586 248-5.95015-11.90031a19.41639 19.41639 0 0 1 -2.04985-8.68328 19.41639 19.41639 0 0 1 19.41639-19.41641h36.58361v9.37262a22.62741 22.62741 0 0 1 -22.6274 22.62738 22.62742 22.62742 0 0 1 -16-6.62741l-1.37261-1.37259-8 16z" fill="#b36f42"/><path d="m55.946 168h-32l.054 32.032h32z" fill="#ffceb6"/><path d="m152 168h-32l.054 32.032h32z" fill="#ffceb6"/><path d="m87.94588 112a16 16 0 0 1 -16-16v-8l16-8h16v16a16 16 0 0 1 -16 16z" fill="#ffceb6"/><path d="m103.94586 80 4.6863-4.68629a11.31371 11.31371 0 0 0 3.3137-8 11.31369 11.31369 0 0 0 -11.31369-11.31371h-12.68631a16 16 0 0 0 -16 16v16l16-8z" fill="#b36f42"/><path d="m472 104.03212a16 16 0 0 1 16 16l.05414 48.03211h-32v32h-64v-32h-32l-.05414-48.03211a16 16 0 0 1 16-16z" fill="#5771e5"/><g fill="#4356e6"><path d="m424.00043 160.032a8 8 0 0 1 -8-8v-40h16v40a8 8 0 0 1 -8 8z"/><path d="m436.90668 130.25081-12.90625-8.60406-12.90625 8.60406a7.99983 7.99983 0 0 1 -11.09374-2.21878 7.99984 7.99984 0 0 1 2.21876-11.09377l17.34374-11.56249a7.99979 7.99979 0 0 1 8.875 0l17.34373 11.56249a7.99982 7.99982 0 0 1 2.21876 11.09377 7.99982 7.99982 0 0 1 -11.09375 2.21878z"/><path d="m376.09 168.06423-.03583-16.03242a8 8 0 0 1 7.98192-8.01787 8 8 0 0 1 8.01806 7.98211l.03583 16.032z"/><path d="m456.05414 168.0823-.03583-16.03242a8 8 0 0 1 7.98192-8.01787 8 8 0 0 1 8.01806 7.98211l.03583 16.032z"/></g><path d="m392 168.032h-32l.054 32.032h32z" fill="#ffceb6"/><path d="m488.054 168.032h-32l.054 32.032h32z" fill="#ffceb6"/><path d="m424 112.03212a16 16 0 0 1 -16-16v-8l16-8h16v16a16 16 0 0 1 -16 16z" fill="#ffceb6"/><path d="m440 80.03212 4.68629-4.6863a11.3137 11.3137 0 0 0 3.31371-8 11.31369 11.31369 0 0 0 -11.3137-11.31369h-12.6863a16 16 0 0 0 -16 16v16l16-8z" fill="#b36f42"/><path d="m276.74656 105.59991-20.80027-15.6-20.80027 15.6a7.99982 7.99982 0 0 1 -11.19977-1.60007 7.99982 7.99982 0 0 1 1.6-11.19967l25.60023-19.20017a7.998 7.998 0 0 1 9.59961 0l25.60023 19.20016a7.99982 7.99982 0 0 1 1.6 11.19967 7.99982 7.99982 0 0 1 -11.19976 1.60008z" fill="#eb8117"/><path d="m256 80.0321a16 16 0 0 1 -16-16v-8l16-8h16v16a16 16 0 0 1 -16 16z" fill="#ffceb6"/><path d="m272 48.0321 4.68629-4.68629a11.31372 11.31372 0 0 0 3.31371-8 11.3137 11.3137 0 0 0 -11.3137-11.3137h-12.6863a16 16 0 0 0 -16 16v16l16-8z" fill="#b36f42"/></svg>