<?xml version="1.0" encoding="utf-8"?>
<!-- Generator: Adobe Illustrator 22.0.1, SVG Export Plug-In . SVG Version: 6.00 Build 0)  -->
<svg version="1.1" id="design" xmlns="http://www.w3.org/2000/svg" xmlns:xlink="http://www.w3.org/1999/xlink" x="0px" y="0px"
	 viewBox="0 0 202.6 170" style="enable-background:new 0 0 202.6 170;" xml:space="preserve">
<style type="text/css">
	.st0{fill:#1A1918;}
	.st1{fill:#FFFFFF;}
	.st2{fill:#435363;}
	.st3{fill:#F38B00;}
	.st4{fill:#364548;}
	.st5{fill:#22A0C8;}
	.st6{fill:#37B1D9;}
	.st7{fill:#1B81A5;}
	.st8{fill:#1D91B4;}
	.st9{fill:#23A3C2;}
	.st10{fill:#34BBDE;}
	.st11{fill:#D3ECEC;}
	.st12{fill:#BDD9D7;}
	.st13{fill:#E24329;}
	.st14{fill:#FC6D26;}
	.st15{fill:#FCA326;}
	.st16{fill:#D33833;}
	.st17{fill:#EF3D3A;}
	.st18{fill:#231F20;}
	.st19{fill:#F0D6B7;}
	.st20{fill:#335061;}
	.st21{fill:#6D6B6D;}
	.st22{fill:#DCD9D8;}
	.st23{fill:#F7E4CD;}
	.st24{fill:#49728B;}
	.st25{stroke:#D33833;stroke-width:0.816;}
	.st26{fill:#81B0C4;}
	.st27{fill:#1D1919;}
	.st28{fill:#326DE6;}
</style>
<g>
	<path class="st4" d="M30.6,137.9v-13c0-1.7,1.1-3.1,2.8-3.1h0.5c1.8,0,2.8,1.4,2.8,3.1v27.3c0,6.7-3.3,12-9,15.3
		c-2.7,1.6-5.6,2.4-8.7,2.4h-1.2c-6.7,0-11.9-3.3-15.3-9c-1.6-2.7-2.4-5.6-2.4-8.7V151c0-6.7,3.3-12,9-15.3c2.7-1.6,5.6-2.4,8.7-2.4
		h1.2C23.6,133.3,27.4,135,30.6,137.9L30.6,137.9z M6.3,151.6c0,4.8,2.3,8.4,6.5,10.7c1.7,0.9,3.6,1.4,5.5,1.4
		c4.7,0,8.2-2.2,10.6-6.2c1.1-1.9,1.6-3.9,1.6-6.1c0-4.2-2-7.4-5.3-9.8c-2-1.5-4.3-2.2-6.8-2.2c-5.1,0-8.8,2.6-11.1,7.2
		C6.6,148.2,6.3,149.9,6.3,151.6L6.3,151.6z M58,133.3h0.9c7.1,0,12.5,3.5,16,9.7c1.4,2.5,2.1,5.2,2.1,8v1.2c0,6.7-3.3,12-9,15.3
		c-2.7,1.6-5.6,2.4-8.7,2.4H58c-6.7,0-11.9-3.3-15.3-9c-1.6-2.7-2.4-5.6-2.4-8.7V151c0-6.7,3.3-11.9,9-15.3
		C52,134.1,55,133.3,58,133.3L58,133.3z M46.5,151.6c0,4.7,2.3,8.1,6.2,10.5c1.9,1.1,3.9,1.6,6.1,1.6c4.6,0,8-2.3,10.4-6.2
		c1.1-1.9,1.6-3.9,1.6-6.1c0-4.3-2.1-7.7-5.7-10.1c-2-1.3-4.1-2-6.5-2c-5.1,0-8.8,2.6-11.1,7.2C46.8,148.2,46.5,149.9,46.5,151.6
		L46.5,151.6z M102.5,139.9c-0.9-0.4-2.7-0.6-3.7-0.6c-5.1-0.2-8.8,2.7-11,7.2c-0.8,1.6-1.1,3.2-1.1,4.9c0,5.3,2.8,8.9,7.5,11.2
		c1.7,0.8,3.9,1,5.8,1c1.6,0,4-1,5.4-1.7l0.3-0.1h1.1l0.1,0c1.4,0.3,2.5,1.2,2.5,2.7v0.6c0,3.7-6.8,4.6-9.4,4.8
		c-9.2,0.6-16.1-4.4-18.7-13.2c-0.5-1.5-0.7-3-0.7-4.6v-1.2c0-6.7,3.3-11.9,9-15.3c2.7-1.6,5.6-2.4,8.7-2.4h1.2c3.3,0,6.3,0.9,9,2.8
		l0.2,0.2l0.1,0.2c0.3,0.5,0.5,1,0.5,1.6v0.6c0,1.6-1.2,2.4-2.6,2.7l-0.1,0h-0.4C105.4,141.3,103.3,140.3,102.5,139.9L102.5,139.9z
		 M122.4,144.1c2.4-2.4,4.8-4.8,7.2-7.1c0.7-0.7,3.2-3.4,4.2-3.4h1.1l0.1,0c1.4,0.3,2.5,1.2,2.5,2.7v0.6c0,1-1.2,2.2-1.9,2.9
		c-1.4,1.5-2.9,2.9-4.3,4.4l-7.4,7.5c3.2,3.2,6.4,6.4,9.6,9.6c0.9,0.9,1.8,1.8,2.6,2.7c0.3,0.3,0.8,0.7,1,1.2
		c0.3,0.4,0.4,0.9,0.4,1.4v0.6l0,0.1c-0.3,1.4-1.2,2.5-2.8,2.5h-0.5c-1,0-2.2-1.1-2.9-1.8c-1.4-1.4-2.8-2.8-4.2-4.2l-4.7-4.6v7.4
		c0,1.7-1.1,3.1-2.8,3.1h-0.5c-1.8,0-2.8-1.4-2.8-3.1V125c0-1.7,1.1-3.1,2.8-3.1h0.5c1.8,0,2.8,1.4,2.8,3.1V144.1L122.4,144.1z
		 M198.9,133.5h0.6c1.8,0,3.1,1.2,3.1,3.1c0,2.5-2.4,3.2-4.5,3.2c-2.8,0-5.4,1.7-7.3,3.5c-2.4,2.3-3.4,5.3-3.4,8.6v14.9
		c0,1.7-1.1,3.1-2.8,3.1h-0.5c-1.8,0-2.8-1.4-2.8-3.1v-15.7c0-6,2.9-11,7.8-14.4C192,134.6,195.4,133.5,198.9,133.5L198.9,133.5z
		 M155.3,163c2.2,0.8,4.8,0.7,7.1,0.3c1.2-0.5,4.2-1.8,5.3-1.6l0.2,0l0.2,0.1c0.7,0.3,1.3,0.8,1.7,1.5c0.8,1.6,0.4,3.2-1.2,4.1
		l-0.5,0.3c-5.8,3.4-12,2.9-17.8-0.2c-2.8-1.5-4.9-3.7-6.5-6.4l-0.4-0.6c-3.7-6.5-3.2-13.3,1-19.4c1.5-2.1,3.4-3.8,5.6-5.1l0.8-0.5
		c5.5-3.2,11.4-3,17-0.2c3,1.5,5.5,3.7,7.2,6.7l0.3,0.5c1.2,2.1-0.4,4-2,5.3c-1.9,1.5-3.8,3.2-5.7,4.8
		C163.4,156,159.4,159.5,155.3,163L155.3,163z M150,159.3c4.6-3.9,9.1-7.8,13.7-11.7c1.6-1.3,3.3-2.7,4.8-4.1
		c-1.2-1.6-3.3-2.7-5.1-3.4c-3.5-1.3-7-0.9-10.3,1c-4.3,2.5-6.1,6.4-5.9,11.2c0.1,1.9,0.6,3.8,1.6,5.4
		C149.2,158.2,149.6,158.8,150,159.3L150,159.3z"/>
	<path class="st4" d="M116.9,36.2H135v18.5h9.2c4.2,0,8.6-0.8,12.6-2.1c2-0.7,4.2-1.6,6.1-2.8c-2.6-3.3-3.9-7.6-4.2-11.7
		c-0.5-5.7,0.6-13,4.4-17.4l1.9-2.2l2.3,1.8c5.7,4.6,10.5,11,11.4,18.3c6.9-2,15-1.5,21,2l2.5,1.4l-1.3,2.6
		c-5.1,10-15.9,13.1-26.3,12.6c-15.7,39.1-49.8,57.6-91.3,57.6c-21.4,0-41-8-52.2-27l-0.2-0.3l-1.6-3.3c-3.8-8.4-5-17.5-4.2-26.7
		l0.3-2.7h15.5V36.2h18.1V18.1h36.2V0h21.7V36.2"/>
	<path class="st5" d="M175.6,43.1c1.2-9.4-5.9-16.9-10.2-20.4c-5.1,5.8-5.8,21.1,2.1,27.6c-4.4,3.9-13.7,7.5-23.3,7.5H28
		c-0.9,10,0.8,19.1,4.8,27l1.3,2.4c0.8,1.4,1.8,2.8,2.7,4.1h0c4.8,0.3,9.2,0.4,13.2,0.3h0c7.9-0.2,14.4-1.1,19.3-2.8
		c0.7-0.3,1.5,0.1,1.8,0.9c0.3,0.7-0.1,1.5-0.9,1.8c-0.7,0.2-1.3,0.4-2,0.6c0,0,0,0,0,0c-3.9,1.1-8,1.8-13.3,2.2c0.3,0-0.3,0-0.3,0
		c-0.2,0-0.4,0-0.6,0c-2.1,0.1-4.4,0.1-6.7,0.1c-2.5,0-5,0-7.8-0.2l-0.1,0c9.7,10.9,24.8,17.4,43.8,17.4c40.1,0,74.2-17.8,89.3-57.7
		c10.7,1.1,21-1.6,25.7-10.8C190.7,39,181.1,40.3,175.6,43.1"/>
	<path class="st6" d="M175.6,43.1c1.2-9.4-5.9-16.9-10.2-20.4c-5.1,5.8-5.8,21.1,2.1,27.6c-4.4,3.9-13.7,7.5-23.3,7.5H34.9
		C34.4,73,40.1,84.6,50.1,91.6h0c7.9-0.2,14.4-1.1,19.3-2.8c0.7-0.3,1.5,0.1,1.8,0.9c0.3,0.7-0.1,1.5-0.9,1.8
		c-0.7,0.2-1.3,0.4-2,0.6c0,0,0,0,0,0c-3.9,1.1-8.3,1.9-13.7,2.3c0,0-0.1-0.1-0.1-0.1c13.7,7,33.5,7,56.2-1.7
		c25.5-9.8,49.2-28.4,65.7-49.7C176.1,42.9,175.8,43,175.6,43.1"/>
	<path class="st7" d="M28.2,69.9c0.7,5.3,2.3,10.3,4.6,14.9l1.3,2.4c0.8,1.4,1.8,2.8,2.7,4.1c4.8,0.3,9.2,0.4,13.2,0.3
		c7.9-0.2,14.4-1.1,19.3-2.8c0.7-0.3,1.5,0.1,1.8,0.9c0.3,0.7-0.1,1.5-0.9,1.8c-0.7,0.2-1.3,0.4-2,0.6c0,0,0,0,0,0
		c-3.9,1.1-8.3,1.9-13.6,2.2c-0.2,0-0.5,0-0.7,0c-2.1,0.1-4.3,0.2-6.7,0.2c-2.5,0-5.1,0-7.9-0.2c9.7,10.9,24.9,17.4,43.9,17.4
		c34.4,0,64.3-13,81.6-41.9H28.2"/>
	<path class="st8" d="M36,69.9c2.1,9.4,7,16.7,14.2,21.7c7.9-0.2,14.4-1.1,19.3-2.8c0.7-0.3,1.5,0.1,1.8,0.9
		c0.3,0.7-0.1,1.5-0.9,1.8c-0.7,0.2-1.3,0.4-2,0.6c0,0,0,0,0,0c-3.9,1.1-8.4,1.9-13.7,2.2c13.7,7,33.4,6.9,56.1-1.8
		c13.7-5.3,27-13.1,38.8-22.6H36"/>
	<path class="st9" d="M43.8,39.3h15.7V55H43.8V39.3z M45.1,40.6h1.2v13.1h-1.2V40.6z M47.4,40.6h1.3v13.1h-1.3V40.6z M49.8,40.6h1.3
		v13.1h-1.3V40.6z M52.2,40.6h1.3v13.1h-1.3V40.6z M54.6,40.6h1.3v13.1h-1.3V40.6z M57,40.6h1.2v13.1H57V40.6z"/>
	<path class="st9" d="M61.9,21.1h15.7v15.7H61.9V21.1z M63.2,22.5h1.2v13.1h-1.2V22.5z M65.6,22.5h1.3v13.1h-1.3V22.5z M67.9,22.5
		h1.3v13.1h-1.3V22.5z M70.3,22.5h1.3v13.1h-1.3V22.5z M72.7,22.5H74v13.1h-1.3V22.5z M75.1,22.5h1.2v13.1h-1.2V22.5z"/>
	<path class="st10" d="M61.9,39.3h15.7V55H61.9V39.3z M63.2,40.6h1.2v13.1h-1.2V40.6z M65.6,40.6h1.3v13.1h-1.3V40.6z M67.9,40.6
		h1.3v13.1h-1.3V40.6z M70.3,40.6h1.3v13.1h-1.3V40.6z M72.7,40.6H74v13.1h-1.3V40.6z M75.1,40.6h1.2v13.1h-1.2V40.6z"/>
	<path class="st9" d="M80,39.3h15.7V55H80V39.3z M81.3,40.6h1.2v13.1h-1.2V40.6z M83.7,40.6H85v13.1h-1.3V40.6z M86.1,40.6h1.3v13.1
		h-1.3V40.6z M88.4,40.6h1.3v13.1h-1.3V40.6z M90.8,40.6h1.3v13.1h-1.3V40.6z M93.2,40.6h1.2v13.1h-1.2V40.6z"/>
	<path class="st10" d="M80,21.1h15.7v15.7H80V21.1z M81.3,22.5h1.2v13.1h-1.2V22.5z M83.7,22.5H85v13.1h-1.3V22.5z M86.1,22.5h1.3
		v13.1h-1.3V22.5z M88.4,22.5h1.3v13.1h-1.3V22.5z M90.8,22.5h1.3v13.1h-1.3V22.5z M93.2,22.5h1.2v13.1h-1.2V22.5z"/>
	<path class="st10" d="M98.2,39.3h15.7V55H98.2V39.3z M99.5,40.6h1.2v13.1h-1.2V40.6z M101.8,40.6h1.3v13.1h-1.3V40.6z M104.2,40.6
		h1.3v13.1h-1.3V40.6z M106.6,40.6h1.3v13.1h-1.3V40.6z M108.9,40.6h1.3v13.1h-1.3V40.6z M111.3,40.6h1.2v13.1h-1.2V40.6z"/>
	<path class="st9" d="M98.2,21.1h15.7v15.7H98.2V21.1z M99.5,22.5h1.2v13.1h-1.2V22.5z M101.8,22.5h1.3v13.1h-1.3V22.5z M104.2,22.5
		h1.3v13.1h-1.3V22.5z M106.6,22.5h1.3v13.1h-1.3V22.5z M108.9,22.5h1.3v13.1h-1.3V22.5z M111.3,22.5h1.2v13.1h-1.2V22.5z"/>
	<path class="st10" d="M98.2,3h15.7v15.7H98.2V3z M99.5,4.3h1.2v13.1h-1.2V4.3z M101.8,4.3h1.3v13.1h-1.3V4.3z M104.2,4.3h1.3v13.1
		h-1.3V4.3z M106.6,4.3h1.3v13.1h-1.3V4.3z M108.9,4.3h1.3v13.1h-1.3V4.3z M111.3,4.3h1.2v13.1h-1.2V4.3z"/>
	<path class="st9" d="M116.3,39.3H132V55h-15.7V39.3z M117.6,40.6h1.2v13.1h-1.2V40.6z M119.9,40.6h1.3v13.1h-1.3V40.6z M122.3,40.6
		h1.3v13.1h-1.3V40.6z M124.7,40.6h1.3v13.1h-1.3V40.6z M127.1,40.6h1.3v13.1h-1.3V40.6z M129.4,40.6h1.2v13.1h-1.2V40.6z"/>
	<path class="st11" d="M76.6,80.4c2.4,0,4.3,1.9,4.3,4.3s-1.9,4.3-4.3,4.3c-2.4,0-4.3-1.9-4.3-4.3S74.2,80.4,76.6,80.4"/>
	<path class="st4" d="M76.6,81.7c0.4,0,0.8,0.1,1.1,0.2c-0.4,0.2-0.6,0.6-0.6,1.1c0,0.7,0.6,1.3,1.3,1.3c0.5,0,0.9-0.3,1.1-0.7
		c0.2,0.4,0.2,0.8,0.2,1.2c0,1.7-1.4,3.1-3.1,3.1c-1.7,0-3.1-1.4-3.1-3.1C73.5,83.1,74.9,81.7,76.6,81.7"/>
	<path class="st4" d="M0,71.5h201.6c-4.4-1.1-13.9-2.6-12.3-8.4c-8,9.2-27.2,6.5-32.1,1.9c-5.4,7.8-36.9,4.9-39.1-1.2
		c-6.8,8-27.8,8-34.6,0c-2.2,6.1-33.7,9.1-39.1,1.2c-4.9,4.6-24.1,7.3-32.1-1.9C13.9,68.8,4.4,70.3,0,71.5"/>
	<path class="st12" d="M88.2,111.7c-10.7-5.1-16.6-12-19.9-19.6c-4,1.1-8.8,1.9-14.3,2.2c-2.1,0.1-4.3,0.2-6.6,0.2
		c-2.7,0-5.5-0.1-8.4-0.2c9.8,9.8,21.9,17.4,44.4,17.5C84.9,111.7,86.5,111.7,88.2,111.7"/>
	<path class="st11" d="M72.2,99.1c-1.5-2-2.9-4.5-4-7c-4,1.1-8.8,1.9-14.3,2.2C57.7,96.3,63.2,98.3,72.2,99.1"/>
</g>
</svg>
